<?xml version="1.0" encoding="utf-8"?>
<!-- Generator: Adobe Illustrator 24.3.0, SVG Export Plug-In . SVG Version: 6.00 Build 0)  -->
<svg version="1.1" id="Layer_1" xmlns="http://www.w3.org/2000/svg" xmlns:xlink="http://www.w3.org/1999/xlink" x="0px" y="0px"
	 viewBox="0 0 623.6 623.6" style="enable-background:new 0 0 623.6 623.6;" xml:space="preserve">
<style type="text/css">
	.st0{fill:#FFFFFF;}
	.st1{fill:#F16622;}
	.st2{fill:#1E459C;}
	.st3{fill:#1E459B;}
</style>
<g id="BG">
	<rect x="0" y="184.3" class="st0" width="623.6" height="255.1"/>
</g>
<g id="Logo">
	<path class="st1" d="M128.3,396.8L128.3,396.8c6.4,0,11.6-5.2,11.6-11.6V238.3c0-6.4-5.2-11.6-11.6-11.6l0,0
		c-6.4,0-11.6,5.2-11.6,11.6v146.8C116.6,391.5,121.8,396.8,128.3,396.8z"/>
	<path class="st1" d="M110.5,391c-5.6,4.3-11.9,7.8-18.5,10.4l0,0c-7,2.5-12.7,2.6-16,0.6c-7.2-4.1-10.2-20.1-6.1-41.6
		c0.5-2.5,1-5.1,1.7-7.6c6.9,1.5,13.8,2.6,20.8,3.4c-0.2-1.8-0.4-3.5-0.4-5.3v-4.6c-6.3-0.8-12.2-1.8-17.8-3
		c2.1-6.8,4.6-13.6,7.4-20.1c2.1,3.9,4.2,7.9,6.4,11.8c1.3,2.3,2.7,4.5,4,6.7v-19.5c-1.9-3.4-3.6-6.9-5.3-10.4
		c1.7-3.5,3.4-7,5.3-10.5v-19.6c-1.3,2.3-2.7,4.5-4,6.8c-2.3,3.8-4.4,7.8-6.4,11.8c-2.8-6.7-5.3-13.4-7.3-19.7
		c5.6-1.2,11.6-2.3,17.7-3.1v-5.1c0-1.7,0.1-3.3,0.3-5c-7.3,1-14.2,2.2-20.7,3.7c-0.6-2.3-1.1-4.7-1.6-7l0,0
		c-4.3-22-1.5-38.5,5.7-42.6c6.5-3.7,19.7,0.3,34.5,11.3c1-3.2,2.8-6,5.2-8.3c-17.4-12.9-34-17.6-44.6-11.5
		C58.9,220,55.4,240.4,60.4,266c0.5,2.5,1,5.1,1.7,7.6c-2.9,0.8-5.7,1.8-8.4,2.7c-24.2,8.4-39.5,21.6-39.5,35.3
		c0,14.1,16.6,28.3,41.7,36.9c2.1,0.7,4,1.3,6.1,2c-0.6,2.7-1.2,5.4-1.8,8.1c-4.8,25.1-1,45,10.8,51.9c10.6,6.1,27.5,1.4,44.8-11.2
		C113.4,397,111.5,394.2,110.5,391z M64.8,341c-1.9-0.5-3.7-1.1-5.6-1.8c-11.1-3.8-20.3-8.7-26.6-14.1c-5.7-4.9-8.5-9.6-8.5-13.6
		c0-8.3,12.3-18.9,33-26.1c2.6-0.9,5.2-1.8,7.9-2.5c3.1,9.8,6.8,19.5,11.1,28.8C71.6,321.2,67.8,331,64.8,341L64.8,341z"/>
	<path class="st1" d="M201.7,276.1c-2.4-0.8-4.9-1.6-7.4-2.3c0.4-1.7,0.8-3.3,1.1-5c5.6-27,2-48.8-10.5-55.8
		c-10.5-6-26.9-1.2-44.1,11.7c2.4,2.3,4.2,5.1,5.2,8.3c14.6-11.2,27.7-15.2,34-11.6l0,0c7.7,4.4,10.6,22.2,5.8,45.4
		c-0.3,1.6-0.6,3-1,4.6c-6.9-1.6-13.8-2.9-20.9-3.7c0.2,1.7,0.3,3.3,0.3,5v5c6.2,0.8,12.2,2,17.9,3.2c-2,6.3-4.5,12.9-7.3,19.6
		c-2.1-4-4.2-8-6.5-11.8c-1.4-2.3-2.7-4.5-4-6.8v19.5c1.9,3.4,3.6,7,5.4,10.4c-1.8,3.5-3.5,7-5.4,10.6V342l4-6.8c2.3-4,4.5-8,6.6-12
		c3,7,5.6,13.7,7.7,20c-6.1,1.4-12.2,2.5-18.4,3.2v4.8c0,1.7-0.1,3.4-0.4,5.1c7.2-0.9,14.3-2.1,21.4-3.7c0.4,1.9,0.8,3.7,1.2,5.5
		c2.3,11.5,2.6,22,1.1,30.1c-1.4,7.4-4,12.2-7.5,14.1c-6.4,3.7-19.5-0.3-34.1-11.5c-1,3.2-2.8,6-5.2,8.3
		c17.2,13.1,33.7,17.7,44.3,11.6c12.2-7,16.2-28.5,11-54.6c-0.4-2-0.8-4-1.4-6.1c1.4-0.4,2.9-0.8,4.2-1.3
		c26.1-8.6,43.1-22.6,43.1-37C242.3,297.9,226.4,284.6,201.7,276.1z M196.1,339.4L196.1,339.4c-1.2,0.4-2.5,0.8-3.8,1.2
		c-3.2-9.9-7-19.5-11.5-28.8c4.3-9.2,8-18.7,11.1-28.4c2.3,0.7,4.6,1.4,6.7,2.2c21.1,7.3,34,18,34,26.2
		C232.5,320.4,218.6,331.8,196.1,339.4z"/>
	<path class="st2" d="M141.2,246.5v130.6c9.9-4.9,16.1-15,16.2-26v-78.6C157.4,261.5,151.1,251.4,141.2,246.5z"/>
	<path class="st2" d="M115.3,246.5c-9.9,4.9-16.1,15-16.2,26v78.4c0,11,6.3,21.1,16.2,26V246.5z"/>
	<path class="st3" d="M132.3,373.5c-1,0-1.7-0.8-1.8-1.8c0-1.7-0.6-2-3.5-2.6c-3.1-0.6-7.8-1.7-7.8-8.7c0-6.7,4.7-7.9,8.1-8.7
		c3.4-0.8,4.9-1.4,4.9-4.4c0-3.4-2-4.2-5.4-5.3c-2.8-0.9-6.8-2.1-6.8-6.7c0-4.7,4-6,6.8-6.9c3.3-1,5.2-1.9,5.2-5
		c0-2.8-1.4-3.2-4.5-3.9c-3.1-0.7-7.5-1.8-7.5-8c0-6.2,4.7-7.8,7.8-8.6c3.1-0.8,4.2-1.3,4.2-3.3s-0.6-2.2-3.4-2.8s-7.1-1.6-7.1-7.7
		s4.7-7.8,8-9c3.1-1.1,4.1-1.7,4.1-3.1c0-1.2-0.8-1.7-3.7-2.6c-3.4-1-8.5-2.6-8.5-9.8c0-9.3,8.3-13.6,12.6-14.6
		c0.9-0.2,1.9,0.3,2.1,1.3c0.2,0.9-0.3,1.9-1.3,2.1c0,0-0.1,0-0.1,0c-0.4,0.1-10,2.4-10,11.2c0,4.4,2.3,5.2,6,6.3
		c2.8,0.8,6.2,1.9,6.2,5.9s-3.5,5.5-6.4,6.5c-3.5,1.2-5.7,2.3-5.7,5.7c0,3.1,1.3,3.6,4.2,4.2c2.5,0.5,6.2,1.4,6.2,6.2
		c0,4.8-3.8,5.8-6.6,6.6c-3.4,1-5.3,1.8-5.3,5.3c0,3.2,1.6,3.7,4.8,4.6c2.9,0.7,7.2,1.7,7.2,7.4c0,5.9-4.4,7.4-7.6,8.4
		s-4.4,1.6-4.4,3.5s1.1,2.4,4.3,3.4c3.3,1,7.9,2.5,7.9,8.7c0,5.9-4.4,7-7.6,7.8c-3.5,0.8-5.4,1.6-5.4,5.3c0,4.3,2,4.7,5,5.3
		c2.5,0.5,6.3,1.4,6.3,6c0.2,0.8-0.4,1.6-1.2,1.7C132.6,373.5,132.5,373.5,132.3,373.5z"/>
	<g>
		<path class="st3" d="M287.2,277.9h-6.3V295h-11.6v-48.4h19.1c5.7,0,10.3,1.2,13.5,3.8c3.3,2.6,5.1,6.6,4.9,10.8
			c0.1,2.9-0.6,5.8-2.1,8.4c-1.6,2.4-3.8,4.3-6.4,5.4l10.1,19.5v0.5h-12.5L287.2,277.9z M280.9,268.9h7.4c1.8,0.1,3.6-0.5,5-1.8
			c1.2-1.3,1.8-3.1,1.7-4.9c0.1-1.8-0.5-3.5-1.7-4.9c-1.4-1.2-3.2-1.9-5-1.8h-7.4V268.9z"/>
		<path class="st3" d="M343.6,274.4h-18.4v11.5h21.7v8.9h-33.3v-48.3H347v9h-21.8v10.2h18.4V274.4z"/>
		<path class="st3" d="M379.2,285.8h-16.1l-2.8,9h-12.5l17.7-48.3h11l17.8,48.3h-12.5L379.2,285.8z M365.9,276.9h10.4l-5.2-16.8
			L365.9,276.9z"/>
		<path class="st3" d="M436.4,278.6c-0.1,3.2-1,6.2-2.7,8.9c-1.7,2.6-4.1,4.7-7,6c-3.2,1.5-6.7,2.2-10.3,2.1c-6.3,0-11.4-2.1-15-6.2
			s-5.5-10-5.5-17.5v-2.4c-0.1-4.3,0.8-8.5,2.5-12.5c1.5-3.4,4-6.2,7.2-8.2c3.2-2,7-3,10.8-2.9c5.9,0,10.6,1.6,14.1,4.7
			c3.6,3.3,5.8,7.9,6.1,12.8H425c-0.1-2.9-0.8-5.1-2.2-6.3c-1.4-1.2-3.5-2-6.4-2c-2.6-0.2-5,1.1-6.4,3.2c-1.5,2.2-2.1,5.6-2.1,10.4
			v3.4c0,5.2,0.6,8.8,2,11.1s3.5,3.3,6.7,3.3c2.7,0,4.8-0.6,6.1-1.9s2.2-3.2,2.3-6L436.4,278.6z"/>
		<path class="st3" d="M479,255.6h-14.6V295h-11.6v-39.4h-14.2v-9h40.5L479,255.6L479,255.6z"/>
	</g>
	<g>
		<path class="st3" d="M299.4,357.3l-18.7-27v27H270v-45.4h10.8l18.7,27v-27h10.8v45.4H299.4z"/>
		<path class="st3" d="M319,311.9h28.2v8.8h-17.1v9.1h16.3v8.8h-16.3v9.6h17.3v8.8H319V311.9z"/>
		<path class="st3" d="M399.3,343.3l7.1-31.4h11.4l-12.6,45.4h-11.4l-9.2-34l-9.2,34h-11.4l-12.5-45.3h11.4l7,31.4l8.4-31.4h12.3
			L399.3,343.3z"/>
		<path class="st3" d="M458.3,340.7v16.5h-11.2v-16.5l-14.9-28.8h11.9l8.6,19.1l8.6-19.1h11.9L458.3,340.7z"/>
		<path class="st3" d="M520.1,334.5c0,3.1-0.5,6.2-1.5,9.1c-1,2.8-2.6,5.3-4.6,7.5c-2,2.2-4.5,3.9-7.3,5.1c-3.1,1.3-6.4,1.9-9.8,1.9
			c-3.4,0.1-6.7-0.6-9.9-1.9c-2.8-1.1-5.2-2.9-7.3-5.1c-2-2.2-3.5-4.7-4.5-7.5c-1.1-2.9-1.6-6-1.6-9.1c0-3.1,0.5-6.2,1.6-9.1
			c1-2.8,2.5-5.3,4.5-7.5c2-2.2,4.5-3.9,7.3-5.1c3.1-1.3,6.5-1.9,9.9-1.9c3.3-0.1,6.7,0.6,9.8,1.9c2.8,1.1,5.2,2.9,7.3,5.1
			c2,2.2,3.5,4.7,4.6,7.5C519.6,328.3,520.2,331.4,520.1,334.5z M497,349.1c1.8,0.1,3.6-0.3,5.2-1c1.5-0.7,2.7-1.7,3.7-3
			c1.1-1.4,1.9-3,2.3-4.7c0.5-1.9,0.8-3.9,0.7-5.9c0-2-0.2-4-0.7-5.9c-0.5-1.7-1.2-3.3-2.3-4.7c-1-1.3-2.3-2.3-3.7-3
			c-1.6-0.7-3.4-1.1-5.2-1c-1.8,0-3.5,0.3-5.2,1c-1.4,0.7-2.7,1.8-3.7,3c-1.1,1.4-1.9,3-2.3,4.7c-0.5,1.9-0.8,3.9-0.7,5.9
			c0,2,0.2,4,0.7,5.9c0.5,1.7,1.2,3.3,2.3,4.7c1,1.2,2.3,2.3,3.7,3C493.4,348.9,495.2,349.2,497,349.1z"/>
		<path class="st3" d="M561,326.2c0.1,2.9-0.8,5.7-2.6,8c-1.8,2.4-4.3,4.2-7.2,5.2l15,17.9h-13.8L540,341.4h-2.1v15.8h-11.2v-45.4
			h14.4c2.6,0,5.2,0.3,7.8,0.9c2.2,0.5,4.3,1.4,6.2,2.7c1.7,1.1,3.1,2.7,4.2,4.5C560.5,321.8,561.1,324,561,326.2z M550.2,326.4
			c0.1-1.8-0.8-3.6-2.4-4.6c-2-1.1-4.3-1.6-6.6-1.5H538v12.8h2.7c2.5,0.1,4.9-0.5,7-1.8C549.4,330.3,550.3,328.4,550.2,326.4
			L550.2,326.4z"/>
		<path class="st3" d="M570.3,357.3v-45.4h11.2v21.7l14.3-21.7h12.5l-15.4,22.4l16.4,23h-13.4l-14.5-22.2v22.2H570.3z"/>
	</g>
</g>
</svg>
