<?xml version="1.0" encoding="utf-8"?>
<!-- Generator: Adobe Illustrator 24.3.0, SVG Export Plug-In . SVG Version: 6.00 Build 0)  -->
<svg version="1.1" id="Layer_1" xmlns="http://www.w3.org/2000/svg" xmlns:xlink="http://www.w3.org/1999/xlink" x="0px" y="0px"
	 viewBox="0 0 623.6 623.6" style="enable-background:new 0 0 623.6 623.6;" xml:space="preserve">
<style type="text/css">
	.st0{fill:#FFFFFF;}
	.st1{fill:#D1348C;}
</style>
<g id="BG">
	<rect x="0" y="184.3" class="st0" width="623.6" height="255.1"/>
</g>
<g id="Logo">
	<path class="st1" d="M123,401.4c-2.1-1.7-3.7-3.9-4.9-6.3c-6.4,5.1-13.6,9.2-21.3,12.1l0,0c-7.5,2.6-13.4,2.7-17,0.6
		c-7.6-4.4-10.8-21.5-6.5-44.3c0.5-2.7,1.1-5.4,1.8-8c10.8,2.3,21.7,3.9,32.7,4.8c2.8,3.9,5.7,7.7,8.6,11.4v-21.3l-2.8-0.2
		c-4.2-6.1-8.1-12.4-11.8-18.8s-7.2-12.9-10.3-19.5c3.2-6.7,6.6-13.2,10.3-19.6l0,0l0.7-1.1c-1.6-1-2.9-2.3-4.1-3.8
		c-1.2-1.5-2.1-3.2-2.8-5c-1,1.6-1.9,3.1-2.8,4.7c-2.4,4.1-4.7,8.3-6.9,12.6c-3-7.2-5.6-14.2-7.7-21c5.2-1.2,10.7-2.2,16.4-3
		c0.1-1,0.2-1.9,0.4-2.9c0.6-2.7,1.3-5.3,2-8c-7.5,1-14.7,2.3-21.5,3.8c-0.6-2.5-1.2-5-1.7-7.5l0,0c-4.6-23.3-1.6-40.9,6-45.2
		c6-3.5,17.4-0.7,30.5,7.8c3-3,6.9-4.7,11.1-5c-18.3-13.3-35.7-18.2-46.8-11.7c-12.7,7.4-16.4,29.1-11.1,56.3c0.5,2.7,1.1,5.4,1.8,8
		c-3.1,0.9-6.1,1.8-9,2.9c-25.7,9-42.1,23-42.1,37.5c0,15,17.6,30.1,44.3,39.2c2.2,0.7,4.4,1.4,6.6,2.1c-0.7,2.9-1.3,5.7-1.9,8.6
		c-5.1,26.7-1.1,47.9,11.5,55.2c11.8,6.8,30.9,1.1,50.3-14C124.3,402.3,123.6,401.9,123,401.4z M85.8,324.1
		c2.2,4.2,4.5,8.4,6.9,12.5c2.4,4.1,4.9,8.3,7.6,12.5c-7.5-0.8-15-2-22.3-3.6C80.1,338.5,82.7,331.4,85.8,324.1z M67.9,342.9
		c-2-0.6-4-1.2-6-1.9c-11.8-4-21.6-9.3-28.3-15c-6-5.2-9.1-10.3-9.1-14.4c0-8.8,13.2-20.1,35.1-27.7c2.8-1,5.5-1.8,8.3-2.6
		c3.3,10.5,7.2,20.7,11.8,30.6C75.1,321.9,71.2,332.3,67.9,342.9z"/>
	<path class="st1" d="M213.6,273.9L213.6,273.9c-2.6-0.9-5.2-1.7-7.8-2.5c0.4-1.8,0.8-3.5,1.2-5.3c5.9-28.7,2-51.8-11.2-59.4
		c-11.1-6.4-28.3-1.3-46.4,12.2c3.9,0.5,7.6,2.4,10.3,5.4c13.4-9,25-12.1,31-8.6c8.1,4.7,11.3,23.6,6.2,48.3
		c-0.3,1.6-0.7,3.2-1.1,4.8c-7.7-1.8-15.6-3.2-23.4-4.1c0.6,2.4,1.2,4.9,1.8,7.3c0.3,1.1,0.5,2.3,0.5,3.5c6.4,1,12.5,2,18.3,3.3
		c-2.2,7.1-4.8,14.1-7.8,20.9c-2.2-4.2-4.6-8.4-7-12.6l0,0c-1.3-2.2-2.6-4.4-3.9-6.6c-0.9,3.9-3.1,7.4-6.2,9.8l1.1,1.9
		c3.7,6.3,7.2,12.8,10.5,19.5c-3.2,6.7-6.7,13.2-10.4,19.6l0,0c-3.7,6.4-7.5,12.6-11.6,18.8c-1.6,0.1-3.2,0.2-4.8,0.3v24
		c3.6-4.5,7.1-9.3,10.6-14.3c11-0.9,22-2.6,32.8-5c0.5,2,0.9,4,1.3,5.9l0,0c2.4,12.3,2.8,23.3,1.2,32c-1.4,7.8-4.3,13-7.9,15.1
		c-7.3,4.2-22.5-0.8-39.1-14.4c-0.8,2.1-2,4.1-3.4,5.9c-0.8,0.9-1.7,1.8-2.7,2.5c19.5,15.8,38.5,21.9,50.4,15
		c13-7.5,17.2-30.3,11.7-58c-0.4-2.1-1-4.3-1.4-6.5c1.5-0.5,3-0.9,4.5-1.4c27.8-9.2,45.9-24.1,45.9-39.3
		C256.7,297,239.8,282.9,213.6,273.9z M170.8,348.9c2.5-4.1,5-8.2,7.4-12.4c2.4-4.2,4.8-8.5,7-12.9l0,0c3.1,7,5.8,14.1,8.1,21.3
		C185.9,346.7,178.4,348,170.8,348.9L170.8,348.9z M207.6,341.1L207.6,341.1c-1.3,0.4-2.7,0.9-4.1,1.3c-3.4-10.5-7.5-20.8-12.3-30.7
		c4.6-9.8,8.6-19.9,11.8-30.3c2.5,0.7,4.9,1.5,7.2,2.3c22.4,7.7,36.1,19.1,36.1,27.9C246.3,321,231.6,333.2,207.6,341.1L207.6,341.1
		z"/>
	<path class="st1" d="M140,297.6c-3.1-1.5-6.8-1.6-10-0.4c-0.1-0.1-0.2-0.2-0.2-0.3c0.7-3.3-1.7-5.2-3.3-7.5
		c-1.1-1.9-3.2-2.9-5.3-2.7c-3.1,0.1-6.2,0-9.3,0c-5.6,0-10.1-4.5-10.1-10.1c0-0.7,0.1-1.3,0.2-2c1.6-7.2,3.7-14.3,5.6-21.4
		c1.6-6.2,3.3-12.3,4.9-18.4c1.5-5.6,4.6-8.5,10.5-8.6c8.1-0.2,16.3-0.1,24.4,0.1c4.4,0.2,8.1,3.2,9.1,7.4
		c3.5,13.3,7.1,26.7,10.4,40.1c1.5,5.4-1.5,11-6.9,12.6c-1.1,0.3-2.2,0.4-3.3,0.4c-3.4-0.1-6.9-0.1-10.3,0c-0.7,0.1-1.4,0.5-1.9,1
		c-0.7,0.7-1.3,1.5-1.9,2.3C141.1,292.2,138.7,294.1,140,297.6z M134.6,278.7h20.3c2,0,3.2-1,3.2-2.8c0-1.8-1.2-2.9-3.3-2.9h-40.5
		c-2,0-3.4,1.2-3.4,2.9s1.4,2.9,3.4,2.9L134.6,278.7z"/>
	<path class="st1" d="M123.8,348.1v-38.8c0-6.4,4.6-11.2,10.8-11.2s10.9,4.8,10.9,11.2V387c0.1,5.6-4,10.3-9.6,11
		c-5.7,0.7-11-3.2-11.9-8.9c-0.1-0.7-0.2-1.5-0.2-2.3C123.8,373.9,123.7,361,123.8,348.1z"/>
	<path class="st1" d="M312.8,230.5c7.2,0,12.8,1.6,16.9,4.9s6.1,7.8,6.1,13.6c0.1,3-0.8,5.9-2.6,8.3c-1.9,2.5-4.5,4.5-7.5,5.7
		c3.7,1.1,6.4,2.9,8,5.5c1.7,2.9,2.6,6.2,2.5,9.5v3.2c-0.1,1.1,0.2,2.3,0.8,3.2c0.7,0.8,1.7,1.3,2.7,1.4l1.6,0.2v7.6h-6.6
		c-4.1,0-7-1.1-8.7-3.3c-1.8-2.5-2.7-5.6-2.5-8.6v-3.6c0.1-2.6-0.7-5.2-2.5-7.2c-1.8-1.8-4.3-2.8-6.9-2.8h-10.3v16.7l6.8,1.3v7.6
		h-26.2v-7.6l6.7-1.3v-45.4l-6.7-1.3v-7.6L312.8,230.5L312.8,230.5z M303.8,258.4h8.8c3.5,0,6.2-0.8,7.9-2.2
		c1.8-1.7,2.8-4.1,2.6-6.5c0.1-2.5-0.8-5-2.6-6.8c-1.8-1.7-4.3-2.5-7.7-2.5h-9L303.8,258.4z"/>
	<path class="st1" d="M368.3,294.6c-6.8,0-12.2-2.2-16.2-6.5c-4.1-4.3-6.1-9.9-6.1-16.5v-1.7c0-7,1.9-12.7,5.7-17.2
		c3.8-4.5,8.9-6.8,15.4-6.7c6.4,0,11.3,1.9,14.8,5.7c3.5,3.8,5.2,9,5.2,15.5v6.9h-28l-0.1,0.3c0.1,2.8,1.2,5.5,3.1,7.6
		c1.9,2,4.7,3.1,7.5,3c2.4,0.1,4.7-0.2,7-0.9c2.1-0.7,4.1-1.6,6.1-2.7l3.4,7.8c-2.3,1.7-4.8,3-7.5,3.9
		C375.3,294.1,371.8,294.6,368.3,294.6z M367.2,255.6c-2.2-0.1-4.3,0.9-5.5,2.7c-1.5,2.1-2.3,4.5-2.5,7.1l0.1,0.2h15.5v-1.1
		c0.1-2.3-0.6-4.6-1.9-6.5C371.5,256.3,369.4,255.5,367.2,255.6L367.2,255.6z"/>
	<path class="st1" d="M423.1,293.7c-0.3-0.8-0.7-1.6-0.9-2.4c-0.3-0.8-0.5-1.7-0.6-2.5c-1.5,1.8-3.4,3.2-5.5,4.2
		c-2.3,1.1-4.8,1.6-7.4,1.6c-4.6,0-8.3-1.3-11-3.8c-2.7-2.5-4.1-5.9-4.1-10.2c-0.1-4.1,1.9-8,5.4-10.2c3.5-2.4,8.7-3.6,15.5-3.6h6.5
		v-4.6c0.1-2-0.6-3.9-2-5.2c-1.6-1.4-3.7-2-5.8-1.9c-1.3,0-2.6,0.2-3.9,0.5c-1,0.3-1.9,0.6-2.7,1.2l-0.8,5h-9.5v-10.5
		c2.5-1.6,5.2-2.9,8-3.8c3.1-1.1,6.5-1.6,9.8-1.6c5.8,0,10.5,1.4,14.2,4.3c3.6,2.9,5.4,6.9,5.5,12.2v21.4c0,0.6,0.1,1.2,0.1,1.8
		l3.9,0.5v7.6L423.1,293.7z M412.1,285.2c1.8,0,3.6-0.4,5.2-1.2c1.4-0.7,2.7-1.8,3.6-3.1v-7.2h-6.4c-2.7,0-4.8,0.6-6.1,1.9
		c-1.3,1.1-2.1,2.8-2.1,4.5c-0.1,1.4,0.5,2.8,1.5,3.7C409.1,284.8,410.6,285.3,412.1,285.2L412.1,285.2z"/>
	<path class="st1" d="M464.1,284.9c2,0.1,4-0.6,5.4-2c1.4-1.4,2.1-3.3,2-5.3h11.4l0.1,0.3c0.2,4.6-1.8,9-5.3,11.9
		c-3.8,3.2-8.7,4.9-13.7,4.8c-7,0-12.4-2.2-16.2-6.7c-3.8-4.4-5.7-10.1-5.7-17.1v-1.3c0-6.9,1.9-12.6,5.8-17.1s9.4-6.7,16.6-6.7
		c3.5,0,6.9,0.5,10.2,1.7c2.8,1,5.4,2.6,7.5,4.7l0.2,12.6h-10.2l-2.1-7.3c-0.7-0.6-1.5-1.1-2.3-1.4c-1-0.4-2.1-0.6-3.2-0.6
		c-3.6,0-6.1,1.3-7.6,3.9c-1.6,3.1-2.4,6.6-2.2,10.1v1.3c0,4.2,0.7,7.6,2,10.1C458.2,283.5,460.6,284.8,464.1,284.9z"/>
	<path class="st1" d="M507.6,235.3v11.5h8.2v8.9h-8.2v23.9c-0.1,1.4,0.3,2.8,1.1,3.9c0.8,0.8,1.9,1.2,3,1.2c0.8,0,1.5,0,2.3-0.1
		c0.7-0.1,1.5-0.2,2.2-0.4l1.1,9.2c-2.8,0.9-5.8,1.3-8.7,1.3c-4.4,0-7.7-1.2-10.1-3.6c-2.3-2.4-3.5-6.2-3.5-11.4v-23.9H488v-8.9h6.9
		v-11.5H507.6z"/>
	<path class="st1" d="M349,315.4v7.6l-6.8,1.3v54.2h-12.6l-25.5-42.5h-0.3v33.6l6.8,1.3v7.6h-26.2V371l6.7-1.3v-45.4l-6.7-1.3v-7.6
		h19.4l25.5,42.5h0.3v-33.6l-6.8-1.3v-7.6L349,315.4L349,315.4z"/>
	<path class="st1" d="M353.4,354.7c0-7,2-12.7,5.9-17.2c3.9-4.5,9.3-6.7,16.2-6.7c6.9,0,12.4,2.2,16.3,6.7
		c3.9,4.4,5.9,10.2,5.9,17.2v1c0,7.1-2,12.8-5.9,17.2c-3.9,4.4-9.3,6.7-16.2,6.7c-7,0-12.4-2.2-16.3-6.7c-3.9-4.4-5.9-10.2-5.9-17.2
		L353.4,354.7z M366.1,355.7c0,4.3,0.7,7.7,2.2,10.3c1.5,2.6,3.9,3.9,7.3,3.9c2.9,0.2,5.7-1.3,7.2-3.9c1.5-2.6,2.3-6,2.3-10.3v-1
		c0.1-3.5-0.7-7.1-2.3-10.2c-2.5-4-7.8-5.2-11.8-2.6c-1.1,0.7-1.9,1.6-2.6,2.6c-1.6,3.1-2.4,6.7-2.2,10.2V355.7z"/>
	<path class="st1" d="M404.2,371l6.1-1.3v-29.1l-6.7-1.3v-7.6h18.5l0.6,6.9c0.9-2.2,2.4-4.2,4.2-5.7c1.7-1.3,3.8-2,6-2
		c0.7,0,1.4,0.1,2.1,0.1c0.6,0.1,1.2,0.2,1.8,0.4l-1.3,11.5l-5.2-0.1c-1.6-0.1-3.2,0.3-4.6,1.1c-1.2,0.7-2.2,1.8-2.8,3.1v22.8
		l6.1,1.3v7.6h-24.8V371z"/>
	<path class="st1" d="M508.3,339.3l-4.8,0.6l-9.8,38.7h-10.6l-8.7-28h-0.3l-8.7,28h-10.5l-9.9-38.7l-4.8-0.6v-7.6h21.3v7.6l-5,1
		l4.5,21.5h0.3l8.8-30.1h8.5l8.9,30.2h0.2l4.4-21.6l-5-0.9v-7.6h21.2L508.3,339.3z"/>
	<path class="st1" d="M542.5,378.6c-0.4-0.8-0.7-1.6-1-2.4c-0.3-0.8-0.5-1.6-0.6-2.5c-1.5,1.8-3.4,3.2-5.5,4.2
		c-2.3,1.1-4.8,1.6-7.4,1.6c-4.6,0-8.3-1.2-11-3.7c-2.7-2.5-4.1-5.9-4-10.2c-0.2-4.1,1.9-8,5.3-10.2c3.5-2.4,8.7-3.6,15.5-3.6h6.5
		v-4.6c0.1-1.9-0.6-3.8-1.9-5.2c-1.3-1.3-3.3-1.9-5.8-1.9c-1.3,0-2.6,0.1-3.9,0.5c-1,0.3-1.9,0.7-2.7,1.2l-0.8,5h-9.5v-10.4
		c2.5-1.6,5.2-3,8-3.9c3.1-1.1,6.5-1.6,9.8-1.6c5.8,0,10.5,1.4,14.2,4.3c3.6,2.8,5.4,6.9,5.5,12.2v21.4c0,0.6,0.1,1.2,0.2,1.8
		l3.9,0.5v7.6L542.5,378.6z M531.5,370.2c1.8,0,3.6-0.4,5.2-1.2c1.4-0.7,2.7-1.8,3.7-3.1v-7.2h-6.5c-2.7,0-4.7,0.6-6.1,1.9
		c-1.3,1.1-2.1,2.8-2.1,4.5c-0.1,1.4,0.5,2.8,1.5,3.7C528.5,369.8,530,370.3,531.5,370.2L531.5,370.2z"/>
	<path class="st1" d="M609.5,339.3l-4.4,0.6l-17.3,45.7c-1.2,3.2-3.1,6.1-5.5,8.5c-2.3,2.3-5.7,3.4-10.3,3.4c-1,0-2-0.1-3-0.3
		c-1-0.2-2-0.4-3.3-0.7l1.5-9.2l1.3,0.2c0.4,0.1,0.7,0.1,1.1,0.1c1.8,0.1,3.5-0.4,4.9-1.5c1.1-1.1,2-2.4,2.6-3.8l1.4-3.6L563.6,340
		l-4.4-0.7v-7.6h23v7.6l-5.2,0.9l6.4,18.8l0.7,3.4h0.3l7.4-22.2l-5.3-0.9v-7.6h23L609.5,339.3z"/>
</g>
</svg>
