<svg xmlns="http://www.w3.org/2000/svg" xmlns:xlink="http://www.w3.org/1999/xlink" viewBox="0 0 623.62 255.12"><defs><style>.cls-1,.cls-2{fill:#fff;}.cls-2,.cls-3,.cls-4,.cls-5,.cls-6{fill-rule:evenodd;}.cls-3,.cls-9{fill:#365164;}.cls-4,.cls-8{fill:#00a37a;}.cls-5{fill-opacity:0.45;fill:url(#linear-gradient);}.cls-6{fill-opacity:0.2;fill:url(#linear-gradient-2);}.cls-7{isolation:isolate;}</style><linearGradient id="linear-gradient" x1="15.75" y1="547.94" x2="15.75" y2="548.21" gradientTransform="translate(4486 182994.8) rotate(180) scale(276.5 333.63)" gradientUnits="userSpaceOnUse"><stop offset="0" stop-color="#fff"/><stop offset="1" stop-color="#365164"/></linearGradient><linearGradient id="linear-gradient-2" x1="13.97" y1="547.94" x2="13.97" y2="548.21" gradientTransform="matrix(276.5, 0, 0, -333.63, -3809, 182994.8)" xlink:href="#linear-gradient"/></defs><g id="BG"><rect class="cls-1" width="623.62" height="255.12"/></g><g id="Logo"><g id="VueDose_logo_withletters" data-name="VueDose logo withletters"><g id="Logo-2" data-name="Logo"><path id="Fill-2" class="cls-2" d="M154.75,66c-.51-.05-1-.08-1.55-.08H28.8c-.43,0-.86,0-1.28.06l63.63,39.64Z"/><path id="Fill-4" class="cls-2" d="M14.17,96.15v78.29a14.76,14.76,0,0,0,14.77,14.75H153.32a14.76,14.76,0,0,0,14.77-14.75V96.34L91.28,144.27Z"/><path id="Fill-6" class="cls-2" d="M91.11,125.19l-76.64-48h0l76.64,48L167.5,77.35h0Z"/><path id="Fill-8" class="cls-3" d="M167.5,77.2A14.77,14.77,0,0,0,154.68,66L91.11,105.64,27.51,65.93A14.77,14.77,0,0,0,14.47,77l76.64,47.85Z"/><path id="Fill-10" class="cls-4" d="M14.61,77.19a15.13,15.13,0,0,0-.44,3.58V96.21l77.11,48.24,76.81-48.06V80.77a14.89,14.89,0,0,0-.4-3.42l-76.41,47.8Z"/><g id="Clip-13"><path id="path-3" class="cls-5" d="M168.39,96.15,91.28,144.27l62.34,44.92a14.76,14.76,0,0,0,14.77-14.75Z"/></g><path id="Fill-20" class="cls-3" d="M152.08,189.19h1.24a14.77,14.77,0,0,0,14.77-14.77V96.15l-16,10Z"/><path id="Clip-13-2" data-name="Clip-13" class="cls-6" d="M14.17,96.15l77.11,48.12L28.94,189.19a14.76,14.76,0,0,1-14.77-14.75Z"/><path id="Fill-18" class="cls-3" d="M14.17,96.15v78.29a14.76,14.76,0,0,0,14.77,14.75h1.25v-83Z"/></g><g id="Dose"><g id="text-5" class="cls-7"><g class="cls-7"><path class="cls-8" d="M420,99c13.5,0,24.1,6.59,24.1,24.32v32.91c0,17.73-10.6,24.32-24.1,24.32H400.3c-2.57,0-4.24-1.57-4.24-3.24V102.24c0-1.67,1.67-3.24,4.24-3.24Zm-14.61,8.48v64.59H420c9.15,0,14.73-5,14.73-15.84V123.32c0-10.82-5.58-15.84-14.73-15.84Z"/><path class="cls-8" d="M504.26,148.42V159.8c0,11.26-10.26,21.64-22.09,21.64s-22-10.26-22-21.64V148.42c0-11.38,9.93-21.42,22-21.42C494,127,504.26,136.71,504.26,148.42Zm-9.26,0c0-6.58-5.69-13-12.83-13s-12.71,6.47-12.71,13V159.8c0,6.8,5.69,13.27,12.71,13.27S495,166.6,495,159.8Z"/><path class="cls-8" d="M545.09,166.94c0-13.5-27.22-5.8-27.22-24.32,0-7.36,4.91-15.62,18.29-15.62,7.81,0,15.73,2.9,15.73,6,0,1.45-1.45,4.68-3.68,4.68-2,0-5.47-3.23-11.94-3.23-7.47,0-10.15,4.46-10.15,7.8,0,11.38,27.33,4,27.33,24.21,0,9.15-6.69,14.95-18.63,14.95-10.71,0-18.29-4.69-18.29-8.48,0-1.67,1.34-4.24,3.23-4.24,2.57,0,4.91,5.24,14.73,5.24C542.52,174,545.09,170.51,545.09,166.94Z"/><path class="cls-8" d="M609.45,147.53c0,8.92-4.91,9.26-9.93,9.26H575.09v3.34c0,8.26,6.58,13.5,15.84,13.5,8.37,0,10.71-4.35,13.5-4.35,2.23,0,3.79,2.57,3.79,4.24,0,2.9-6.8,7.92-17.62,7.92-14.5,0-24.77-8.7-24.77-21.64V148.09c0-11.38,9.93-21.09,22.2-21.09C599.41,127,609.45,135.59,609.45,147.53Zm-13.72,3c3.9,0,4.91-.67,4.91-3.57a12.69,12.69,0,0,0-12.72-12.6c-7,0-12.83,5.35-12.83,12.15v4Z"/></g></g><g id="text-5-2" data-name="text-5" class="cls-7"><g class="cls-7"><path class="cls-8" d="M420,99c13.5,0,24.1,6.59,24.1,24.32v32.91c0,17.73-10.6,24.32-24.1,24.32H400.3c-2.57,0-4.24-1.57-4.24-3.24V102.24c0-1.67,1.67-3.24,4.24-3.24Zm-14.61,8.48v64.59H420c9.15,0,14.73-5,14.73-15.84V123.32c0-10.82-5.58-15.84-14.73-15.84Z"/><path class="cls-8" d="M504.26,148.42V159.8c0,11.26-10.26,21.64-22.09,21.64s-22-10.26-22-21.64V148.42c0-11.38,9.93-21.42,22-21.42C494,127,504.26,136.71,504.26,148.42Zm-9.26,0c0-6.58-5.69-13-12.83-13s-12.71,6.47-12.71,13V159.8c0,6.8,5.69,13.27,12.71,13.27S495,166.6,495,159.8Z"/><path class="cls-8" d="M545.09,166.94c0-13.5-27.22-5.8-27.22-24.32,0-7.36,4.91-15.62,18.29-15.62,7.81,0,15.73,2.9,15.73,6,0,1.45-1.45,4.68-3.68,4.68-2,0-5.47-3.23-11.94-3.23-7.47,0-10.15,4.46-10.15,7.8,0,11.38,27.33,4,27.33,24.21,0,9.15-6.69,14.95-18.63,14.95-10.71,0-18.29-4.69-18.29-8.48,0-1.67,1.34-4.24,3.23-4.24,2.57,0,4.91,5.24,14.73,5.24C542.52,174,545.09,170.51,545.09,166.94Z"/><path class="cls-8" d="M609.45,147.53c0,8.92-4.91,9.26-9.93,9.26H575.09v3.34c0,8.26,6.58,13.5,15.84,13.5,8.37,0,10.71-4.35,13.5-4.35,2.23,0,3.79,2.57,3.79,4.24,0,2.9-6.8,7.92-17.62,7.92-14.5,0-24.77-8.7-24.77-21.64V148.09c0-11.38,9.93-21.09,22.2-21.09C599.41,127,609.45,135.59,609.45,147.53Zm-13.72,3c3.9,0,4.91-.67,4.91-3.57a12.69,12.69,0,0,0-12.72-12.6c-7,0-12.83,5.35-12.83,12.15v4Z"/></g></g></g><g id="Vue"><g id="text-7" class="cls-7"><g class="cls-7"><path class="cls-9" d="M203.3,102.13a1.46,1.46,0,0,1-.11-.67c0-1.56,1.67-2.46,3.12-2.46a2.38,2.38,0,0,1,2.46,1.68l21.53,70.5,21.41-70.5A2.14,2.14,0,0,1,253.94,99c1.57,0,3.24,1.12,3.24,2.46,0,.33-.11.44-.11.67l-23.65,77.08a3.43,3.43,0,0,1-6.25,0Z"/><path class="cls-9" d="M266.33,160.8V130.24a2.63,2.63,0,0,1,2.79-2.34,2.66,2.66,0,0,1,2.67,2.34V160.8c0,7.81,6.59,15.28,14.95,15.28s14.95-7.36,14.95-15.28V130.13c0-1.23,1.34-2.23,2.79-2.23a2.43,2.43,0,0,1,2.67,2.23V160.8a20.41,20.41,0,1,1-40.82,0Z"/><path class="cls-9" d="M364.49,147.42c0,8.36-4.69,8.59-9.48,8.59H329.13v4.68c0,9.59,7.58,15.51,18,15.51,9.15,0,10.93-4.47,13.27-4.47a3,3,0,0,1,2.57,2.68c0,2.34-6.14,6.81-16.06,6.81-13.61,0-23.21-8.26-23.21-20.64V147.3c0-10.93,9.26-20.07,20.53-20.07A20.13,20.13,0,0,1,364.49,147.42Zm-11.6,4c5,0,6.25-.67,6.25-4,0-7.59-6-15.29-14.95-15.29a14.93,14.93,0,0,0-15.06,14.73v4.57Z"/></g></g><g id="text-7-2" data-name="text-7" class="cls-7"><g class="cls-7"><path class="cls-9" d="M203.3,102.13a1.46,1.46,0,0,1-.11-.67c0-1.56,1.67-2.46,3.12-2.46a2.38,2.38,0,0,1,2.46,1.68l21.53,70.5,21.41-70.5A2.14,2.14,0,0,1,253.94,99c1.57,0,3.24,1.12,3.24,2.46,0,.33-.11.44-.11.67l-23.65,77.08a3.43,3.43,0,0,1-6.25,0Z"/><path class="cls-9" d="M266.33,160.8V130.24a2.63,2.63,0,0,1,2.79-2.34,2.66,2.66,0,0,1,2.67,2.34V160.8c0,7.81,6.59,15.28,14.95,15.28s14.95-7.36,14.95-15.28V130.13c0-1.23,1.34-2.23,2.79-2.23a2.43,2.43,0,0,1,2.67,2.23V160.8a20.41,20.41,0,1,1-40.82,0Z"/><path class="cls-9" d="M364.49,147.42c0,8.36-4.69,8.59-9.48,8.59H329.13v4.68c0,9.59,7.58,15.51,18,15.51,9.15,0,10.93-4.47,13.27-4.47a3,3,0,0,1,2.57,2.68c0,2.34-6.14,6.81-16.06,6.81-13.61,0-23.21-8.26-23.21-20.64V147.3c0-10.93,9.26-20.07,20.53-20.07A20.13,20.13,0,0,1,364.49,147.42Zm-11.6,4c5,0,6.25-.67,6.25-4,0-7.59-6-15.29-14.95-15.29a14.93,14.93,0,0,0-15.06,14.73v4.57Z"/></g></g></g></g></g></svg>