<?xml version="1.0" encoding="utf-8"?>
<!-- Generator: Adobe Illustrator 24.3.0, SVG Export Plug-In . SVG Version: 6.00 Build 0)  -->
<svg version="1.1" id="Layer_1" xmlns="http://www.w3.org/2000/svg" xmlns:xlink="http://www.w3.org/1999/xlink" x="0px" y="0px"
	 viewBox="0 0 623.6 623.6" style="enable-background:new 0 0 623.6 623.6;" xml:space="preserve">
<style type="text/css">
	.st0{fill:#FFFFFF;}
	.st1{fill-rule:evenodd;clip-rule:evenodd;fill:#FFFFFF;}
	.st2{fill-rule:evenodd;clip-rule:evenodd;fill:#365164;}
	.st3{fill-rule:evenodd;clip-rule:evenodd;fill:#00A37A;}
	.st4{fill-rule:evenodd;clip-rule:evenodd;fill:url(#path-3_1_);fill-opacity:0.45;}
	.st5{fill-rule:evenodd;clip-rule:evenodd;fill:url(#Clip-13-2_1_);fill-opacity:0.2;}
	.st6{fill:#00A37A;}
	.st7{fill:#365164;}
</style>
<g id="BG">
	<rect x="0" y="184.3" class="st0" width="623.6" height="255.1"/>
</g>
<g id="Logo">
	<g id="VueDose_logo_withletters">
		<g id="Logo-2">
			<path id="Fill-2" class="st1" d="M154.8,250.3c-0.5-0.1-1-0.1-1.6-0.1H28.8c-0.4,0-0.9,0-1.3,0.1l63.6,39.6L154.8,250.3z"/>
			<path id="Fill-4" class="st1" d="M14.2,280.4v78.3c0,8.2,6.6,14.8,14.8,14.8c0,0,0,0,0,0h124.4c8.2,0,14.8-6.6,14.8-14.7
				c0,0,0,0,0,0v-78.1l-76.8,47.9L14.2,280.4z"/>
			<path id="Fill-6" class="st1" d="M91.1,309.4l-76.6-48l0,0L91.1,309.4l76.4-47.8l0,0L91.1,309.4z"/>
			<path id="Fill-8" class="st2" d="M167.5,261.5c-1.5-6.1-6.6-10.6-12.8-11.2l-63.6,39.6l-63.6-39.7c-6.3,0.5-11.5,5-13,11.1
				l76.6,47.9L167.5,261.5z"/>
			<path id="Fill-10" class="st3" d="M14.6,261.4c-0.3,1.2-0.4,2.4-0.4,3.6v15.4l77.1,48.2l76.8-48.1V265c0-1.2-0.1-2.3-0.4-3.4
				l-76.4,47.8L14.6,261.4z"/>
			<g id="Clip-13">
				
					<linearGradient id="path-3_1_" gradientUnits="userSpaceOnUse" x1="29.8063" y1="186.079" x2="29.8063" y2="185.809" gradientTransform="matrix(-276.5 0 0 333.63 8371.2852 -61711.7188)">
					<stop  offset="0" style="stop-color:#FFFFFF"/>
					<stop  offset="1" style="stop-color:#365164"/>
				</linearGradient>
				<path id="path-3" class="st4" d="M168.4,280.4l-77.1,48.1l62.3,44.9c8.2,0,14.8-6.6,14.8-14.7c0,0,0,0,0,0V280.4z"/>
			</g>
			<path id="Fill-20" class="st2" d="M152.1,373.4h1.2c8.2,0,14.8-6.6,14.8-14.8c0,0,0,0,0,0v-78.3l-16,10L152.1,373.4z"/>
			
				<linearGradient id="Clip-13-2_1_" gradientUnits="userSpaceOnUse" x1="27.9168" y1="186.079" x2="27.9168" y2="185.809" gradientTransform="matrix(276.5 0 0 333.63 -7666.2827 -61711.7188)">
				<stop  offset="0" style="stop-color:#FFFFFF"/>
				<stop  offset="1" style="stop-color:#365164"/>
			</linearGradient>
			<path id="Clip-13-2" class="st5" d="M14.2,280.4l77.1,48.1l-62.3,44.9c-8.2,0-14.8-6.6-14.8-14.8l0,0V280.4z"/>
			<path id="Fill-18" class="st2" d="M14.2,280.4v78.3c0,8.2,6.6,14.8,14.8,14.8c0,0,0,0,0,0h1.2v-83L14.2,280.4z"/>
		</g>
		<g id="Dose">
			<g id="text-5">
				<g>
					<path class="st6" d="M420,283.3c13.5,0,24.1,6.6,24.1,24.3v32.9c0,17.7-10.6,24.3-24.1,24.3h-19.7c-2.6,0-4.2-1.6-4.2-3.2
						v-75.1c0-1.7,1.7-3.2,4.2-3.2H420z M405.4,291.7v64.6H420c9.1,0,14.7-5,14.7-15.8v-32.9c0-10.8-5.6-15.8-14.7-15.8H405.4z"/>
					<path class="st6" d="M504.3,332.7v11.4c0,11.3-10.3,21.6-22.1,21.6s-22-10.3-22-21.6v-11.4c0-11.4,9.9-21.4,22-21.4
						C494,311.3,504.3,321,504.3,332.7z M495,332.7c0-6.6-5.7-13-12.8-13s-12.7,6.5-12.7,13v11.4c0,6.8,5.7,13.3,12.7,13.3
						s12.8-6.5,12.8-13.3V332.7z"/>
					<path class="st6" d="M545.1,351.2c0-13.5-27.2-5.8-27.2-24.3c0-7.4,4.9-15.6,18.3-15.6c7.8,0,15.7,2.9,15.7,6
						c0,1.5-1.5,4.7-3.7,4.7c-2,0-5.5-3.2-11.9-3.2c-7.5,0-10.2,4.5-10.2,7.8c0,11.4,27.3,4,27.3,24.2c0,9.1-6.7,15-18.6,15
						c-10.7,0-18.3-4.7-18.3-8.5c0-1.7,1.3-4.2,3.2-4.2c2.6,0,4.9,5.2,14.7,5.2C542.5,358.3,545.1,354.8,545.1,351.2z"/>
					<path class="st6" d="M609.5,331.8c0,8.9-4.9,9.3-9.9,9.3h-24.4v3.3c0,8.3,6.6,13.5,15.8,13.5c8.4,0,10.7-4.4,13.5-4.4
						c2.2,0,3.8,2.6,3.8,4.2c0,2.9-6.8,7.9-17.6,7.9c-14.5,0-24.8-8.7-24.8-21.6v-11.7c0-11.4,9.9-21.1,22.2-21.1
						C599.4,311.3,609.5,319.8,609.5,331.8z M595.7,334.8c3.9,0,4.9-0.7,4.9-3.6c0-7-5.7-12.6-12.7-12.6c-7,0-12.8,5.4-12.8,12.1v4
						L595.7,334.8z"/>
				</g>
			</g>
			<g id="text-5-2">
				<g>
					<path class="st6" d="M420,283.3c13.5,0,24.1,6.6,24.1,24.3v32.9c0,17.7-10.6,24.3-24.1,24.3h-19.7c-2.6,0-4.2-1.6-4.2-3.2
						v-75.1c0-1.7,1.7-3.2,4.2-3.2H420z M405.4,291.7v64.6H420c9.1,0,14.7-5,14.7-15.8v-32.9c0-10.8-5.6-15.8-14.7-15.8H405.4z"/>
					<path class="st6" d="M504.3,332.7v11.4c0,11.3-10.3,21.6-22.1,21.6s-22-10.3-22-21.6v-11.4c0-11.4,9.9-21.4,22-21.4
						C494,311.3,504.3,321,504.3,332.7z M495,332.7c0-6.6-5.7-13-12.8-13s-12.7,6.5-12.7,13v11.4c0,6.8,5.7,13.3,12.7,13.3
						s12.8-6.5,12.8-13.3V332.7z"/>
					<path class="st6" d="M545.1,351.2c0-13.5-27.2-5.8-27.2-24.3c0-7.4,4.9-15.6,18.3-15.6c7.8,0,15.7,2.9,15.7,6
						c0,1.5-1.5,4.7-3.7,4.7c-2,0-5.5-3.2-11.9-3.2c-7.5,0-10.2,4.5-10.2,7.8c0,11.4,27.3,4,27.3,24.2c0,9.1-6.7,15-18.6,15
						c-10.7,0-18.3-4.7-18.3-8.5c0-1.7,1.3-4.2,3.2-4.2c2.6,0,4.9,5.2,14.7,5.2C542.5,358.3,545.1,354.8,545.1,351.2z"/>
					<path class="st6" d="M609.5,331.8c0,8.9-4.9,9.3-9.9,9.3h-24.4v3.3c0,8.3,6.6,13.5,15.8,13.5c8.4,0,10.7-4.4,13.5-4.4
						c2.2,0,3.8,2.6,3.8,4.2c0,2.9-6.8,7.9-17.6,7.9c-14.5,0-24.8-8.7-24.8-21.6v-11.7c0-11.4,9.9-21.1,22.2-21.1
						C599.4,311.3,609.5,319.8,609.5,331.8z M595.7,334.8c3.9,0,4.9-0.7,4.9-3.6c0-7-5.7-12.6-12.7-12.6c-7,0-12.8,5.4-12.8,12.1v4
						L595.7,334.8z"/>
				</g>
			</g>
		</g>
		<g id="Vue">
			<g id="text-7">
				<g>
					<path class="st7" d="M203.3,286.4c-0.1-0.2-0.1-0.4-0.1-0.7c0-1.6,1.7-2.5,3.1-2.5c1.1-0.1,2.1,0.6,2.5,1.7l21.5,70.5
						l21.4-70.5c0.2-1,1.2-1.7,2.2-1.7c1.6,0,3.2,1.1,3.2,2.5c0,0.3-0.1,0.4-0.1,0.7l-23.7,77.1c-0.8,1.7-2.8,2.5-4.5,1.7
						c-0.8-0.3-1.4-1-1.7-1.7L203.3,286.4z"/>
					<path class="st7" d="M266.3,345.1v-30.6c0.2-1.4,1.4-2.4,2.8-2.3c1.4,0,2.5,1,2.7,2.3v30.6c0,7.8,6.6,15.3,15,15.3
						s15-7.4,15-15.3v-30.7c0-1.2,1.3-2.2,2.8-2.2c1.3-0.1,2.5,0.8,2.7,2.2c0,0,0,0,0,0.1v30.7c0,11.3-9.1,20.4-20.4,20.4
						S266.3,356.3,266.3,345.1L266.3,345.1z"/>
					<path class="st7" d="M364.5,331.7c0,8.4-4.7,8.6-9.5,8.6h-25.9v4.7c0,9.6,7.6,15.5,18,15.5c9.1,0,10.9-4.5,13.3-4.5
						c1.4,0.2,2.4,1.3,2.6,2.7c0,2.3-6.1,6.8-16.1,6.8c-13.6,0-23.2-8.3-23.2-20.6v-13.3c0-10.9,9.3-20.1,20.5-20.1
						c11.1-0.1,20.2,8.9,20.3,20C364.5,331.5,364.5,331.6,364.5,331.7z M352.9,335.7c5,0,6.2-0.7,6.2-4c0-7.6-6-15.3-15-15.3
						c-8.2-0.1-15,6.5-15.1,14.7v4.6L352.9,335.7z"/>
				</g>
			</g>
			<g id="text-7-2">
				<g>
					<path class="st7" d="M203.3,286.4c-0.1-0.2-0.1-0.4-0.1-0.7c0-1.6,1.7-2.5,3.1-2.5c1.1-0.1,2.1,0.6,2.5,1.7l21.5,70.5
						l21.4-70.5c0.2-1,1.2-1.7,2.2-1.7c1.6,0,3.2,1.1,3.2,2.5c0,0.3-0.1,0.4-0.1,0.7l-23.7,77.1c-0.8,1.7-2.8,2.5-4.5,1.7
						c-0.8-0.3-1.4-1-1.7-1.7L203.3,286.4z"/>
					<path class="st7" d="M266.3,345.1v-30.6c0.2-1.4,1.4-2.4,2.8-2.3c1.4,0,2.5,1,2.7,2.3v30.6c0,7.8,6.6,15.3,15,15.3
						s15-7.4,15-15.3v-30.7c0-1.2,1.3-2.2,2.8-2.2c1.3-0.1,2.5,0.8,2.7,2.2c0,0,0,0,0,0.1v30.7c0,11.3-9.1,20.4-20.4,20.4
						S266.3,356.3,266.3,345.1L266.3,345.1z"/>
					<path class="st7" d="M364.5,331.7c0,8.4-4.7,8.6-9.5,8.6h-25.9v4.7c0,9.6,7.6,15.5,18,15.5c9.1,0,10.9-4.5,13.3-4.5
						c1.4,0.2,2.4,1.3,2.6,2.7c0,2.3-6.1,6.8-16.1,6.8c-13.6,0-23.2-8.3-23.2-20.6v-13.3c0-10.9,9.3-20.1,20.5-20.1
						c11.1-0.1,20.2,8.9,20.3,20C364.5,331.5,364.5,331.6,364.5,331.7z M352.9,335.7c5,0,6.2-0.7,6.2-4c0-7.6-6-15.3-15-15.3
						c-8.2-0.1-15,6.5-15.1,14.7v4.6L352.9,335.7z"/>
				</g>
			</g>
		</g>
	</g>
</g>
</svg>
