<?xml version="1.0" encoding="utf-8"?>
<!-- Generator: Adobe Illustrator 24.3.0, SVG Export Plug-In . SVG Version: 6.00 Build 0)  -->
<svg version="1.1" id="Layer_1" xmlns="http://www.w3.org/2000/svg" xmlns:xlink="http://www.w3.org/1999/xlink" x="0px" y="0px"
	 viewBox="0 0 623.6 623.6" style="enable-background:new 0 0 623.6 623.6;" xml:space="preserve">
<style type="text/css">
	.st0{fill:#411E56;}
	.st1{fill-rule:evenodd;clip-rule:evenodd;fill:#FFFFFF;}
	.st2{fill-rule:evenodd;clip-rule:evenodd;fill:#411E56;}
	.st3{fill-rule:evenodd;clip-rule:evenodd;fill:#F3F6F9;}
	.st4{opacity:0.7;fill-rule:evenodd;clip-rule:evenodd;fill:#FFFFFF;enable-background:new    ;}
	.st5{fill:#562873;}
	.st6{fill-rule:evenodd;clip-rule:evenodd;fill:#41B883;}
	.st7{fill:#35495E;}
	.st8{fill-rule:evenodd;clip-rule:evenodd;fill:#562873;}
	.st9{fill-rule:evenodd;clip-rule:evenodd;fill:#DED9E0;}
	.st10{fill:#40B883;}
	.st11{fill:none;stroke:#FFFFFF;stroke-linecap:square;}
	.st12{opacity:0.4;fill:none;stroke:#FFFFFF;stroke-linecap:square;enable-background:new    ;}
</style>
<g id="BG">
	<rect x="0" class="st0" width="623.6" height="623.6"/>
</g>
<g id="Logo">
	<g id="Page-1">
		<g id="Artboard">
			
				<image style="overflow:visible;enable-background:new    ;" width="401" height="347" id="Vue" xlink:href="8750011C.png"  transform="matrix(0.5965 0 0 0.5965 86.8244 215.571)">
			</image>
			<path id="Combined-Shape" class="st1" d="M155.8,279.1h-4.4c-2,0-3.6,2.1-3.6,4.6v66h-9.5c-2,0-3.6,2-3.6,4.6v11.9h-33.6
				c-2,0-3.7,2-3.7,4.6v2.8c0,2.5,1.6,4.6,3.7,4.6h79.6c2,0,3.6-2.1,3.6-4.6V291c0-2.5-1.6-4.6-3.6-4.6h-8.8v-19.2
				c0-2.5-1.6-4.6-3.6-4.6h-8.8c-2,0-3.6,2-3.6,4.6L155.8,279.1z"/>
			<path id="Rectangle-8" class="st2" d="M317.3,363.4h44c0.5,0,0.9,0.4,0.9,0.9l0,0l0,0c0,0.5-0.4,0.9-0.9,0.9h-44
				c-0.5,0-0.9-0.4-0.9-0.9l0,0C316.4,363.8,316.8,363.4,317.3,363.4L317.3,363.4z"/>
			<path class="st3" d="M462.1,277.3h5.5c2.5,0,4.6,2.1,4.6,4.6v66h11.9c2.5,0,4.6,2.1,4.6,4.6v11.8h42.1c2.5,0,4.6,2.1,4.6,4.6v0
				v2.8c0,2.5-2.1,4.6-4.6,4.6l0,0h-99.9c-2.5,0-4.6-2.1-4.6-4.6v-82.4c0-2.5,2.1-4.6,4.6-4.6h11v-19.2c0-2.5,2.1-4.6,4.6-4.6h11
				c2.5,0,4.6,2.1,4.6,4.6L462.1,277.3z"/>
			<path class="st4" d="M386.2,255.2l7.2,51.3l1.9-9.6l3.1,14.8c0,0.1,0,0.2,0,0.4h0.4v49.5h2.3l1.8-2.8l1.8,2.8h0.3l3.1-4.6
				l3.1,4.6h10.7v-9.2c-0.1-0.5,0.3-1,0.8-1c0.5-0.1,1,0.3,1,0.8c0,0.1,0,0.1,0,0.2v3.7h11.9v-3.7c-0.1-0.5,0.3-1,0.8-1
				c0.5-0.1,1,0.3,1,0.8c0,0.1,0,0.1,0,0.2v23.8H335.6v-24.6c-0.1-0.5,0.3-1,0.8-1s1,0.3,1,0.8c0,0.1,0,0.1,0,0.2v4.4h11.9v-4.6
				c0-0.5,0.4-0.9,0.9-0.9c0.5,0,0.9,0.4,0.9,0.9c0,0,0,0,0,0v10.1h0.5l1.8-2.8l1.8,2.8h1l1.8-2.8l1.8,2.8h1.1l3.1-4.6l3.1,4.6h0.2
				l1.8-2.8l1.8,2.8h1.4v-49.5h0.4c0-0.1,0-0.2,0-0.4l3.3-16l2.4,10.8l6.4-51.4c-0.1-0.7-0.2-1.3-0.2-2c0-1.7,0.4-3,0.8-3.2v-0.2
				v0.2l0,0c0.5,0,0.9,1.4,0.9,3.2C386.3,253.8,386.3,254.5,386.2,255.2z"/>
			<circle id="Oval-2" class="st5" cx="385.6" cy="317.1" r="6"/>
			<path class="st1" d="M227.5,376.2h-14.7v-5.5h-2.8v-1.8h20.2v1.8h-2.8v3.7h14.7V197.5h4.6c2.5,0,4.6,2.1,4.6,4.6c0,0,0,0,0,0
				v12.8h19.2c2.5,0,4.6,2.1,4.6,4.6v107.2c0,2.5-2.1,4.6-4.6,4.6h-7.3v29.3h5.5V357h11.1c2.5-2.5,6.5-2.5,9,0H299v6.4h-5.5v12.8
				H227.5L227.5,376.2z"/>
			<path class="st6" d="M315.5,376.2h-22c-4,0-7.3-3.3-7.3-7.3v-25.6c0-4,3.3-7.3,7.3-7.3h8.2c4,0,7.3,3.3,7.3,7.3v2.8h6.4
				c4,0,7.3,3.2,7.4,7.2v1.8h3.2c3.3,0.1,6,2.8,5.9,6.1c0,1.1-0.3,2.2-0.9,3.1h28c3.3-0.4,6.3,1.9,6.7,5.2c0.4,3.3-1.9,6.3-5.2,6.7
				c-0.5,0.1-1,0.1-1.5,0L315.5,376.2z"/>
			<rect x="271.5" y="360.6" class="st7" width="2.8" height="5.5"/>
			<rect x="277" y="360.6" class="st7" width="2.8" height="5.5"/>
			<path class="st8" d="M293.5,344.1H310c0.5,0,0.9,0.4,0.9,0.9l0,0c0,0.5-0.4,0.9-0.9,0.9l0,0h-16.5c-0.5,0-0.9-0.4-0.9-0.9l0,0
				C292.6,344.5,293,344.1,293.5,344.1L293.5,344.1z"/>
			<path class="st8" d="M308.2,353.3h16.5c0.5,0,0.9,0.4,0.9,0.9l0,0c0,0.5-0.4,0.9-0.9,0.9l0,0h-16.5c-0.5,0-0.9-0.4-0.9-0.9l0,0
				C307.2,353.7,307.6,353.3,308.2,353.3L308.2,353.3z"/>
			<path class="st8" d="M307.2,362.4h25.6c0.5,0,0.9,0.4,0.9,0.9v0l0,0c0,0.5-0.4,0.9-0.9,0.9l0,0h-25.6c-0.5,0-0.9-0.4-0.9-0.9l0,0
				l0,0C306.3,362.9,306.7,362.4,307.2,362.4L307.2,362.4z"/>
			<path class="st8" d="M537.2,375.3h-39.4c-1.5,0-2.8-1.2-2.8-2.8l0,0l0,0c0-1.5,1.2-2.8,2.8-2.8l0,0h39.4V375.3z"/>
			<path class="st8" d="M253.2,222.3L253.2,222.3c0.5,0,0.9,0.4,0.9,0.9V313c0,0.5-0.4,0.9-0.9,0.9l0,0c-0.5,0-0.9-0.4-0.9-0.9
				v-89.8C252.2,222.7,252.6,222.3,253.2,222.3C253.2,222.3,253.2,222.3,253.2,222.3z"/>
			<path class="st8" d="M378.2,324.9L378.2,324.9c0.3,0,0.5,0.2,0.5,0.5v44.9c0,0.3-0.2,0.5-0.5,0.5l0,0c-0.3,0-0.5-0.2-0.5-0.5
				v-44.9C377.8,325.1,378,324.9,378.2,324.9z"/>
			<path class="st8" d="M392,324.9L392,324.9c0.3,0,0.5,0.2,0.5,0.5v44.9c0,0.3-0.2,0.5-0.5,0.5l0,0c-0.3,0-0.5-0.2-0.5-0.5v-44.9
				C391.5,325.1,391.7,324.9,392,324.9z"/>
			<rect x="244" y="199.4" class="st7" width="1.8" height="170.4"/>
			<path class="st8" d="M257.8,236.9L257.8,236.9c0.5,0,0.9,0.4,0.9,0.9v89.8c0,0.5-0.4,0.9-0.9,0.9l0,0l0,0c-0.5,0-0.9-0.4-0.9-0.9
				v-89.8C256.8,237.3,257.2,236.9,257.8,236.9L257.8,236.9z"/>
			<path class="st8" d="M262.3,219.5L262.3,219.5c0.5,0,0.9,0.4,0.9,0.9v89.8c0,0.5-0.4,0.9-0.9,0.9l0,0c-0.5,0-0.9-0.4-0.9-0.9
				c0,0,0,0,0,0v-89.8C261.4,219.9,261.8,219.5,262.3,219.5L262.3,219.5z"/>
			<path class="st8" d="M266.9,228.7L266.9,228.7c0.5,0,0.9,0.4,0.9,0.9v89.8c0,0.5-0.4,0.9-0.9,0.9l0,0c-0.5,0-0.9-0.4-0.9-0.9v0
				v-89.8C266,229.1,266.4,228.7,266.9,228.7L266.9,228.7z"/>
			<path class="st8" d="M448.8,269.9L448.8,269.9c-0.7,0-1.4,0.6-1.4,1.3v125.6c0,0.8,0.6,1.4,1.4,1.4c0,0,0,0,0,0l0,0
				c0.8,0,1.4-0.6,1.4-1.4c0,0,0,0,0,0V271.3C450.1,270.5,449.5,269.9,448.8,269.9z"/>
			<path class="st8" d="M455.2,292.8L455.2,292.8c0.3,0,0.5,0.2,0.5,0.5v70.5c0,0.3-0.2,0.5-0.5,0.5l0,0c-0.3,0-0.5-0.2-0.5-0.5
				v-70.6C454.8,293,454.9,292.8,455.2,292.8z"/>
			<path class="st8" d="M458.9,289.2L458.9,289.2c0.3,0,0.5,0.2,0.5,0.5v70.5c0,0.3-0.2,0.5-0.5,0.5l0,0c-0.3,0-0.5-0.2-0.5-0.5
				v-70.5C458.4,289.4,458.6,289.2,458.9,289.2z"/>
			<path class="st8" d="M462.5,286.4L462.5,286.4c0.3,0,0.5,0.2,0.5,0.5v70.5c0,0.2-0.2,0.5-0.4,0.5c0,0,0,0,0,0l0,0
				c-0.3,0-0.5-0.2-0.5-0.5v-70.5C462.1,286.6,462.3,286.4,462.5,286.4z"/>
			<rect x="271.5" y="360.6" class="st7" width="2.8" height="5.5"/>
			<rect x="282.5" y="360.6" class="st7" width="2.8" height="5.5"/>
			<rect x="277" y="367" class="st7" width="2.8" height="5.5"/>
			<rect x="271.5" y="367" class="st7" width="2.8" height="5.5"/>
			<rect x="383.3" y="367" class="st5" width="4.6" height="9.2"/>
			<rect x="125.8" y="368.9" class="st5" width="4.6" height="9.2"/>
			<g id="tram">
				<path id="Rectangle-12" class="st9" d="M220.8,366.1h12.3c2,0,3.8,1.3,4.4,3.2l1.7,5.5c0.8,2.4-0.6,5-3,5.7c0,0,0,0,0,0
					c-0.4,0.1-0.9,0.2-1.4,0.2h-64.1c-2.5,0-4.6-2.1-4.6-4.6l0,0v-5.5c0-2.5,2.1-4.6,4.6-4.6l0,0h14v-3.4c0-0.1,0.1-0.2,0.2-0.2
					c0.1,0,0.2,0.1,0.2,0.2v3.4h35.2v-4.4c0-0.1,0.1-0.2,0.2-0.3c0.1,0,0.2,0.1,0.3,0.2c0,0,0,0.1,0,0.1L220.8,366.1z"/>
				<circle class="st10" cx="237.6" cy="377.1" r="0.9"/>
				<rect x="166.1" y="376.2" class="st0" width="67.8" height="1.8"/>
				<polygon class="st2" points="169.8,367.9 180.8,367.9 180.8,375.3 168.9,375.3 				"/>
				<rect x="190" y="367.9" class="st0" width="12.8" height="7.3"/>
				<polygon class="st2" points="212,367.9 227.5,367.9 229.4,375.3 212,375.3 				"/>
				<rect x="181.7" y="367.9" class="st0" width="7.3" height="12.8"/>
				<rect x="203.7" y="367.9" class="st0" width="7.3" height="12.8"/>
				<path class="st2" d="M228.4,367.9h4.3c2.3-0.3,3.8,0.8,4.6,3.2c0.8,2.4-0.2,3.8-2.8,4.1h-4.3L228.4,367.9z"/>
			</g>
			<rect x="282.5" y="367" class="st7" width="2.8" height="5.5"/>
			<rect x="163.4" y="293.7" class="st7" width="2.8" height="5.5"/>
			<rect x="168.9" y="293.7" class="st7" width="2.8" height="5.5"/>
			<rect x="163.4" y="293.7" class="st7" width="2.8" height="5.5"/>
			<rect x="174.4" y="293.7" class="st7" width="2.8" height="5.5"/>
			<rect x="168.9" y="300.1" class="st7" width="2.8" height="5.5"/>
			<rect x="163.4" y="300.1" class="st7" width="2.8" height="5.5"/>
			<rect x="174.4" y="300.1" class="st7" width="2.8" height="5.5"/>
			<rect x="163.4" y="312.1" class="st7" width="2.8" height="5.5"/>
			<rect x="168.9" y="312.1" class="st7" width="2.8" height="5.5"/>
			<rect x="163.4" y="312.1" class="st7" width="2.8" height="5.5"/>
			<rect x="174.4" y="312.1" class="st7" width="2.8" height="5.5"/>
			<rect x="168.9" y="318.5" class="st7" width="2.8" height="5.5"/>
			<rect x="163.4" y="318.5" class="st7" width="2.8" height="5.5"/>
			<rect x="174.4" y="318.5" class="st7" width="2.8" height="5.5"/>
			<rect x="163.4" y="330.4" class="st7" width="2.8" height="5.5"/>
			<rect x="168.9" y="330.4" class="st7" width="2.8" height="5.5"/>
			<rect x="163.4" y="330.4" class="st7" width="2.8" height="5.5"/>
			<rect x="174.4" y="330.4" class="st7" width="2.8" height="5.5"/>
			<rect x="168.9" y="336.8" class="st7" width="2.8" height="5.5"/>
			<rect x="163.4" y="336.8" class="st7" width="2.8" height="5.5"/>
			<rect x="174.4" y="336.8" class="st7" width="2.8" height="5.5"/>
			<rect x="163.4" y="348.7" class="st7" width="2.8" height="5.5"/>
			<rect x="168.9" y="348.7" class="st7" width="2.8" height="5.5"/>
			<rect x="163.4" y="348.7" class="st7" width="2.8" height="5.5"/>
			<rect x="174.4" y="348.7" class="st7" width="2.8" height="5.5"/>
			<rect x="168.9" y="355.1" class="st7" width="2.8" height="5.5"/>
			<rect x="163.4" y="355.1" class="st7" width="2.8" height="5.5"/>
			<rect x="174.4" y="355.1" class="st7" width="2.8" height="5.5"/>
			<path id="Line" class="st11" d="M385.6,313.4v3.7"/>
			<path class="st11" d="M389.6,316.6l-3.5,1"/>
			<g id="VueJS-Manchester">
				<g>
					<path class="st10" d="M262,394.4v0.6c-0.8,0.2-1.5,0.6-2.1,1.2c-0.8,1.1-1.5,2.4-2,3.7l-7.3,16.2h-0.5l-7.3-16.9
						c-0.5-1.2-1.1-2.4-1.8-3.6c-0.5-0.4-1.1-0.7-1.7-0.7v-0.6h10.2v0.6h-0.3c-0.6-0.1-1.3,0.1-1.9,0.4c-0.2,0.1-0.4,0.4-0.4,0.7
						c0,0.2,0,0.5,0.1,0.7c0.1,0.3,0.4,0.9,0.9,2.1l4.5,10.6l4.2-9.4c0.3-0.7,0.7-1.5,0.9-2.3c0.1-0.3,0.2-0.7,0.2-1
						c0-0.3-0.1-0.6-0.2-0.8c-0.2-0.3-0.4-0.4-0.7-0.5c-0.6-0.2-1.2-0.3-1.8-0.3v-0.6L262,394.4z"/>
					<path class="st10" d="M275.1,400.9v11.5c-0.1,0.7,0,1.4,0.3,2.1c0.3,0.3,0.8,0.5,1.3,0.5v0.6h-6v-2c-0.6,0.7-1.3,1.3-2.1,1.8
						c-0.7,0.4-1.5,0.6-2.4,0.6c-0.8,0-1.6-0.3-2.2-0.8c-0.6-0.4-1-1.1-1.3-1.8c-0.3-1.2-0.4-2.4-0.3-3.6v-5.8
						c0.1-0.7,0-1.4-0.3-2.1c-0.3-0.3-0.8-0.5-1.3-0.5v-0.6h6v10c0,0.7,0,1.3,0.1,2c0.1,0.3,0.2,0.5,0.5,0.7
						c0.2,0.2,0.5,0.2,0.8,0.2c0.4,0,0.7-0.1,1-0.3c0.6-0.5,1.1-1,1.5-1.6V404c0.1-0.7,0-1.4-0.3-2.1c-0.3-0.3-0.8-0.5-1.3-0.5v-0.6
						L275.1,400.9z"/>
					<path class="st10" d="M291.7,407.7h-8c0,1.7,0.5,3.3,1.5,4.6c0.6,0.8,1.6,1.3,2.6,1.3c0.6,0,1.2-0.2,1.7-0.5
						c0.7-0.5,1.2-1.2,1.6-1.9l0.5,0.3c-0.6,1.3-1.5,2.5-2.6,3.4c-1,0.7-2.1,1-3.3,1c-2,0.1-3.8-0.8-4.9-2.5c-0.9-1.5-1.4-3.2-1.3-5
						c-0.1-2.1,0.6-4.2,2-5.8c1.2-1.4,2.9-2.2,4.6-2.2c1.5,0,2.9,0.7,3.9,1.8C291.2,403.9,291.8,405.8,291.7,407.7z M287.8,406.7
						c0.1-1.2,0-2.3-0.3-3.5c-0.1-0.5-0.4-1-0.9-1.4c-0.2-0.2-0.6-0.3-0.9-0.3c-0.6,0-1.1,0.3-1.3,0.8c-0.7,1.2-1,2.5-0.9,3.8v0.6
						L287.8,406.7z"/>
					<path class="st10" d="M297.5,394.9v-0.6h11.3v0.6h-0.7c-0.5,0-1,0.1-1.5,0.3c-0.3,0.2-0.5,0.4-0.6,0.8c-0.2,0.7-0.2,1.3-0.2,2
						v10.4c0.1,1.5-0.1,3-0.6,4.4c-0.5,1-1.2,1.8-2.2,2.3c-1.1,0.6-2.4,1-3.8,0.9c-1.6,0.1-3.1-0.4-4.3-1.4c-1-0.7-1.6-1.9-1.6-3.1
						c0-0.7,0.2-1.3,0.7-1.8c0.4-0.4,1-0.7,1.6-0.7c0.6,0,1.2,0.2,1.6,0.6c0.4,0.4,0.7,0.9,0.6,1.5c0,0.3,0,0.5-0.1,0.8
						c-0.1,0.3-0.3,0.5-0.5,0.8c-0.2,0.3-0.4,0.6-0.4,0.9c0,0.3,0.2,0.5,0.4,0.7c0.5,0.3,1,0.5,1.5,0.4c0.4,0,0.8-0.1,1.1-0.3
						c0.3-0.3,0.5-0.7,0.6-1.1c0.2-1.3,0.2-2.7,0.2-4V398c0-0.7,0-1.3-0.2-2c-0.2-0.3-0.4-0.6-0.7-0.7c-0.4-0.2-0.9-0.3-1.4-0.3
						L297.5,394.9z"/>
					<path class="st10" d="M324.6,393.9l0.2,7.1h-0.6c-0.2-1.6-1-3.2-2.2-4.3c-1-1-2.4-1.6-3.8-1.6c-0.9,0-1.8,0.3-2.5,0.9
						c-0.6,0.5-0.9,1.2-0.9,2c0,0.4,0.1,0.9,0.3,1.2c0.4,0.6,0.9,1.1,1.5,1.5c1.1,0.7,2.2,1.3,3.4,1.8c1.9,0.8,3.6,2,5,3.5
						c0.8,1.1,1.3,2.4,1.3,3.7c0,1.8-0.7,3.4-2.1,4.6c-1.4,1.3-3.3,2-5.3,1.9c-0.6,0-1.3-0.1-1.9-0.2c-0.8-0.2-1.5-0.4-2.2-0.8
						c-0.4-0.2-0.8-0.3-1.2-0.3c-0.3,0-0.6,0.1-0.9,0.3c-0.3,0.3-0.6,0.6-0.7,1h-0.6v-8h0.6c0.3,2,1.2,3.8,2.6,5.2
						c1.1,1.1,2.7,1.8,4.2,1.8c1,0,2-0.3,2.8-1c0.6-0.6,1-1.4,1-2.2c0-0.5-0.1-1-0.4-1.5c-0.3-0.5-0.7-1-1.2-1.3
						c-0.9-0.6-1.9-1.2-2.9-1.7c-1.5-0.7-2.9-1.5-4.2-2.4c-0.8-0.6-1.5-1.4-2-2.2c-0.5-0.8-0.7-1.8-0.7-2.7c0-1.7,0.7-3.3,1.9-4.4
						c1.3-1.2,3-1.8,4.7-1.8c0.7,0,1.3,0.1,2,0.2c0.6,0.2,1.2,0.4,1.8,0.7c0.5,0.3,1,0.4,1.5,0.5c0.2,0,0.5-0.1,0.6-0.2
						c0.2-0.4,0.4-0.8,0.4-1.2H324.6z"/>
					<path class="st10" d="M351.7,408.4l5.8-14h8.6v0.6h-0.7c-0.5,0-1,0.1-1.5,0.3c-0.3,0.2-0.5,0.4-0.6,0.7
						c-0.2,0.6-0.2,1.3-0.2,1.9v14c0,0.7,0,1.3,0.2,2c0.1,0.3,0.4,0.6,0.7,0.7c0.4,0.2,0.9,0.3,1.4,0.3h0.7v0.6H355V415h0.7
						c0.5,0,1-0.1,1.5-0.3c0.3-0.2,0.5-0.4,0.6-0.8c0.2-0.7,0.2-1.3,0.2-2v-15.6l-8.1,19.4h-0.4l-8.3-19.2v14.9c0,0.6,0,1.3,0.1,1.9
						c0.1,0.5,0.4,1,0.9,1.3c0.6,0.4,1.4,0.5,2.1,0.5v0.6H337V415h0.2c0.4,0,0.9-0.1,1.3-0.2c0.4-0.1,0.7-0.4,0.9-0.6
						c0.2-0.3,0.4-0.7,0.5-1.1c0-0.1,0-0.6,0-1.6V398c0-0.7,0-1.3-0.2-2c-0.2-0.3-0.4-0.5-0.7-0.7c-0.4-0.2-0.9-0.3-1.4-0.3H337
						v-0.6h8.7L351.7,408.4z"/>
					<path class="st10" d="M376.3,413.4c-1.8,1.6-3.4,2.4-4.8,2.4c-0.8,0-1.5-0.3-2.1-0.8c-0.6-0.5-0.9-1.3-0.8-2.1
						c0-1.2,0.5-2.3,1.4-3c1.9-1.5,4-2.7,6.3-3.6v-1.5c0-0.7,0-1.4-0.2-2.1c-0.1-0.3-0.4-0.6-0.7-0.8c-0.3-0.2-0.7-0.3-1.1-0.3
						c-0.6,0-1.2,0.1-1.7,0.5c-0.2,0.1-0.4,0.4-0.4,0.7c0,0.3,0.2,0.6,0.4,0.8c0.4,0.3,0.6,0.8,0.6,1.3c0,0.5-0.2,1-0.6,1.3
						c-0.4,0.4-0.9,0.6-1.5,0.5c-0.6,0-1.2-0.2-1.6-0.6c-0.4-0.3-0.7-0.9-0.7-1.4c0-0.8,0.3-1.6,0.9-2.1c0.7-0.7,1.5-1.3,2.5-1.6
						c1.1-0.4,2.2-0.5,3.3-0.5c1.2-0.1,2.3,0.2,3.3,0.9c0.7,0.5,1.3,1.1,1.6,1.9c0.2,1,0.3,2,0.2,3v5.7c0,0.4,0,0.8,0.1,1.3
						c0,0.2,0.1,0.3,0.2,0.4c0.1,0.1,0.2,0.1,0.4,0.1c0.3,0,0.5-0.2,0.8-0.6l0.5,0.4c-0.4,0.7-1,1.2-1.7,1.7
						c-0.6,0.4-1.2,0.5-1.9,0.5c-0.7,0-1.4-0.2-2-0.6C376.7,414.7,376.4,414.1,376.3,413.4z M376.3,412.3v-4.9
						c-1.1,0.6-2.1,1.4-2.8,2.4c-0.4,0.5-0.6,1.1-0.6,1.7c0,0.5,0.2,0.9,0.5,1.3c0.3,0.3,0.7,0.5,1.1,0.4
						C375.2,413.1,375.8,412.8,376.3,412.3L376.3,412.3z"/>
					<path class="st10" d="M390.8,400.9v1.9c0.6-0.7,1.4-1.3,2.2-1.8c0.7-0.4,1.4-0.6,2.2-0.5c0.9,0,1.7,0.2,2.4,0.8
						c0.6,0.5,1.1,1.2,1.3,2c0.2,1.1,0.3,2.3,0.2,3.4v5.7c-0.1,0.7,0,1.4,0.3,2.1c0.3,0.3,0.8,0.5,1.3,0.5v0.6h-7.4v-0.6
						c0.5,0,0.9-0.3,1.2-0.7c0.2-0.6,0.3-1.3,0.2-1.9v-6.5c0-0.8,0-1.5-0.1-2.3c-0.1-0.3-0.2-0.5-0.5-0.7c-0.2-0.2-0.5-0.3-0.7-0.3
						c-0.9,0-1.7,0.6-2.5,1.9v7.8c-0.1,0.7,0,1.4,0.3,2.1c0.3,0.3,0.7,0.5,1.1,0.6v0.6h-7.4v-0.6c0.5,0,1-0.2,1.3-0.6
						c0.2-0.6,0.3-1.3,0.3-2v-8.3c0.1-0.7,0-1.4-0.3-2.1c-0.3-0.3-0.8-0.5-1.3-0.5V401L390.8,400.9z"/>
					<path class="st10" d="M415.1,411.8l0.5,0.4c-0.6,1.2-1.5,2.2-2.6,2.9c-1,0.6-2.1,1-3.3,1c-1.8,0.1-3.6-0.8-4.7-2.2
						c-1.2-1.5-1.8-3.4-1.8-5.3c0-1.9,0.5-3.7,1.6-5.3c1.2-1.8,3.2-2.8,5.3-2.7c1.3-0.1,2.6,0.3,3.6,1.1c0.8,0.6,1.3,1.5,1.3,2.5
						c0.1,1-0.7,1.9-1.7,2c-0.1,0-0.2,0-0.3,0c-0.6,0-1.1-0.2-1.5-0.6c-0.5-0.6-0.7-1.4-0.7-2.2c0-0.5-0.2-1-0.5-1.4
						c-0.2-0.2-0.5-0.4-0.8-0.4c-0.5,0-1,0.3-1.3,0.8c-0.6,1.1-0.9,2.4-0.8,3.7c0,1.4,0.2,2.7,0.7,4c0.3,1.1,0.9,2.1,1.8,2.8
						c0.6,0.4,1.3,0.7,2,0.7c0.5,0,1-0.1,1.5-0.4C414.1,412.9,414.6,412.4,415.1,411.8z"/>
					<path class="st10" d="M423.9,394.4v8.5c0.6-0.7,1.4-1.3,2.2-1.8c0.6-0.3,1.4-0.5,2.1-0.5c1.7,0,3.1,1,3.6,2.6
						c0.3,1.2,0.4,2.4,0.3,3.6v5.7c-0.1,0.7,0,1.4,0.3,2.1c0.3,0.3,0.8,0.5,1.3,0.5v0.6h-7.4V415c0.5,0,0.9-0.3,1.2-0.6
						c0.3-0.6,0.3-1.3,0.3-2v-6.5c0-0.8,0-1.5-0.1-2.3c-0.1-0.3-0.2-0.5-0.5-0.7c-0.2-0.2-0.5-0.3-0.8-0.3c-0.4,0-0.9,0.2-1.2,0.4
						c-0.5,0.4-0.9,0.9-1.3,1.5v7.8c-0.1,0.7,0,1.4,0.2,2c0.3,0.4,0.7,0.6,1.2,0.7v0.6h-7.4v-0.6c0.5,0,1-0.2,1.3-0.6
						c0.2-0.6,0.3-1.3,0.3-2v-14.9c0.1-0.7,0-1.4-0.3-2.1c-0.3-0.3-0.8-0.5-1.3-0.5v-0.6H423.9z"/>
					<path class="st10" d="M448.6,407.7h-8c0,1.7,0.5,3.3,1.5,4.6c0.6,0.8,1.6,1.3,2.6,1.3c0.6,0,1.2-0.2,1.7-0.5
						c0.7-0.5,1.2-1.2,1.6-1.9l0.5,0.3c-0.6,1.3-1.5,2.5-2.6,3.4c-1,0.7-2.1,1-3.3,1c-2,0.1-3.8-0.8-4.9-2.5c-0.9-1.5-1.4-3.2-1.4-5
						c-0.1-2.1,0.6-4.2,2-5.8c1.2-1.4,2.9-2.2,4.6-2.2c1.5,0,2.9,0.7,3.9,1.8C448.1,403.9,448.7,405.8,448.6,407.7z M444.8,406.7
						c0-1.2,0-2.3-0.3-3.5c-0.1-0.6-0.4-1-0.9-1.4c-0.2-0.2-0.6-0.3-0.9-0.3c-0.6,0-1.1,0.3-1.3,0.8c-0.7,1.2-1,2.5-0.9,3.8v0.6
						L444.8,406.7z"/>
					<path class="st10" d="M460.2,400.5l0.2,5h-0.5c-0.4-1.1-1.1-2.2-2-3c-0.6-0.5-1.3-0.8-2-0.8c-0.4,0-0.8,0.1-1.1,0.4
						c-0.3,0.3-0.4,0.6-0.5,1c0,0.3,0.1,0.6,0.3,0.8c0.8,0.8,1.8,1.6,2.8,2.2c1.1,0.7,2.2,1.6,3,2.6c0.5,0.7,0.7,1.6,0.7,2.4
						c0,0.8-0.2,1.7-0.6,2.4c-0.4,0.8-1,1.4-1.7,1.8c-0.8,0.4-1.6,0.6-2.5,0.6c-1-0.1-1.9-0.3-2.8-0.7c-0.2-0.1-0.4-0.1-0.6-0.2
						c-0.4,0-0.6,0.3-0.9,0.8h-0.5l-0.2-5.3h0.5c0.3,1.2,1,2.3,1.9,3.1c0.6,0.6,1.5,1,2.3,1c0.5,0,0.9-0.2,1.2-0.5
						c0.3-0.3,0.5-0.7,0.5-1.1c0-0.5-0.2-0.9-0.5-1.3c-0.6-0.6-1.3-1.2-2.1-1.7c-1.1-0.7-2.2-1.6-3.1-2.5c-0.7-0.8-1-1.8-1-2.8
						c0-1.1,0.4-2.2,1.2-3.1c0.9-1,2.1-1.5,3.4-1.4c0.8,0,1.6,0.2,2.3,0.6c0.2,0.1,0.4,0.2,0.7,0.2c0.2,0,0.3,0,0.5-0.1
						c0.2-0.2,0.4-0.4,0.5-0.7L460.2,400.5z"/>
					<path class="st10" d="M469.8,395.6v5.4h3.5v1.6h-3.5v9c0,0.5,0,1.1,0.1,1.6c0.1,0.2,0.2,0.5,0.4,0.6c0.2,0.1,0.3,0.2,0.5,0.2
						c0.7,0,1.3-0.5,1.9-1.5l0.5,0.3c-0.6,1.8-2.2,3-4.1,3c-0.9,0-1.7-0.3-2.4-0.8c-0.6-0.4-1-1-1.2-1.7c-0.1-1-0.2-1.9-0.2-2.9
						v-7.9h-1.9v-0.5c1.2-0.8,2.4-1.8,3.4-2.9c0.9-1,1.8-2.2,2.4-3.4L469.8,395.6z"/>
					<path class="st10" d="M487.6,407.7h-8c0,1.7,0.5,3.3,1.5,4.6c0.6,0.8,1.6,1.3,2.6,1.3c0.6,0,1.2-0.2,1.7-0.5
						c0.6-0.5,1.2-1.2,1.6-1.9l0.5,0.3c-0.6,1.3-1.5,2.5-2.6,3.4c-1,0.7-2.1,1-3.3,1c-2,0.1-3.9-0.8-4.9-2.5c-0.9-1.5-1.4-3.2-1.3-5
						c-0.1-2.1,0.6-4.2,2-5.8c1.2-1.4,2.9-2.2,4.6-2.2c1.5,0,2.9,0.7,3.9,1.8C487,403.9,487.6,405.8,487.6,407.7z M483.7,406.7
						c0-1.2,0-2.3-0.3-3.5c-0.1-0.5-0.4-1-0.9-1.4c-0.2-0.2-0.6-0.3-0.9-0.3c-0.6,0-1.1,0.3-1.3,0.8c-0.7,1.2-1,2.5-0.9,3.8v0.6
						L483.7,406.7z"/>
					<path class="st10" d="M496,400.9v3.3c0.7-1.2,1.5-2.2,2.6-3c0.6-0.5,1.3-0.7,2.1-0.7c0.5,0,1,0.2,1.4,0.5
						c0.4,0.4,0.6,1,0.5,1.5c0,0.6-0.1,1.2-0.5,1.6c-0.3,0.4-0.8,0.6-1.2,0.6c-0.5,0-1-0.2-1.4-0.5c-0.2-0.2-0.5-0.4-0.7-0.6
						c-0.1-0.1-0.2-0.1-0.4-0.1c-0.3,0-0.6,0.1-0.9,0.3c-0.5,0.4-0.8,0.9-1,1.5c-0.3,1.1-0.5,2.2-0.5,3.4v3.4v0.9
						c0,0.4,0,0.8,0.1,1.1c0.1,0.3,0.3,0.5,0.5,0.6c0.4,0.2,0.8,0.2,1.2,0.2v0.6H490V415c0.5,0,1-0.2,1.3-0.5
						c0.3-0.7,0.4-1.6,0.3-2.4V404c0-0.5,0-1.1-0.1-1.6c-0.1-0.3-0.2-0.5-0.5-0.6c-0.3-0.2-0.7-0.3-1-0.3v-0.6H496z"/>
				</g>
			</g>
			<path id="Line-2" class="st12" d="M96.5,381.7h165"/>
		</g>
	</g>
</g>
</svg>
