<?xml version="1.0" encoding="UTF-8"?>
<!-- Generator: Adobe Illustrator 16.0.3, SVG Export Plug-In . SVG Version: 6.00 Build 0)  -->
<!DOCTYPE svg PUBLIC "-//W3C//DTD SVG 1.1//EN" "http://www.w3.org/Graphics/SVG/1.1/DTD/svg11.dtd">
<svg version="1.1" xmlns="http://www.w3.org/2000/svg" xmlns:xlink="http://www.w3.org/1999/xlink" x="0px" y="0px" width="623.6px" height="255.1px" viewBox="0 0 623.6 255.1" style="enable-background:new 0 0 623.6 255.1;" xml:space="preserve">
<style type="text/css">
<![CDATA[
	.st0{fill:#E85693;}
	.st1{fill:#5D5D5D;}
	.st2{fill:#FFFFFF;}
]]>
</style>
<g id="BG">
	<rect class="st2" width="623.6" height="255.1"/>
</g>
<g id="Logo">
	<g>
		<path class="st0" d="M120.8,140.1c-3.3-3.3-7.8-4.6-12.1-4.3l-24-32.3c2.3-5,1.5-10.9-2.7-15.1c-5.1-5.1-13.6-5.1-18.7,0    c-4.5,4.5-5.1,11.3-1.8,16.4l-17.9,28.7c-2.2-0.8-4.8-0.8-7.1,0l-9.6-11.8c0.5-1,0.8-2,0.8-3.2c0-3.6-3-6.6-6.6-6.6    s-6.6,3-6.6,6.6c0,3.6,3,6.6,6.6,6.6c0.3,0,0.5,0,0.8,0l9.3,13.6c-1.7,3.6-1,8.1,2,11.1c3.8,3.8,10.1,3.8,14.1,0    c2.8-2.8,3.5-6.8,2.3-10.3l21.2-28.5c1.2,0.2,2.3,0.2,3.5,0l22.2,33.8c-2.3,5.5-1.3,11.9,3.2,16.4c5.8,5.8,15.3,5.8,21.1,0    C126.7,155.5,126.7,146.1,120.8,140.1"/>
		<path class="st1" d="M163.9,141.1v-5c0-3.3,1.2-6,3.3-8.3c2.2-2.2,5.3-3.3,9.5-3.3h16.9v-9c0-2.5-0.8-4.3-2.5-5.6    c-1.7-1.3-4.5-2-8.6-2c-4.1,0-7,0.7-8.6,1.8c-1.7,1.2-2.5,3-2.5,5.5v1.2c0,1-0.5,1.7-1.5,1.7h-3.5c-1,0-1.3-0.5-1.3-1.7v-1.7    c0-8.3,6-12.4,17.7-12.4c11.8,0,17.7,4.1,17.7,12.4V150c0,1-0.5,1.5-1.3,1.5h-3.6c-1,0-1.5-0.5-1.5-1.5l-0.2-3.5    c-4.8,3.8-10.3,5.8-16.3,5.6c-4.3,0-7.8-1.2-10.1-3.3C165,147,163.9,144.4,163.9,141.1 M170.5,140.1c0,4.5,2.8,6.8,8.5,6.8    c5,0,9.8-1.8,14.6-5.5v-11.6H178c-5,0-7.5,2.3-7.5,7.1V140.1z"/>
		<path class="st1" d="M215.1,150.2V84.5c0-1,0.5-1.5,1.5-1.5h3.8c1,0,1.3,0.5,1.3,1.5v65.7c0,1-0.5,1.5-1.3,1.5h-3.8    C215.6,151.7,215.1,151.2,215.1,150.2"/>
		<path class="st1" d="M231.5,104.8c0-0.2-0.2-0.3-0.2-0.5c0-0.7,0.5-1,1.5-1h3.8c0.8,0,1.3,0.5,1.5,1.5l9.3,34.2    c0.2,0.5,0.3,1,0.3,1.7c0.2,0.7,0.2,1.2,0.3,1.5c0.2,0.5,0.2,0.7,0.2,0.7c0-0.3,0.3-1.5,1-4l9.5-34.2c0.3-1,0.8-1.5,1.7-1.5h4.1    c0.8,0,1.3,0.5,1.5,1.5l8.8,34.3l1,3.8c0-0.3,0.3-1.7,1.2-3.8l9.1-34.2c0.3-1,0.8-1.5,1.7-1.5h3.3c0.8,0,1.3,0.3,1.3,0.8    c0,0.2,0,0.3-0.2,0.5l-12.8,45.6c-0.3,1-0.7,1.3-1.5,1.3h-4.8c-0.8,0-1.3-0.5-1.5-1.3l-8.6-33.2c-0.2-0.5-0.5-2-1-4.6l-1.3,4.6    l-9.3,33.3c-0.3,1-0.8,1.3-1.5,1.3h-4.5c-0.8,0-1.3-0.5-1.7-1.3L231.5,104.8z"/>
		<path class="st1" d="M300.2,141.1v-5c0-3.3,1.2-6,3.3-8.3c2.2-2.2,5.3-3.3,9.5-3.3h16.9v-9c0-2.5-0.8-4.3-2.5-5.6    c-1.7-1.3-4.5-2-8.6-2c-4.1,0-7,0.7-8.6,1.8c-1.7,1.2-2.5,3-2.5,5.5v1.2c0,1-0.5,1.7-1.5,1.7h-3.5c-1,0-1.3-0.5-1.3-1.7v-1.7    c0-8.3,6-12.4,17.7-12.4c11.8,0,17.7,4.1,17.7,12.4V150c0,1-0.5,1.5-1.3,1.5h-3.6c-1,0-1.5-0.5-1.5-1.5l-0.2-3.5    c-4.8,3.8-10.3,5.8-16.3,5.6c-4.3,0-7.8-1.2-10.1-3.3C301.4,147,300.2,144.4,300.2,141.1 M306.8,140.1c0,4.5,2.8,6.8,8.5,6.8    c5,0,9.8-1.8,14.6-5.5v-11.6h-15.6c-5,0-7.5,2.3-7.5,7.1V140.1L306.8,140.1z"/>
		<path class="st1" d="M345.5,104.8c0-0.2-0.2-0.5-0.2-0.5c0-0.7,0.5-0.8,1.3-0.8h4c0.8,0,1.3,0.5,1.7,1.5l11.1,32.7    c0.3,0.8,0.5,1.7,0.7,2.7s0.3,1.7,0.5,2.3c0.2,0.7,0.2,1,0.2,1c0.7-2.7,1.2-4.5,1.7-5.6l11.3-32.8c0.3-1,0.8-1.5,1.7-1.5h3.8    c1,0,1.3,0.3,1.3,0.8c0,0.2,0,0.3-0.2,0.5l-22.6,65.8c-0.3,1-1,1.5-1.7,1.5h-3c-1.2,0-1.5-0.5-1.2-1.5l6-18.4L345.5,104.8z"/>
		<path class="st1" d="M391.2,141.4v-2.7c0-1,0.5-1.3,1.3-1.3h3.6c0.8,0,1.3,0.5,1.3,1.3v2.3c0,4.1,3.8,6.1,11.4,6.1    c3.8,0,6.6-0.5,8.6-1.7c2-1.2,3-2.7,3-4.5v-3.6c0-2.5-2-4.3-5.8-5.5l-15.1-5c-2-0.7-3.6-1.8-5.3-3.5c-1.5-1.7-2.3-3.6-2.3-6v-3.8    c0-3.3,1.3-6,4.1-8c2.7-2.2,7-3.2,12.9-3.2c5.8,0,10.1,1,12.9,3.2c2.8,2.2,4.1,4.8,4.1,8v2.8c0,0.8-0.5,1.3-1.3,1.3h-3.6    c-0.8,0-1.3-0.3-1.3-1.2v-2.8c0-4-3.6-6-10.9-6c-7.1,0-10.6,2-10.6,6v2.3c0,2.5,1.7,4.3,5,5.3l15.1,5c5.6,1.8,8.5,5,8.5,9.3v5.6    c0,3.2-1.5,5.8-4.5,8c-3,2.2-7.5,3.1-13.4,3.1c-6,0-10.4-1-13.4-3.1C392.7,147.2,391.2,144.6,391.2,141.4"/>
		<path class="st0" d="M438.2,139.9V115c0-3.8,1.2-7,3.3-9.1c2.3-2.3,5.6-3.3,10.3-3.3c5.8,0,11.4,1.8,16.6,5.6V84.4    c0-1,0.5-1.5,1.3-1.5h4c1,0,1.5,0.5,1.5,1.5v65.8c0,1-0.5,1.5-1.5,1.5h-3.5c-1,0-1.5-0.5-1.5-1.5l-0.2-3.5    c-5,3.8-10.6,5.6-16.7,5.6c-4.6,0-8-1.2-10.3-3.3C439.3,146.9,438.2,143.9,438.2,139.9 M445,139.1c0,2.2,0.7,4,2.2,5.3    c1.5,1.3,3.6,2,6.5,2c5,0,10-1.8,14.9-5.5V114c-4.8-3.8-9.8-5.6-14.9-5.6c-3,0-5.1,0.7-6.5,2.2c-1.5,1.3-2.2,3.2-2.2,5.3V139.1z"/>
		<path class="st0" d="M489.1,141.1v-5c0-3.3,1.2-6,3.3-8.3c2.2-2.2,5.3-3.3,9.5-3.3h16.9v-9c0-2.5-0.8-4.3-2.5-5.6    c-1.7-1.3-4.5-2-8.6-2c-4.1,0-7,0.7-8.6,1.8c-1.7,1.2-2.5,3-2.5,5.5v1.2c0,1-0.5,1.7-1.5,1.7h-3.5c-1,0-1.3-0.5-1.3-1.7v-1.7    c0-8.3,6-12.4,17.7-12.4c11.8,0,17.7,4.1,17.7,12.4V150c0,1-0.5,1.5-1.3,1.5h-3.6c-1,0-1.5-0.5-1.5-1.5l-0.2-3.5    c-4.8,3.8-10.3,5.8-16.3,5.6c-4.3,0-7.8-1.2-10.1-3.3C490.2,147,489.1,144.4,489.1,141.1 M495.7,140.1c0,4.5,2.8,6.8,8.5,6.8    c5,0,9.8-1.8,14.6-5.5v-11.6h-15.6c-5,0-7.5,2.3-7.5,7.1V140.1z"/>
		<path class="st0" d="M535.2,107.6v-2.3c0-1,0.5-1.3,1.3-1.5l5.1-0.3h0.8V93c0-1,0.5-1.5,1.5-1.5h4c1,0,1.3,0.5,1.3,1.5v10.4h11.1    c1,0,1.5,0.5,1.5,1.3v2.7c0,1-0.5,1.5-1.5,1.5h-11.1v29.2c0,2.5,0.8,4.3,2.7,5.6c1.8,1.3,4.6,1.8,8.8,1.8h1.7c1,0,1.5,0.5,1.5,1.5    v3c0,1-0.5,1.5-1.5,1.5h-2.7c-6.5,0-10.9-1-13.4-3.2c-2.7-2.2-3.8-5.3-3.8-9.5v-29.9h-6C535.5,109.1,535.2,108.6,535.2,107.6"/>
		<path class="st0" d="M572.7,141.1v-5c0-3.3,1.2-6,3.3-8.3c2.2-2.2,5.3-3.3,9.5-3.3h16.9v-9c0-2.5-0.8-4.3-2.5-5.6    c-1.7-1.3-4.5-2-8.6-2c-4.1,0-7,0.7-8.6,1.8c-1.7,1.2-2.5,3-2.5,5.5v1.2c0,1-0.5,1.7-1.5,1.7h-3.5c-1,0-1.3-0.5-1.3-1.7v-1.7    c0-8.3,6-12.4,17.7-12.4c11.8,0,17.7,4.1,17.7,12.4V150c0,1-0.5,1.5-1.3,1.5h-3.6c-1,0-1.5-0.5-1.5-1.5l-0.2-3.5    c-4.8,3.8-10.3,5.8-16.3,5.6c-4.3,0-7.8-1.2-10.1-3.3C573.8,147,572.7,144.4,572.7,141.1 M579.3,140.1c0,4.5,2.8,6.8,8.5,6.8    c5,0,9.8-1.8,14.6-5.5v-11.6h-15.6c-5,0-7.5,2.3-7.5,7.1V140.1z"/>
	</g>
</g>
</svg>