<svg xmlns="http://www.w3.org/2000/svg" viewBox="0 0 623.62 255.12"><defs><style>.cls-1{fill:#fff;}.cls-2{fill:#231f20;}</style></defs><title>atoms</title><g id="BG"><rect class="cls-1" width="623.62" height="255.12"/></g><g id="Logo"><path class="cls-2" d="M82.63,198l-.45-14.06c-6.58,11.56-19.27,17-32.87,17-20.86,0-35.14-13.15-35.14-32.87,0-20.85,13.83-33.32,41.71-37.4L81.27,127v-1.36c0-9.29-7.25-14.73-22.67-14.73-14.5,0-27.43,5.67-37.63,15V94.35C30.72,87.78,44.78,83,62,83c32.65,0,51.23,15.41,51.23,44.65V198ZM58.38,175.73c13.82,0,22.89-10,22.89-22.67v-3.85l-19.72,3.17C50.9,154,45.46,158.28,45.46,165.3,45.68,171.65,50.9,175.73,58.38,175.73Z"/><path class="cls-2" d="M115.73,113.17v-4.31l52.36-54.63H169V86h28.33v27.21H169v41c0,12,5,16.77,15.64,16.77a22.31,22.31,0,0,0,12.69-4.08v29c-5.21,2.73-13.14,4.77-23.8,4.77-23.8,0-37.4-13.38-37.4-38.54v-49Z"/><path class="cls-2" d="M260.13,83c34.45,0,60.75,25.61,60.75,58.93s-26.3,58.94-60.75,58.94S199.38,175.28,199.38,142,225.67,83,260.13,83Zm0,87.72c15.41,0,28.11-12.69,28.11-28.79s-12.7-28.78-28.11-28.78S232,125.86,232,142,244.71,170.74,260.13,170.74Z"/><path class="cls-2" d="M366,198h-33.1V86H366V100c6.12-10.2,16.77-17,31.51-17,15.41,0,26.74,7,32.86,19.49,7-11.79,19.73-19.49,36.05-19.49,25.61,0,40.12,17.22,40.12,44.65V198h-33.1V135.38c0-13.83-6.34-22.21-17.9-22.21s-19,9.06-19.27,24.25V198h-33.1V135.83c0-14.5-6.12-22.66-17.68-22.66-11.79,0-19.49,9.52-19.49,24.93Z"/><path class="cls-2" d="M519.68,156.24C531.69,166,547.56,173,562.3,173c9.74,0,14.5-2.95,14.5-8.61,0-17.23-58.48-1.14-58.48-42.39,0-22.9,17.23-39,47.38-39C580,83,593.35,87.1,604,92.31v33.78a58.6,58.6,0,0,0-39.45-15.87c-10.88,0-14.5,3.85-14.5,8.39,0,15.41,59.39,1.36,59.39,43.29,0,25.16-20.63,39-46.93,39-18.13,0-32-4.08-42.84-10.2Z"/></g></svg>