<svg xmlns="http://www.w3.org/2000/svg" viewBox="0 0 623.62 255.12"><defs><style>.cls-1{fill:#fff;}.cls-2{fill:#58595b;}.cls-3{fill:#ea973e;}.cls-4{fill:#e6873c;}.cls-5{fill:#e37639;}.cls-6{fill:#e06436;}</style></defs><title>bitrock</title><g id="BG"><rect class="cls-1" width="623.62" height="255.12"/></g><g id="Logo"><path class="cls-2" d="M204,166.82V87.75h19a48,48,0,0,1,11,1.14,27.23,27.23,0,0,1,8.48,3.48A15.81,15.81,0,0,1,248,98.55a19.54,19.54,0,0,1,2,9q0,7.41-3.51,11.28t-10.83,5.67q7.91,2.35,11.86,6.87t3.94,12.9q0,10.46-6.79,16.53t-18.52,6.06H204Zm12.67-45.19H223q15.81,0,15.82-14.11a11.9,11.9,0,0,0-.65-4.13,11.23,11.23,0,0,0-1.54-3,6.7,6.7,0,0,0-2.69-2,26.06,26.06,0,0,0-3.29-1.26,21,21,0,0,0-4.23-.63q-2.74-.19-4.56-.24c-1.23,0-3,0-5.19,0Zm0,36.72H223q8.21,0,12-3.37t3.81-10.75q0-7.35-3.81-10.74c-2.54-2.26-6.54-3.37-12-3.37h-6.33Z"/><path class="cls-2" d="M272.54,166.82V87.75h12.65v79.07Z"/><path class="cls-2" d="M319.51,166.82v-69H303.69v-10H348v10H332.14v69H319.51Z"/><path class="cls-2" d="M366.73,166.82V88.17h23.49a25.3,25.3,0,0,1,7.83,1.1,15.36,15.36,0,0,1,5.45,2.91,13.58,13.58,0,0,1,3.36,4.48,20.84,20.84,0,0,1,1.76,5.53,37.19,37.19,0,0,1,.5,6.33q0,15-12.29,19.06l13.63,39.26h-8.3l-12.84-38.4H374.53v38.4h-7.8Zm7.78-44h15.67a12.23,12.23,0,0,0,5.63-1.19,7.78,7.78,0,0,0,3.45-3.38,16.72,16.72,0,0,0,1.61-4.57,28.54,28.54,0,0,0,.46-5.44,34.16,34.16,0,0,0-.28-4.53,17.52,17.52,0,0,0-1-3.93,9.57,9.57,0,0,0-2-3.22,8.63,8.63,0,0,0-3.23-2.08,12.76,12.76,0,0,0-4.65-.78H374.5v29.12Z"/><path class="cls-2" d="M431.45,144V111.07a39.19,39.19,0,0,1,.69-7.63,24.25,24.25,0,0,1,2.33-6.55,17.2,17.2,0,0,1,4.14-5.21,18.28,18.28,0,0,1,6.4-3.35,32.67,32.67,0,0,1,17.83,0,18.53,18.53,0,0,1,6.4,3.35,17.17,17.17,0,0,1,4.14,5.21,23.59,23.59,0,0,1,2.33,6.55,38.57,38.57,0,0,1,.69,7.63v33q0,24-22.47,24T431.45,144Zm37.15,1.56V109.51q0-16.86-14.69-16.87t-14.69,16.87v36.05q0,16.91,14.69,16.91T468.6,145.57Z"/><path class="cls-2" d="M499.79,144V111.07a44.43,44.43,0,0,1,.61-7.63,23.78,23.78,0,0,1,2.17-6.53,16.68,16.68,0,0,1,4-5.23,17.62,17.62,0,0,1,6.27-3.35,28.79,28.79,0,0,1,8.83-1.24q20.68,0,20.69,24v3.2H535v-4.76a31.39,31.39,0,0,0-.64-6.71,15.75,15.75,0,0,0-2.13-5.27,9.57,9.57,0,0,0-4.11-3.61,14.84,14.84,0,0,0-6.38-1.26,18.51,18.51,0,0,0-5.88.85,10.14,10.14,0,0,0-6.58,6,18.33,18.33,0,0,0-1.31,4.59,37.39,37.39,0,0,0-.35,5.46V145.6a32.36,32.36,0,0,0,.6,6.74,16.18,16.18,0,0,0,2.13,5.26,9.53,9.53,0,0,0,4.37,3.65,17.43,17.43,0,0,0,7,1.26,14.65,14.65,0,0,0,6.37-1.26,9.46,9.46,0,0,0,4.12-3.63,17.14,17.14,0,0,0,2.13-5.31,32,32,0,0,0,.63-6.71v-5.38h7.42v3.83a46.5,46.5,0,0,1-.56,7.59,25.27,25.27,0,0,1-2,6.55,16.64,16.64,0,0,1-3.76,5.26,16.94,16.94,0,0,1-5.94,3.39,25.89,25.89,0,0,1-8.39,1.25,29.34,29.34,0,0,1-9-1.25,17.34,17.34,0,0,1-6.29-3.39,16.51,16.51,0,0,1-3.95-5.26,25,25,0,0,1-2.1-6.52A47.37,47.37,0,0,1,499.79,144Z"/><path class="cls-2" d="M566,166.82V88.17h7.79v41.36l23.49-41.36h8l-18.21,32.45,22.36,46.2h-8.24l-18.83-41.54-8.6,13.81v27.73Z"/><path class="cls-3" d="M141.34,107.18l-4.28-13.09C123.92,54,91.34,43.48,64.3,70.53l-5.1,5.11"/><polyline class="cls-4" points="145.21 119 142.65 111.21 56.73 78.11 51.89 82.94"/><path class="cls-5" d="M47.14,87.69l-18,18c-27,27-16.49,59.62,23.56,72.76L152,139.84l-4.26-13"/><path class="cls-6" d="M59.28,180.57l46.36,15.2c40.05,13.13,61.89-8.69,48.75-48.76l-.57-1.72"/></g></svg>