<svg id="BG" xmlns="http://www.w3.org/2000/svg" xmlns:xlink="http://www.w3.org/1999/xlink" viewBox="0 0 623.62 255.12"><defs><style>.cls-1{fill:#fff;}.cls-2{fill:#212222;}.cls-3{fill:#3c3e3f;}.cls-4{fill:url(#linear-gradient);}.cls-5{fill:url(#linear-gradient-2);}</style><linearGradient id="linear-gradient" x1="56.91" y1="89.67" x2="43.2" y2="127.37" gradientTransform="matrix(1, 0, 0, -1, 0, 257.78)" gradientUnits="userSpaceOnUse"><stop offset="0" stop-color="#212222" stop-opacity="0"/><stop offset="1" stop-color="#212222"/></linearGradient><linearGradient id="linear-gradient-2" x1="114.16" y1="132.7" x2="100.45" y2="170.4" gradientTransform="matrix(1, 0, 0, -1, 0, 257.78)" gradientUnits="userSpaceOnUse"><stop offset="0" stop-color="#212222"/><stop offset="1" stop-color="#212222" stop-opacity="0"/></linearGradient></defs><title>caffeina2</title><rect class="cls-1" width="623.62" height="255.12"/><g id="Layer_2" data-name="Layer 2"><g id="Layer_6" data-name="Layer 6"><path class="cls-2" d="M392.35,101.58H370.23v-14H397V75.84H358.33v63h11.9V113.12h22.12Zm-35.28,70.5h10.45v-4.15H357.07v-4.7h11.6v-4H352.19V180.8H369v-4H357.07ZM336,173.2l-10.44-13.91H321v21.62h4.68v-14l10.44,13.86h4.44V159.18H336ZM308.77,139h11.9V113.12h22V101.58h-22v-14h26.82V75.84H308.77Zm-45-63.16-24.28,63H252l5.22-13h25.75l4.91,13h12.3L276,75.84Zm-2.3,38.33,8.46-21.65,8.41,21.65Zm-60.42,45H191.9V180.8h9a10.83,10.83,0,1,0,1.67-21.6,10.59,10.59,0,0,0-1.49,0Zm0,17.52h-4.28V163.31h4.13a6.4,6.4,0,0,1,6.51,6.28c0,.15,0,.3,0,.45a6.23,6.23,0,0,1-5.62,6.77c-.2,0-.4,0-.6,0Zm83.74-11.8c0-1.17,1.1-1.75,2.61-1.75a15.25,15.25,0,0,1,6.74,2.22l1.88-4.05A15.73,15.73,0,0,0,287.8,159c-5,0-8.35,2.61-8.35,6.4,0,7.65,11.51,5.22,11.51,9.35,0,1.33-1.2,2.09-3.21,2.09a12.7,12.7,0,0,1-7.65-3.27l-2,4A15.31,15.31,0,0,0,287.7,181c4.78,0,8.46-2.27,8.46-6.5.28-7.78-11.23-5.46-11.23-9.56Zm-57.78-45a34.76,34.76,0,0,1-9.51,7.08,23.11,23.11,0,0,1-9.55,2,22.56,22.56,0,0,1-11.13-2.8,19.59,19.59,0,0,1-7.83-7.67,22.43,22.43,0,0,1-2.61-11.2,21.09,21.09,0,0,1,20.8-21.39h.61a26.13,26.13,0,0,1,19.22,9l8.35-8A36.34,36.34,0,0,0,207.9,74.27a34.42,34.42,0,0,0-17.13,4.47,31.69,31.69,0,0,0-12.19,11.77,32.71,32.71,0,0,0-4.25,16.74,32.27,32.27,0,0,0,9.34,23.92,32.76,32.76,0,0,0,24.08,9.29,35.82,35.82,0,0,0,14.17-2.61A44.51,44.51,0,0,0,235,128.4ZM175.37,180.8h4.88V159.18h-4.88Zm52-8.82h10.45v-4H227.38v-4.7H239v-4H222.5V180.8h16.79v-4H227.38Zm29.53-12.8-9.4,21.62h5l1.7-4.2h10l1.7,4.2h5.22L262,159.18Zm-1,13.5,3.42-8.38,3.39,8.38Zm187.86-45.46H417.62V113.15h21.1V101.61h-21.1v-14h26.11V75.84H405.87v63h37.86ZM602.35,139l-24.3-63.19H565.88l-24.31,63h12.48l5.22-13H585l4.94,13Zm-38.77-24.86L572,92.52l8.41,21.65Zm30.68,45H585.1v21.62H590v-6.11h4.28c5.51,0,8.65-2.9,8.65-7.83s-3.11-7.63-8.62-7.63ZM594,170.51H590v-7.28h4c2.61,0,4.26,1.2,4.26,3.63s-1.52,3.71-4.23,3.71ZM535.12,172h10.44v-4H535.12v-4.7h11.59v-4H530.24V180.8h16.81v-4H535.12Zm27.49,0h10.45v-4H562.61v-4.7h11.57v-4H557.73V180.8h16.56v-4H562.38Zm-174,3.52-5.9-16.32h-5.23L386,180.8h5l8.36-21.62h-5Zm69-36.55h11.91V75.84H457.57Zm-3,27.8c0-4.8-3.21-7.52-8.87-7.52h-9.51v21.62h5v-6.21h5l3.42,6.16h5.54l-4.6-7.13a7.12,7.12,0,0,0,3.94-7Zm-8.87,3.87h-4.55v-7.39h4.52c2.61,0,4.23,1.2,4.23,3.63s-1.65,3.71-4.33,3.71Zm88.25-94.73h-12v41.44l-27.1-41.49H483.29v63h12V97.54l26.95,41.35h11.54ZM413.55,172H424v-4H413.55v-4.7h11.57v-4H408.67V180.8h16.79v-4H413.55Zm70.86-7.08c0-1.17,1.13-1.75,2.77-1.75a15.25,15.25,0,0,1,6.74,2.22l1.88-4.05a15.73,15.73,0,0,0-8.23-2.35c-5,0-8.35,2.61-8.35,6.4,0,7.65,11.51,5.22,11.51,9.35,0,1.33-1.2,2.09-3.21,2.09a12.87,12.87,0,0,1-7.68-3.27l-1.93,4a15.14,15.14,0,0,0,9.53,3.42c4.81,0,8.49-2.27,8.49-6.5C496,166.68,484.41,169,484.41,164.9Zm26.66-5.72h-4.85V180.8h14.12v-4.25h-9.27Z"/><path class="cls-3" d="M124.27,87.14,90.85,67.82a24.52,24.52,0,0,0-24.47,0L33,87.14a24.41,24.41,0,0,0-12.22,21.15v38.62A24.4,24.4,0,0,0,33,168.06l33.42,19.22a24.43,24.43,0,0,0,24.47,0L124.27,168a24.46,24.46,0,0,0,12.22-21.15V108.29A24.48,24.48,0,0,0,124.27,87.14Zm-36,47.53a14.69,14.69,0,0,0-9.66,13.78v18.28a1.22,1.22,0,0,1-2.4.36l-12-39.87a4.88,4.88,0,0,1,3-6l1.75-.65a14.61,14.61,0,0,0,9.63-13.76V88.53a1.25,1.25,0,0,1,2.43-.47l12,40a4.86,4.86,0,0,1-3,6Z"/><path class="cls-4" d="M67.25,121.17a4.88,4.88,0,0,0-3,6l12,39.95a1.22,1.22,0,0,0,2.37,0v21.1a22,22,0,0,1-10.86-3L34.19,166a22,22,0,0,1-11-19h0a13.93,13.93,0,0,1,9.16-13Z"/><path class="cls-5" d="M123,89.26,89.62,69.94A22.27,22.27,0,0,0,78.6,67V88.4h0a.38.38,0,0,1,0-.21,1.23,1.23,0,0,1,2.46-.13h0l12,40a4.86,4.86,0,0,1-3,6l34.83-12.63A14,14,0,0,0,134,108.37,22,22,0,0,0,123,89.26Z"/></g></g></svg>