<svg xmlns="http://www.w3.org/2000/svg" viewBox="0 0 623.62 255.12"><defs><style>.cls-1{fill:#fff;}.cls-2{fill:#bd1622;}.cls-3{fill:#054164;}</style></defs><title>docsity</title><g id="BG"><rect class="cls-1" width="623.62" height="255.12"/></g><g id="Logo"><path class="cls-2" d="M211.16,157.71c-2.78-6.56-10.14-14.91-23.65-24.25a47.21,47.21,0,0,0-30.81-7.75c-4.78-7.95-12.73-4.17-13.32-3.38-.6.6-4.38,2.39-4.18,7.55a11.6,11.6,0,0,0,4.38,8.55c-1,1.19-2.79,10.93,1,24.65s15.5,26.24,15.5,26.24,9.35,8.94,15.91,9.54,8.54-.8,12.52-5c4-4.37,2.78-14.91,2.78-14.91,1.79,1,7.36,1,9.34.8s9.94-.4,11.93-6.17c1.79-6,1.39-9.14-1.39-15.9m-49.3,14.71a4.17,4.17,0,0,1-4.37-4.37,4.33,4.33,0,0,1,4.57-4.37c2.59,0,4.18,2,4.18,4.57a4.25,4.25,0,0,1-4.38,4.17M165,149.56a4.81,4.81,0,0,1,5-5c3,0,5,1.79,5,4.77,0,2.79-1.79,4.58-4.77,4.58s-5.17-1.59-5.17-4.38m11.14,39.56a3.39,3.39,0,1,1,3.18-3.38,3.45,3.45,0,0,1-3.18,3.38m9.93-24.05a3.18,3.18,0,0,1,0-6.36,2.88,2.88,0,0,1,3,3.18,3,3,0,0,1-3,3.18m18.29,6.16a2.15,2.15,0,0,1-2.19-2.39,2.3,2.3,0,0,1,2.39-2.38c1.39,0,1.79,1,1.79,2.38a1.92,1.92,0,0,1-2,2.39"/><path class="cls-3" d="M389.26,125.31h5.17c6.76.2,6.76,8.95,6.76,8.95.59,18.09-.2,38.36-.2,38.36-2.19,2.58-4.18,2.78-6,3.38a32.36,32.36,0,0,1-5.76,1.19,11.07,11.07,0,0,0,0,2.59,22.59,22.59,0,0,0,2.38,2.18c.6.2,6.56.2,9.94.2,3.18,0,14.32.6,18.09-.79s6-3,5.77-5-5.37-3.18-7.56-3.18c-2.18-.2-6.76-1-6.76-3.38s-.19-32.2,0-37c.2-5-2.58-14.32-2.58-14.32-3.18-1-17.89.8-19.28,1.79Z"/><path class="cls-3" d="M409.93,97.68c-2.78,0-12.92-.79-13.32,4-.39,5,1,7.15,3.38,8.74s6.36.6,7.36,0c.59-.39,2.38-2,2.58-5.76v-7"/><path class="cls-3" d="M444.32,82c.2,3.18,5,2.78,17.69,3,11.93.2,12.92,3,12.32,5.77,0,0-.59,4.17-4.37,5.36-6.36,1.79-7.95,1.79-12.12,1.39s-10.34.2-11.33,3.78c-1.2,4.57-3.18,21.87-3.38,27.23s-1.79,18.09.79,24.85c1.79,5,5.37,12.32,12.33,13.52s11.52-7.36,15.1-13.32c3.18-5.57,4.38-19.08,4.38-19.08h5.36v31.8c0,5.17-1.79,6.76-4.37,8.55s-8.15,3.57-22.06,2.18c-13.92-1.19-18.49-5.16-21.47-9.34s-2.59-13.32-.2-18.88,2.58-8.35,2.19-10.94-3.58-8.14-3.58-10.53-.6-11.53.2-19.88-2.79-7.35-3.18-8.35-10.14-3.18-11.73-4-3-3.38-2.59-7.36C414.9,83.77,428,81,428,81c-.2-3.38,1.19-16.5,4-21.07s5.16-4.77,12.32-4.77V82Z"/><path class="cls-3" d="M303.79,163.48s-.4,35.38-.2,38.36,7.35,5.76,8.35,4.37a66.47,66.47,0,0,1,7.15-7.75s8.75,4.17,11.33,4.17c.6,0,5,.2,17.69,0S370,199.06,375,195.08c2.38-1.79,8.15-4.37,9.14-19.68,1-15.5-6.56-21.46-8.15-23.45C365,140.22,342,140.22,334,137.64c-7-2.39-7.16-6.76-7.55-9.35-1.59-11.72,5.76-14.71,9.34-16.1,7.95-3,19.68-2,26.83,4.38,6,5.36,9.35,21.66,9.35,21.66.79.2,5.36,1.2,8.94-4,3.18-4.57,2.39-10.94,3-16.1.4-5-.39-13.32-.79-16.7s-3.38-5.76-4.57-6c-1.4-.2-3.18.79-4.58,1.39s-4.17,3-6.95,3c-10.54-.4-14.12-3.78-19.88-4-10.34,0-20.08,3.18-26.44,9-14.91,13.52-9.94,35.58-9.14,36.57l2.78,3,5,4.78c46.51,12.92,49.3,14.31,49.3,25.64,0,3.77-5.57,12.72-9.94,12.52H339c-16.5.2-21.67-9.74-23.85-27,0,.2-10.14-1.2-11.33,3.18"/><path class="cls-3" d="M490.24,58.52c-6.56-.59-4.58,10.54-4.58,10.54C504.15,78,511.5,89.14,514.49,94.9S528.8,118.55,532,140.42c1.59,11.53,4.37,21.07-8.15,32-5.77,5-20.08,8.55-20.08-1.39-.2-11.13-2.58-12.13-9.34-12.52-5-.2-9.94,2.58-8.15,12.52,1.59,9.94,3.38,16.7,17.29,19.88,15.31,3.38,33.2-7.36,46.12-29.42,9.54-16.3,27.63-66.19,37-95.81,0,0,7,1.19,10.93-.4,4.77-1.79,4.77-9.14.8-10.33H553.45c-2.79.79-4,9.54-1.4,10.33,5.17,1.59,12.53,1.59,13.52,4.57,1.79,6.17-12.12,61-21.86,56.65,0,0-17.69-43.92-17.89-46.31-1-8.75.2-10.14.79-10.93s4.57-2.78,8.15-3.78c3.78-1,5.37-5.76,4.77-7.55Z"/><path class="cls-3" d="M284.11,162.88c-4.37,6.56-11.13,21.67-24.45,23.46,0,0-26,1.59-26.83-40.16-.6-33.79,26-47.3,43.33-38.76,0,0,5.36,2,6.16,10.34l-7.75,10.73s-.8,7.56,4.77,9.94c5.37,2.39,15.3,5.57,18.88-8.74,3.58-14.52-4-25-4.57-25.45-7.16-7.95-19.08-14.31-45.52-8.94-26.24,5.17-32.8,36.77-32.8,36.77s-12.52-25.84-40.15-26.24c-20.87-.79-47.7,14.31-50.49,40.35-2.58,22.66,3.18,30.81,4.77,37.77l-9.94-3.78c-.79-38.76,1.59-62.41,1.59-62.41,2.39-33.2,2.39-63.21,2.39-63.21C116,46.2,86.73,49,86.73,49V61.51c8,0,16.5,2,16.3,5s0,28.82,0,28.82-7.36-9.15-27.63-9c-20.48.2-34.19,9-39.36,15.51-5,6.76-9.54,12.52-11.33,22.26s-4.77,21.07,1.19,39.36c5.77,18.09,20.87,27.43,23.86,28.82s13.31,6.16,25.84,4.37,13.51-4.57,21.26-4.57c8,0,15.11,3.78,17.5,4.17s8,1.2,21.07,0l.39-3.18s13.32,15.11,39.36,12.33c26-2.59,36-8.55,42.74-31.41,0,0,13.12,25.25,43.13,24.45,30.21-1,37.57-20.87,38.36-43.13a16,16,0,0,0-15.3,7.55M99.45,135.65C99.05,174.81,90.7,180,70,181c-10.34.6-28.62-10.93-27.43-38.17.79-16.69,6.36-25,8.94-28.42,11.14-14.31,33.4-14.71,41.35-8.15,5.56,4.37,7,8,6.56,29.42m77.12,67.58c-35,.6-44.92-20.27-44.92-20.27-1.39-6.36-7.16-16.1-4.77-37.37C129.66,120.94,152.52,108,175,108c28,0,37.77,24,37.77,24,13.32,31.41,3.18,70.56-36.18,71.16"/><path class="cls-3" d="M221.3,154.53c-.2-8.15-5.57-23.65-5.57-23.65S205,105.24,175.38,105.24c-23.85,0-48.3,15.1-51.28,40.94-2.19,20.28,1.79,28.83,3.77,35.19,2.39,6.16,5.17,9.34,8.95,13.51a25.4,25.4,0,0,0,5.17,3.78h0c6.16,3.78,17.69,8.75,34,7,25.84-2.59,35.58-8.15,42.33-31C218.51,175,221.5,162.68,221.3,154.53Zm-44.73,48.7c-34.78.6-44.72-20.07-44.72-20.07-1.39-6.37-7.16-16.11-4.77-37.37,2.58-24.45,25.44-37.37,47.9-37.37,27.83,0,37.77,23.85,37.77,23.85C225.87,163.68,215.73,202.63,176.57,203.23Z"/></g></svg>