<svg xmlns="http://www.w3.org/2000/svg" viewBox="0 0 623.62 255.12"><defs><style>.cls-1{fill:#fff;}.cls-2{fill:#007d9f;}.cls-3{fill:#d2db2f;}.cls-4{fill:#828889;}</style></defs><title>extrategy</title><g id="BG"><rect class="cls-1" width="623.62" height="255.12"/></g><g id="Logo"><g id="Page-1"><g id="logo_extrategy_2col_ist" data-name="logo extrategy 2col ist"><polyline id="Fill-1" class="cls-2" points="158.42 85.13 138.46 85.13 98.42 149.95 118 149.95 158.42 85.13"/><path id="Fill-2" class="cls-2" d="M76.75,103.93c-1.43-3.12-4.8-8.3-13.22-8.3A15.83,15.83,0,0,0,57,96.8c-7.26,3-8.94,10.24-9.33,12.44H78a24.52,24.52,0,0,0-1.29-5.31m13,38.24A37.65,37.65,0,0,1,64,151.89a33.67,33.67,0,0,1-23.2-8.68c-7.39-7-10.11-16-10.11-26.06a39.38,39.38,0,0,1,2.85-15.56c2.85-6.48,10.89-18.41,29.69-18.41,14.52,0,22.16,7.52,25.54,12.45,3,4.54,6,12.44,6.35,25h-48a18.7,18.7,0,0,0,4.15,9.85c2.2,2.73,6.09,6.23,14.13,6.23s12.7-3.77,14.78-6a18.8,18.8,0,0,0,2.2-3l13.22,7.65a42,42,0,0,1-6,6.74"/><path id="Fill-3" class="cls-2" d="M195,150.47c-8.55,0-13-2.08-15.56-5.19a9.3,9.3,0,0,1-1.94-3.76c-.65-2.07-.78-6.61-.78-12.32v-33h-9.46v-11h9.46v-18h15.56v18H206.1v11H192.23v29.43c0,2.59-.39,7.51,1.56,9.59s5.57,1.94,6,1.94a25,25,0,0,0,6.35-.78v13.1a71.36,71.36,0,0,1-11.15,1"/><path id="Fill-4" class="cls-2" d="M235.68,111.57c-1.16,3.63-1.16,6.88-1.16,10.64V150h-15V85.13h15v9.2A20.19,20.19,0,0,1,238.4,89c5.19-5.05,13.62-5.3,15.43-5.3h1.3V99.65c-3.24,0-15.69,0-19.45,11.92"/><path id="Fill-5" class="cls-2" d="M303.48,117.67c-2.6,1.29-6,2.59-12.32,3.63-3.5.65-7.26.78-10.5,2.72a7.64,7.64,0,0,0-3.76,6.48c0,3.89,2.85,7.65,10.63,7.65,8.56,0,13.61-4.41,15-7.39,1-2.07.91-3.89.91-6Zm0,32.28-.39-5.06a21.74,21.74,0,0,1-6,3.63,30.13,30.13,0,0,1-13.09,3c-3.11,0-14.78-.38-20.74-10a18.32,18.32,0,0,1-2.85-10.37,18.86,18.86,0,0,1,8.81-16.2c5.32-3.63,10.37-4.41,16.34-5.58,9.59-1.94,13.09-2.72,17.89-4.41a12.38,12.38,0,0,0-.91-5.31c-1.3-2.46-4.54-4.41-10.24-4.41-6,0-9.72,1.82-11.41,4a8.43,8.43,0,0,0-1.69,5.7l-15.81-.9a19.52,19.52,0,0,1,7-14.91c4-3.37,10.11-6,21.39-6,10.63,0,16.85,2.2,20.87,5.06a15.11,15.11,0,0,1,4.67,5.19C319,96.8,319,101.33,319,105v34.49c0,4.93.26,6.35,2.86,10.5Z"/><path id="Fill-6" class="cls-2" d="M355.58,150.47c-8.55,0-13-2.08-15.56-5.19a9.3,9.3,0,0,1-1.94-3.76c-.65-2.07-.78-6.61-.78-12.32v-33h-9.46v-11h9.46v-18h15.56v18h13.87v11H352.86v29.43c0,2.59-.39,7.51,1.56,9.59s5.57,1.94,6,1.94a25,25,0,0,0,6.35-.78v13.1a71.22,71.22,0,0,1-11.15,1"/><path id="Fill-7" class="cls-2" d="M418.32,103.93c-1.43-3.12-4.8-8.3-13.22-8.3a15.83,15.83,0,0,0-6.49,1.17c-7.25,3-8.94,10.24-9.33,12.44h30.33a24.52,24.52,0,0,0-1.29-5.31m13,38.24a37.64,37.64,0,0,1-25.66,9.72,33.68,33.68,0,0,1-23.21-8.68c-7.39-7-10.11-16-10.11-26.06a39.38,39.38,0,0,1,2.85-15.56C378,95.11,386,83.18,404.84,83.18c14.52,0,22.16,7.52,25.54,12.45,3,4.54,6,12.44,6.35,25h-48a18.7,18.7,0,0,0,4.15,9.85c2.2,2.73,6.1,6.23,14.13,6.23s12.71-3.77,14.78-6a18.8,18.8,0,0,0,2.2-3l13.23,7.65a42.74,42.74,0,0,1-6,6.74"/><path id="Fill-8" class="cls-2" d="M492.07,108.2c-1-3.5-4.53-11.14-15-11.14A15.34,15.34,0,0,0,465.5,102c-4.54,4.93-4.41,10.89-4.41,13s0,7.65,4.15,12.31a15.67,15.67,0,0,0,4.15,3.11,17.13,17.13,0,0,0,7.78,1.69c6.22,0,9.72-2.47,11.53-4.41,4.41-4.4,4.41-10.11,4.41-12.19a20.85,20.85,0,0,0-1-7.26M504,161.75c-4,5.44-12.45,9.85-27.09,9.85s-21.65-4-25.67-9.72c-1.56-2.34-2.72-5.06-4-10.64l17.11.14a8.27,8.27,0,0,0,1.56,3.23c3.37,4.93,10.5,4.8,11.67,4.8,7.77,0,11.79-3,13.48-6.09,1.81-3.37,1.68-6.74,1.68-14-7.26,6.48-16.33,6.87-19.57,6.87a28.56,28.56,0,0,1-11.8-2.34c-6.87-3-16.21-10.76-16.21-28.52a39.37,39.37,0,0,1,2.21-13.87,28.55,28.55,0,0,1,27.09-18.28c2.21,0,8.43.26,13.75,4.15A20.31,20.31,0,0,1,492.72,92V85.13h15.43v53.28c0,7.52.78,16.73-4.15,23.34"/><path id="Fill-9" class="cls-2" d="M560.77,141.65c-2.33,8-5.7,21.78-11.79,26.71-4,3.24-8.17,3.89-13.23,3.89a36.18,36.18,0,0,1-9.2-.91V157.85c6.22.78,9.72,0,12.05-1.94a9.42,9.42,0,0,0,2.73-4.67L517.86,85.13h16.72l14.52,48.35,12.19-48.35h16l-16.47,56.52"/><polyline id="Fill-10" class="cls-3" points="111.75 67.17 91.79 67.17 156.39 171.34 175.97 171.34 111.75 67.17"/><path id="Fill-11" class="cls-4" d="M199.7,200.16h2.91a9,9,0,0,1-3,5.15,8.06,8.06,0,0,1-5.38,1.92,6.61,6.61,0,0,1-5.21-2c-1.18-1.31-1.76-3.25-1.76-5.81a12.36,12.36,0,0,1,.72-4.23,11.36,11.36,0,0,1,2.12-3.59,9.12,9.12,0,0,1,3-2.26,8.86,8.86,0,0,1,3.72-.78,6.75,6.75,0,0,1,4.88,1.67,6.6,6.6,0,0,1,1.82,4.76h-3a3.79,3.79,0,0,0-1.06-2.85,4,4,0,0,0-2.9-1,5.42,5.42,0,0,0-4.4,2.48,9.69,9.69,0,0,0-1.86,6,5.42,5.42,0,0,0,1.06,3.61,3.78,3.78,0,0,0,3.06,1.25,4.8,4.8,0,0,0,3.14-1.15,6.83,6.83,0,0,0,2.06-3.17"/><path id="Fill-12" class="cls-4" d="M216.25,191.15a5.1,5.1,0,0,0-2.51.62,5.49,5.49,0,0,0-1.94,1.85,10.66,10.66,0,0,0-1.33,3A12.42,12.42,0,0,0,210,200a4.88,4.88,0,0,0,1.11,3.43,4,4,0,0,0,3.15,1.2,5.49,5.49,0,0,0,4.63-2.49,10.8,10.8,0,0,0,1.79-6.42,4.61,4.61,0,0,0-1.13-3.37A4.37,4.37,0,0,0,216.25,191.15Zm-9.34,8.57a11.85,11.85,0,0,1,2.7-8,8.77,8.77,0,0,1,6.95-3.13,7,7,0,0,1,5.29,2,7.52,7.52,0,0,1,1.94,5.45,11.8,11.8,0,0,1-2.71,8,8.77,8.77,0,0,1-6.94,3.12,7.08,7.08,0,0,1-5.33-1.94,7.51,7.51,0,0,1-1.9-5.47Z"/><path id="Fill-13" class="cls-4" d="M240.88,195.94a5,5,0,0,0-1.13-3.44,4,4,0,0,0-3.1-1.25,5.43,5.43,0,0,0-4.51,2.53,10.49,10.49,0,0,0-1.85,6.32,5.13,5.13,0,0,0,1.08,3.45,3.68,3.68,0,0,0,2.95,1.26,5.64,5.64,0,0,0,4.68-2.52A10.36,10.36,0,0,0,240.88,195.94Zm-1.74,10.72.36-2.18a8.49,8.49,0,0,1-2.64,2.08,6.92,6.92,0,0,1-3.05.67,6.17,6.17,0,0,1-4.84-1.92,7.85,7.85,0,0,1-1.72-5.43,13.2,13.2,0,0,1,.68-4.26,11.29,11.29,0,0,1,1.92-3.6,9.07,9.07,0,0,1,3-2.42,7.76,7.76,0,0,1,3.56-.87,6.3,6.3,0,0,1,3.24.83,6.66,6.66,0,0,1,2.35,2.49l2-9.49h2.85l-5,24.1Z"/><path id="Fill-14" class="cls-4" d="M251.86,186.1l.73-3.54h2.92l-.74,3.54Zm-4.39,20.56,3.68-17.52h2.95l-3.72,17.52Z"/><path id="Fill-15" class="cls-4" d="M256.22,206.66l3.71-17.52h2.68l-.57,2.62a10.18,10.18,0,0,1,3-2.21,8,8,0,0,1,3.36-.72,5.47,5.47,0,0,1,3.52,1,3.4,3.4,0,0,1,1.2,2.82,7.26,7.26,0,0,1-.07,1,11.69,11.69,0,0,1-.24,1.21l-2.47,11.85h-3l2.43-11.42c.09-.43.15-.79.19-1.09a6.65,6.65,0,0,0,.06-.85,1.72,1.72,0,0,0-.69-1.47,3.17,3.17,0,0,0-1.93-.52,5.57,5.57,0,0,0-4.15,1.67,9.73,9.73,0,0,0-2.31,4.89l-1.85,8.79h-2.94"/><path id="Fill-16" class="cls-4" d="M285.88,191.12a5.2,5.2,0,0,0-4.43,2.38,10.43,10.43,0,0,0-1.7,6.22,5,5,0,0,0,1.09,3.47,4,4,0,0,0,3.1,1.23,5.33,5.33,0,0,0,4.53-2.42,10.69,10.69,0,0,0,1.73-6.36,4.63,4.63,0,0,0-1.14-3.32A4.19,4.19,0,0,0,285.88,191.12Zm-10.14,17.27h2.91v.28a2.28,2.28,0,0,0,1.05,2,4.92,4.92,0,0,0,2.83.72A5.3,5.3,0,0,0,286.6,210c.85-.93,1.52-2.7,2-5.31a6.28,6.28,0,0,1-2.27,1.69,6.8,6.8,0,0,1-2.84.58,6.43,6.43,0,0,1-5-2,7.79,7.79,0,0,1-1.8-5.49,11.66,11.66,0,0,1,2.61-7.79,8.15,8.15,0,0,1,6.5-3.1,6.13,6.13,0,0,1,3.36.87,5.41,5.41,0,0,1,2.11,2.58l.64-2.88h2.84L291,207a7.74,7.74,0,0,1-8.57,7,7.57,7.57,0,0,1-4.92-1.44,4.87,4.87,0,0,1-1.77-4v-.09Z"/><path id="Fill-17" class="cls-4" d="M313.41,206.66c-.41.12-.79.21-1.14.28a5.45,5.45,0,0,1-.9.09,4.54,4.54,0,0,1-2.77-.7,2.54,2.54,0,0,1-.91-2.13,5.87,5.87,0,0,1,.07-.83c.05-.34.13-.77.22-1.31l2.24-10.51h-2.53l.54-2.41h2.5l1-4.76h2.94l-1,4.76h3l-.51,2.41h-3l-2.29,10.82c-.06.28-.11.52-.14.73a2.79,2.79,0,0,0-.05.52.84.84,0,0,0,.35.73,1.58,1.58,0,0,0,1,.26c.28,0,.57,0,.88,0l1-.15-.48,2.24"/><path id="Fill-18" class="cls-4" d="M327,191.15a5.06,5.06,0,0,0-2.5.62,5.6,5.6,0,0,0-1.95,1.85,10.65,10.65,0,0,0-1.32,3,12.06,12.06,0,0,0-.5,3.36,4.88,4.88,0,0,0,1.11,3.43,4.06,4.06,0,0,0,3.15,1.2,5.48,5.48,0,0,0,4.63-2.49,10.74,10.74,0,0,0,1.8-6.42,4.65,4.65,0,0,0-1.13-3.37A4.39,4.39,0,0,0,327,191.15Zm-9.34,8.57a11.8,11.8,0,0,1,2.71-8,8.73,8.73,0,0,1,6.94-3.13,7,7,0,0,1,5.29,2,7.48,7.48,0,0,1,1.94,5.45,11.79,11.79,0,0,1-2.7,8,8.8,8.8,0,0,1-7,3.12,7.08,7.08,0,0,1-5.33-1.94,7.51,7.51,0,0,1-1.9-5.47Z"/><path id="Fill-19" class="cls-4" d="M347.44,200.52h2.76a1.85,1.85,0,0,1,0,.23c0,.09,0,.22,0,.38a3.33,3.33,0,0,0,1.17,2.77,5.4,5.4,0,0,0,3.45.94,4.35,4.35,0,0,0,2.64-.72,2.28,2.28,0,0,0,1-1.94,2.13,2.13,0,0,0-.49-1.42,9,9,0,0,0-2.52-1.51l-.9-.41c-3.24-1.51-4.86-3.21-4.86-5.12a4.5,4.5,0,0,1,1.75-3.71,7.25,7.25,0,0,1,4.68-1.41,6.82,6.82,0,0,1,4.74,1.53,5.44,5.44,0,0,1,1.69,4.26v.38h-2.71v-.1a3.5,3.5,0,0,0-1-2.68,4,4,0,0,0-2.86-.9,4.39,4.39,0,0,0-2.52.63,1.94,1.94,0,0,0-.93,1.7c0,.88,1,1.75,2.91,2.64l.17.08a16.45,16.45,0,0,1,4.8,2.83,4,4,0,0,1,1,2.77,4.88,4.88,0,0,1-1.91,4,8.06,8.06,0,0,1-5.14,1.51,7.41,7.41,0,0,1-5.06-1.62,5.62,5.62,0,0,1-1.86-4.45c0-.17,0-.3,0-.4a2,2,0,0,1,0-.27"/><path id="Fill-20" class="cls-4" d="M365.22,206.66l5.13-24.1h2.91l-1.9,9a9.09,9.09,0,0,1,2.88-2.06,7.86,7.86,0,0,1,3.27-.69,5.43,5.43,0,0,1,3.52,1,3.48,3.48,0,0,1,1.17,2.86,9.55,9.55,0,0,1-.06,1c-.05.36-.11.74-.2,1.12l-2.52,11.86h-3l2.43-11.42c.1-.44.17-.82.22-1.15a7.75,7.75,0,0,0,.06-.93,1.57,1.57,0,0,0-.72-1.34,3.27,3.27,0,0,0-1.93-.51,5.56,5.56,0,0,0-4.14,1.67,9.65,9.65,0,0,0-2.32,4.89l-1.85,8.79h-3"/><path id="Fill-21" class="cls-4" d="M396.72,197.84a12.71,12.71,0,0,1-3.51.65,26.54,26.54,0,0,0-2.85.33,3.42,3.42,0,0,0-1.9,1,3,3,0,0,0-.62,2,2.71,2.71,0,0,0,.78,2,3,3,0,0,0,2.13.77,5.1,5.1,0,0,0,4.05-1.74A9.3,9.3,0,0,0,396.72,197.84Zm-.92,6.84a7.91,7.91,0,0,1-2.54,1.89,7.2,7.2,0,0,1-3,.63,5.44,5.44,0,0,1-4-1.42,5.35,5.35,0,0,1-1.43-3.95,4.85,4.85,0,0,1,1.78-4.15c1.19-.89,3.2-1.43,6-1.6l.23,0q4.75-.31,4.76-2.64a1.87,1.87,0,0,0-.79-1.67,4.7,4.7,0,0,0-2.53-.53,6.5,6.5,0,0,0-3.38.63,3.82,3.82,0,0,0-1.35,2.38h-2.91a6.1,6.1,0,0,1,2.36-4.15,8.88,8.88,0,0,1,5.28-1.38,8.69,8.69,0,0,1,4.71,1.07,3.4,3.4,0,0,1,1.65,3,4.89,4.89,0,0,1-.06.63c-.05.29-.13.77-.26,1.45l-1.61,7.42a6.85,6.85,0,0,0-.14.74c0,.24,0,.48,0,.72a.89.89,0,0,0,.3.72,1.47,1.47,0,0,0,.91.24l.36,0a2.87,2.87,0,0,0,.38-.08l-.44,2c-.27.06-.54.11-.83.15s-.64,0-1,0a2.55,2.55,0,0,1-1.78-.55,2.07,2.07,0,0,1-.61-1.62Z"/><path id="Fill-22" class="cls-4" d="M403.74,206.66l3.68-17.52h2.82l-.74,3.25a12.59,12.59,0,0,1,2.59-2.88,4,4,0,0,1,2.37-.81l.63,0c.22,0,.46.06.71.1l-.73,3.32H415c-.39,0-.68-.07-.88-.07a4.62,4.62,0,0,0-3.57,1.53,10,10,0,0,0-2.06,4.64l-1.81,8.41h-2.92"/><path id="Fill-23" class="cls-4" d="M420,196.34h9.6a1.54,1.54,0,0,0,0-.3c0-.11,0-.27,0-.47a4.61,4.61,0,0,0-1.07-3.24,3.78,3.78,0,0,0-2.92-1.18,5.14,5.14,0,0,0-3.59,1.35A7.27,7.27,0,0,0,420,196.34Zm11.8,4.59a7.54,7.54,0,0,1-2.81,4.62,8.57,8.57,0,0,1-5.38,1.68,6.9,6.9,0,0,1-5.29-2,8,8,0,0,1-1.84-5.67,12,12,0,0,1,2.57-7.94,8.2,8.2,0,0,1,6.61-3.08,6.62,6.62,0,0,1,7.1,7.1,13.47,13.47,0,0,1-.07,1.36c0,.5-.1,1.07-.19,1.69h-13v.09c0,.48-.07.81-.07,1a5.1,5.1,0,0,0,1.17,3.62,4.46,4.46,0,0,0,3.39,1.24,4.73,4.73,0,0,0,3.05-1,4.9,4.9,0,0,0,1.73-2.74Z"/><path id="Fill-24" class="cls-4" d="M597,90.3h-2.1v4.49h2.17a5.08,5.08,0,0,0,2.63-.51,1.81,1.81,0,0,0,.79-1.65,2,2,0,0,0-.82-1.78A5,5,0,0,0,597,90.3Zm.45-1.65a7.84,7.84,0,0,1,4.25.93,3.1,3.1,0,0,1,1.42,2.78,3.59,3.59,0,0,1-.81,2.4A3.87,3.87,0,0,1,600,96l3,6.2h-2.87l-2.77-5.79h-2.52v5.79h-2.55V88.65Zm10.11,7.12a11,11,0,0,0-.75-4.07,9.8,9.8,0,0,0-2.21-3.33,10.23,10.23,0,0,0-3.38-2.29,10.54,10.54,0,0,0-4-.79,10.38,10.38,0,0,0-4,.77,9.53,9.53,0,0,0-3.27,2.18,11,11,0,0,0-2.34,3.46,10,10,0,0,0,0,7.87,10.53,10.53,0,0,0,2.26,3.36,10.24,10.24,0,0,0,3.36,2.29,10,10,0,0,0,3.9.8,10.42,10.42,0,0,0,4-.78,11.13,11.13,0,0,0,3.45-2.26,10,10,0,0,0,3-7.21ZM597.12,83.71a12.1,12.1,0,0,1,4.64.9,12.16,12.16,0,0,1,6.45,6.5,12.05,12.05,0,0,1,0,9.14,11.31,11.31,0,0,1-2.59,3.81,12.67,12.67,0,0,1-4,2.63,11.65,11.65,0,0,1-4.53.92,11.51,11.51,0,0,1-4.54-.92,12,12,0,0,1-3.89-2.66,12.27,12.27,0,0,1-2.6-3.87,11.75,11.75,0,0,1,0-9.09,12.53,12.53,0,0,1,2.68-4,10.92,10.92,0,0,1,3.76-2.52,11.76,11.76,0,0,1,4.54-.86Z"/></g></g></g></svg>