<?xml version="1.0" encoding="UTF-8"?>
<!-- Generator: Adobe Illustrator 16.0.3, SVG Export Plug-In . SVG Version: 6.00 Build 0)  -->
<!DOCTYPE svg PUBLIC "-//W3C//DTD SVG 1.1//EN" "http://www.w3.org/Graphics/SVG/1.1/DTD/svg11.dtd">
<svg version="1.1" xmlns="http://www.w3.org/2000/svg" xmlns:xlink="http://www.w3.org/1999/xlink" x="0px" y="0px" width="623.6px" height="255.1px" viewBox="0 0 623.6 255.1" style="enable-background:new 0 0 623.6 255.1;" xml:space="preserve">
<style type="text/css">
<![CDATA[
	.st0{clip-path:url(#SVGID_2_);}
	.st1{fill:#FFFFFF;}
	.st2{clip-path:url(#SVGID_2_);fill:#F8161F;}
	.st3{clip-path:url(#SVGID_2_);fill:#F8D149;}
	.st4{clip-path:url(#SVGID_2_);fill:#970D81;}
	.st5{clip-path:url(#SVGID_2_);fill:#2D6A98;}
	.st6{clip-path:url(#SVGID_2_);fill:#FF8B0A;}
	.st7{clip-path:url(#SVGID_2_);fill:#391E7F;}
	.st8{clip-path:url(#SVGID_2_);fill:#6FBC1F;}
]]>
</style>
<g id="BG">
	<rect class="st1" width="623.6" height="255.1"/>
</g>
<g id="Logo">
	<g>
		<defs>
			<rect id="SVGID_1_" x="14.2" y="33.9" width="595.3" height="187.2"/>
		</defs>
		<clipPath id="SVGID_2_">
			<use xlink:href="#SVGID_1_" style="overflow:visible;"/>
		</clipPath>
		<path class="st0" d="M162.3,54.3c13.2,0.6,26.3-2.4,39.5-2.4c5.4,0,18,3.6,19.8-2.4c-9.7-4.2-20.4,2.4-30.5,0    c-5.4-0.6-10.2-3-16.2-3c-4.8,0.6-9.7,3-15.5,2.4l-8.3-1.8c-2.4,3.6-6-2.4-8.4,3C138.4,57.9,156.9,54.3,162.3,54.3"/>
		<polygon class="st0" points="40.8,86.4 34.3,86.4 34.3,167.4 60.3,167.4 60.3,144.7 89.4,144.7 89.4,122 60.3,122 60.3,112.3     95.9,112.3 95.9,86.4   "/>
		<path class="st0" d="M265.6,114.6c0.1-4-0.7-7.9-2.2-11.6c-1.5-3.4-3.7-6.5-6.5-8.9c-2.9-2.4-6.2-4.2-9.7-5.3    c-3.8-1.2-7.8-1.9-11.8-2v-0.3h-29.2v81.1h22.7v-22.7h6.5c3.5,0,6.3,2.7,6.5,6.2v16.5h22.7V147c0.3-2.8,0.1-5.6-0.4-8.3    c-0.5-2.1-1.4-4.2-2.7-6c-0.3-0.5-0.7-0.9-1.1-1.4c1-1.3,1.9-2.7,2.6-4.2C264.7,123.2,265.6,118.9,265.6,114.6"/>
		<polygon class="st0" points="323.8,86.4 319.6,86.4 319.6,117.7 302,89.3 299.9,86.4 280.7,86.4 280.7,167.4 303.4,167.4     303.4,137.4 320.5,165.2 322,167.4 342.3,167.4 342.3,86.4   "/>
		<polygon class="st0" points="398.3,90.3 397.2,86.4 378.8,86.4 377.6,90.3 355,160.9 352.9,167.4 376,167.4 384.2,144.7     391.5,144.7 399.9,167.4 423.1,167.4 420.9,160.9   "/>
		<path class="st0" d="M457.5,114.4c2-1.9,4.3-3.5,6.9-4.6c2.6-1.1,5.4-1.7,8.2-1.7c2.7,0,5.4,0.5,7.9,1.7c2.6,1.1,5,2.6,7,4.6    l1.6,1.2h27.2l-4.3-7.5c-5.8-10.2-15.3-17.9-26.5-21.4c-4.2-1.3-8.6-2-13-1.9c-6,0-11.9,1.2-17.3,3.6c-10.6,4.6-19,13-23.6,23.6    c-4.8,11-4.8,23.5,0,34.6c2.3,5.2,5.5,10,9.5,14.1c4,4,8.8,7.3,14,9.5c5.5,2.4,11.4,3.6,17.3,3.6c8.3,0.1,16.5-2.2,23.6-6.5    c3.3-2.1,6.4-4.6,9-7.4c2.6-2.9,4.9-6.2,6.7-9.7l4.2-8.3h-27l-1.6,2c-2,2-4.3,3.7-6.9,4.9c-2.5,1.2-5.3,1.8-8.1,1.8    c-2.8,0-5.6-0.5-8.2-1.6c-5.2-2.2-9.2-6.4-11.3-11.6c-2.2-5.2-2.2-11,0-16.2C454,118.6,455.5,116.3,457.5,114.4"/>
		<polygon class="st0" points="582.2,86.4 527.1,86.4 527.1,167.4 588.7,167.4 588.7,148 549.8,148 549.8,144.7 582.2,144.7     582.2,122 549.8,122 549.8,112.3 588.7,112.3 588.7,86.4   "/>
		<path class="st0" d="M117.2,98c-4,4-7.2,8.7-9.4,13.8c-4.6,10.8-4.6,23.1,0,33.9c2.2,5.2,5.4,9.8,9.4,13.8c3.5,3.5,7.6,6.3,12,8.5    l2.9-79.8l-1.2,0.5C125.9,90.9,121.2,94.1,117.2,98"/>
		<path class="st0" d="M178.6,98c-4-4-8.7-7.2-13.8-9.4l-1.6-0.6l3,80.2c9.8-4.6,17.5-12.6,21.8-22.5c4.6-10.8,4.6-23.1,0-33.9    C185.7,106.7,182.6,102,178.6,98"/>
		<polygon class="st0" points="158.8,167.4 155,63.7 140.3,63.7 136.5,167.4   "/>
		<rect x="34.3" y="193.4" class="st3" width="79.2" height="13.3"/>
		<rect x="113.5" y="193.4" class="st6" width="79.2" height="13.3"/>
		<rect x="192.7" y="193.4" class="st2" width="79.2" height="13.3"/>
		<rect x="271.9" y="193.4" class="st4" width="79.2" height="13.3"/>
		<rect x="351.1" y="193.4" class="st7" width="79.2" height="13.3"/>
		<rect x="430.3" y="193.4" class="st5" width="79.2" height="13.3"/>
		<rect x="509.5" y="193.4" class="st8" width="79.2" height="13.3"/>
	</g>
</g>
</svg>