<?xml version="1.0" encoding="UTF-8"?>
<!-- Generator: Adobe Illustrator 16.0.3, SVG Export Plug-In . SVG Version: 6.00 Build 0)  -->
<!DOCTYPE svg PUBLIC "-//W3C//DTD SVG 1.1//EN" "http://www.w3.org/Graphics/SVG/1.1/DTD/svg11.dtd">
<svg version="1.1" xmlns="http://www.w3.org/2000/svg" xmlns:xlink="http://www.w3.org/1999/xlink" x="0px" y="0px" width="623.6px" height="255.1px" viewBox="0 0 623.6 255.1" style="enable-background:new 0 0 623.6 255.1;" xml:space="preserve">
<style type="text/css">
<![CDATA[
	.st0{clip-path:url(#SVGID_46_);fill:none;}
	.st1{clip-path:url(#SVGID_16_);fill:#342A3A;}
	.st2{clip-path:url(#SVGID_28_);fill:#342A3A;}
	.st3{clip-path:url(#SVGID_40_);fill:#342A3A;}
	.st4{clip-path:url(#SVGID_4_);fill:#E73536;}
	.st5{clip-path:url(#SVGID_2_);}
	.st6{clip-path:url(#SVGID_6_);}
	.st7{clip-path:url(#SVGID_52_);fill:#342A3A;}
	.st8{clip-path:url(#SVGID_20_);fill:#342A3A;}
	.st9{fill:#FFFFFF;}
	.st10{fill:none;}
	.st11{clip-path:url(#SVGID_32_);fill:#342A3A;}
	.st12{clip-path:url(#SVGID_44_);fill:#342A3A;}
	.st13{clip-path:url(#SVGID_8_);fill:#E73536;}
	.st14{clip-path:url(#SVGID_12_);fill:#342A3A;}
	.st15{clip-path:url(#SVGID_24_);fill:#342A3A;}
	.st16{clip-path:url(#SVGID_10_);}
	.st17{clip-path:url(#SVGID_14_);}
	.st18{clip-path:url(#SVGID_18_);}
	.st19{clip-path:url(#SVGID_22_);}
	.st20{clip-path:url(#SVGID_26_);}
	.st21{clip-path:url(#SVGID_30_);}
	.st22{clip-path:url(#SVGID_34_);}
	.st23{clip-path:url(#SVGID_38_);}
	.st24{clip-path:url(#SVGID_42_);}
	.st25{clip-path:url(#SVGID_46_);}
	.st26{clip-path:url(#SVGID_50_);}
	.st27{clip-path:url(#SVGID_36_);fill:#342A3A;}
	.st28{clip-path:url(#SVGID_48_);fill:#342A3A;}
]]>
</style>
<g id="BG">
	<rect class="st9" width="623.6" height="255.1"/>
</g>
<g id="Logo">
	<g>
		<g>
			<defs>
				<rect id="SVGID_1_" x="34.9" y="-10.5" width="553.8" height="276.2"/>
			</defs>
			<clipPath id="SVGID_2_">
				<use xlink:href="#SVGID_1_" style="overflow:visible;"/>
			</clipPath>
			<g class="st5">
				<defs>
					<path id="SVGID_3_" d="M258.1,121.6c19.2,0,34.7-15.5,34.7-34.6c0-19.1-15.5-34.6-34.7-34.6c-19.2,0-34.7,15.5-34.7,34.6       C223.5,106.1,239,121.6,258.1,121.6z M258.1,153c36.5,0,66.1-29.5,66.1-65.9c0-36.4-29.6-66-66.1-66s-66.1,29.5-66.1,66       C192.1,123.4,221.7,153,258.1,153z"/>
				</defs>
				<clipPath id="SVGID_4_">
					<use xlink:href="#SVGID_3_" style="overflow:visible;"/>
				</clipPath>
				<rect x="190.8" y="19.8" class="st4" width="134.7" height="134.4"/>
			</g>
		</g>
		<g>
			<defs>
				<rect id="SVGID_5_" x="34.9" y="-10.5" width="553.8" height="276.2"/>
			</defs>
			<clipPath id="SVGID_6_">
				<use xlink:href="#SVGID_5_" style="overflow:visible;"/>
			</clipPath>
			<g class="st6">
				<defs>
					<path id="SVGID_7_" d="M319.9,38.8c11.8-11,27.7-17.8,45.1-17.8c36.5,0,66.1,29.5,66.1,66c0,36.4-29.6,65.9-66.1,65.9       c-17.3,0-33-6.6-44.8-17.5c7.1-9,12.2-19.6,14.7-31.2c6,10.4,17.2,17.3,30.1,17.3c19.2,0,34.7-15.5,34.7-34.6       c0-19.1-15.5-34.6-34.7-34.6c-12.9,0-24.2,7.1-30.2,17.5C332.2,58.4,327,47.8,319.9,38.8z"/>
				</defs>
				<clipPath id="SVGID_8_">
					<use xlink:href="#SVGID_7_" style="overflow:visible;"/>
				</clipPath>
				<rect x="318.6" y="19.8" class="st13" width="113.7" height="134.4"/>
			</g>
		</g>
		<g>
			<defs>
				<rect id="SVGID_9_" x="34.9" y="-10.5" width="553.8" height="276.2"/>
			</defs>
			<clipPath id="SVGID_10_">
				<use xlink:href="#SVGID_9_" style="overflow:visible;"/>
			</clipPath>
			<g class="st16">
				<defs>
					<polygon id="SVGID_11_" points="379.8,184.3 379.8,194.3 354.7,194.3 354.7,204.7 377.3,204.7 377.3,214.3 354.7,214.3        354.7,224.7 380.6,224.7 380.6,234.6 343.5,234.6 343.5,184.3      "/>
				</defs>
				<clipPath id="SVGID_12_">
					<use xlink:href="#SVGID_11_" style="overflow:visible;"/>
				</clipPath>
				<rect x="342.2" y="183" class="st14" width="39.7" height="52.9"/>
			</g>
		</g>
		<g>
			<defs>
				<rect id="SVGID_13_" x="34.9" y="-10.5" width="553.8" height="276.2"/>
			</defs>
			<clipPath id="SVGID_14_">
				<use xlink:href="#SVGID_13_" style="overflow:visible;"/>
			</clipPath>
			<g class="st17">
				<defs>
					<polygon id="SVGID_15_" points="320.7,194 320.7,234.6 309.4,234.6 309.4,194 295.2,194 295.2,184.3 335,184.3 335,194             "/>
				</defs>
				<clipPath id="SVGID_16_">
					<use xlink:href="#SVGID_15_" style="overflow:visible;"/>
				</clipPath>
				<rect x="293.9" y="183" class="st1" width="42.3" height="52.9"/>
			</g>
		</g>
		<g>
			<defs>
				<rect id="SVGID_17_" x="34.9" y="-10.5" width="553.8" height="276.2"/>
			</defs>
			<clipPath id="SVGID_18_">
				<use xlink:href="#SVGID_17_" style="overflow:visible;"/>
			</clipPath>
			<g class="st18">
				<defs>
					<rect id="SVGID_19_" x="275.6" y="184.3" width="11.3" height="50.3"/>
				</defs>
				<clipPath id="SVGID_20_">
					<use xlink:href="#SVGID_19_" style="overflow:visible;"/>
				</clipPath>
				<rect x="274.3" y="183" class="st8" width="13.8" height="52.9"/>
			</g>
		</g>
		<g>
			<defs>
				<rect id="SVGID_21_" x="34.9" y="-10.5" width="553.8" height="276.2"/>
			</defs>
			<clipPath id="SVGID_22_">
				<use xlink:href="#SVGID_21_" style="overflow:visible;"/>
			</clipPath>
			<g class="st19">
				<defs>
					<polygon id="SVGID_23_" points="252,184.3 263.3,184.3 263.3,234.6 252,234.6 228,203.1 228,234.6 216.7,234.6 216.7,184.3        227.3,184.3 252,216.7      "/>
				</defs>
				<clipPath id="SVGID_24_">
					<use xlink:href="#SVGID_23_" style="overflow:visible;"/>
				</clipPath>
				<rect x="215.5" y="183" class="st15" width="49" height="52.9"/>
			</g>
		</g>
		<g>
			<defs>
				<rect id="SVGID_25_" x="34.9" y="-10.5" width="553.8" height="276.2"/>
			</defs>
			<clipPath id="SVGID_26_">
				<use xlink:href="#SVGID_25_" style="overflow:visible;"/>
			</clipPath>
			<g class="st20">
				<defs>
					<rect id="SVGID_27_" x="193" y="184.3" width="11.3" height="50.3"/>
				</defs>
				<clipPath id="SVGID_28_">
					<use xlink:href="#SVGID_27_" style="overflow:visible;"/>
				</clipPath>
				<rect x="191.8" y="183" class="st2" width="13.8" height="52.9"/>
			</g>
		</g>
		<g>
			<defs>
				<rect id="SVGID_29_" x="34.9" y="-10.5" width="553.8" height="276.2"/>
			</defs>
			<clipPath id="SVGID_30_">
				<use xlink:href="#SVGID_29_" style="overflow:visible;"/>
			</clipPath>
			<g class="st21">
				<defs>
					<polygon id="SVGID_31_" points="183.9,184.3 183.9,194.2 160.5,194.2 160.5,205 182.7,205 182.7,214.9 160.5,214.9        160.5,234.6 149.3,234.6 149.3,184.3      "/>
				</defs>
				<clipPath id="SVGID_32_">
					<use xlink:href="#SVGID_31_" style="overflow:visible;"/>
				</clipPath>
				<rect x="148" y="183" class="st11" width="37.1" height="52.9"/>
			</g>
		</g>
		<g>
			<defs>
				<rect id="SVGID_33_" x="34.9" y="-10.5" width="553.8" height="276.2"/>
			</defs>
			<clipPath id="SVGID_34_">
				<use xlink:href="#SVGID_33_" style="overflow:visible;"/>
			</clipPath>
			<g class="st22">
				<defs>
					<polygon id="SVGID_35_" points="125.3,184.3 136.5,184.3 136.5,234.6 125.3,234.6 101.2,203.1 101.2,234.6 90,234.6 90,184.3        100.5,184.3 125.3,216.7      "/>
				</defs>
				<clipPath id="SVGID_36_">
					<use xlink:href="#SVGID_35_" style="overflow:visible;"/>
				</clipPath>
				<rect x="88.7" y="183" class="st27" width="49" height="52.9"/>
			</g>
		</g>
		<g>
			<defs>
				<rect id="SVGID_37_" x="34.9" y="-10.5" width="553.8" height="276.2"/>
			</defs>
			<clipPath id="SVGID_38_">
				<use xlink:href="#SVGID_37_" style="overflow:visible;"/>
			</clipPath>
			<g class="st23">
				<defs>
					<rect id="SVGID_39_" x="66.3" y="184.3" width="11.2" height="50.3"/>
				</defs>
				<clipPath id="SVGID_40_">
					<use xlink:href="#SVGID_39_" style="overflow:visible;"/>
				</clipPath>
				<rect x="65" y="183" class="st3" width="13.8" height="52.9"/>
			</g>
		</g>
		<g>
			<defs>
				<rect id="SVGID_41_" x="34.9" y="-10.5" width="553.8" height="276.2"/>
			</defs>
			<clipPath id="SVGID_42_">
				<use xlink:href="#SVGID_41_" style="overflow:visible;"/>
			</clipPath>
			<g class="st24">
				<defs>
					<path id="SVGID_43_" d="M438.9,206.9c1.4-1.2,2.1-3.2,2.1-5.9c0-2.7-0.7-4.6-2.2-5.6c-1.4-1-4-1.5-7.6-1.5h-8.4v14.9h8.2       C434.9,208.8,437.5,208.1,438.9,206.9z M452.8,201c0,8.1-3.2,13.3-9.6,15.6l12.8,18h-13.8l-11.2-16.1h-7.8v16.1h-11.2v-50.3       H431c7.8,0,13.4,1.3,16.8,4C451.1,190.9,452.8,195.1,452.8,201z"/>
				</defs>
				<clipPath id="SVGID_44_">
					<use xlink:href="#SVGID_43_" style="overflow:visible;"/>
				</clipPath>
				<rect x="410.6" y="183" class="st12" width="46.6" height="52.9"/>
			</g>
		</g>
		<g>
			<defs>
				<rect id="SVGID_45_" x="34.9" y="-10.5" width="553.8" height="276.2"/>
			</defs>
			<clipPath id="SVGID_46_">
				<use xlink:href="#SVGID_45_" style="overflow:visible;"/>
			</clipPath>
			<g class="st25">
				<defs>
					<polygon id="SVGID_47_" points="500.7,184.3 500.7,194.3 475.6,194.3 475.6,204.7 498.1,204.7 498.1,214.3 475.6,214.3        475.6,224.7 501.5,224.7 501.5,234.6 464.3,234.6 464.3,184.3      "/>
				</defs>
				<clipPath id="SVGID_48_">
					<use xlink:href="#SVGID_47_" style="overflow:visible;"/>
				</clipPath>
				<rect x="463.1" y="183" class="st28" width="39.7" height="52.9"/>
			</g>
			<line class="st0" x1="409.3" y1="348.3" x2="409.3" y2="349.8"/>
		</g>
		<g>
			<defs>
				<rect id="SVGID_49_" x="34.9" y="-10.5" width="553.8" height="276.2"/>
			</defs>
			<clipPath id="SVGID_50_">
				<use xlink:href="#SVGID_49_" style="overflow:visible;"/>
			</clipPath>
			<g class="st26">
				<defs>
					<path id="SVGID_51_" d="M541.7,220.6c2.8-2.6,4.1-6.4,4.1-11.3c0-4.9-1.4-8.8-4.1-11.4s-7-4-12.7-4h-6.3v30.6h7.1       C535,224.5,538.9,223.2,541.7,220.6z M549.8,190.9c4.8,4.4,7.2,10.5,7.2,18.3s-2.3,14-7,18.6c-4.7,4.6-11.8,6.8-21.5,6.8h-17.2       v-50.3h17.8C538.1,184.3,545,186.5,549.8,190.9z"/>
				</defs>
				<clipPath id="SVGID_52_">
					<use xlink:href="#SVGID_51_" style="overflow:visible;"/>
				</clipPath>
				<rect x="510" y="183" class="st7" width="48.3" height="52.9"/>
			</g>
		</g>
		<line class="st10" x1="52.5" y1="1.2" x2="564.2" y2="265.7"/>
	</g>
</g>
</svg>