<svg xmlns="http://www.w3.org/2000/svg" viewBox="0 0 623.62 255.12"><defs><style>.cls-1{fill:#fff;}.cls-2{fill:#ec008c;fill-rule:evenodd;}</style></defs><title>partner</title><g id="BG"><rect class="cls-1" width="623.62" height="255.12"/></g><g id="Logo"><g id="Symbols"><g id="Lastminute_RGB" data-name="Lastminute RGB"><path id="Fill-2" class="cls-2" d="M34.59,151.25a11.7,11.7,0,0,1-3.8-.8,5.32,5.32,0,0,1-2.17-1.59,5.53,5.53,0,0,1-1-2.39,17.9,17.9,0,0,1-.26-3.17V92.65L14.17,94.77V146a27.26,27.26,0,0,0,.75,6.67,10.79,10.79,0,0,0,2.83,5,13.75,13.75,0,0,0,5.66,3.22,32.72,32.72,0,0,0,9.32,1.24Zm19.13-.4q-2.07-1.18-2.07-4.28a4.7,4.7,0,0,1,.7-2.66,5,5,0,0,1,1.95-1.68,9.2,9.2,0,0,1,2.87-.84,27.45,27.45,0,0,1,3.49-.22,26.07,26.07,0,0,1,2.92.18c1.06.12,1.85.24,2.38.35v10a25,25,0,0,1-2.82.27c-1.18,0-2.42.09-3.71.09a11.46,11.46,0,0,1-5.71-1.2Zm.09-37.12c-1.5.15-2.93.32-4.29.53s-2.6.44-3.75.71-2.11.51-2.87.75l1.68,10.6A28.75,28.75,0,0,1,50.23,125a44.23,44.23,0,0,1,6.63-.49q5,0,7.07,2a7.27,7.27,0,0,1,2,5.39v1.24a19.86,19.86,0,0,0-3.22-.57,41,41,0,0,0-4.55-.23,34.61,34.61,0,0,0-7.34.76,19.62,19.62,0,0,0-6.27,2.43A12.6,12.6,0,0,0,40.2,140a13.6,13.6,0,0,0-1.63,6.9A16.38,16.38,0,0,0,40,154.08a12,12,0,0,0,4.07,4.73,17.81,17.81,0,0,0,6.31,2.6,38.79,38.79,0,0,0,8.18.8,75.63,75.63,0,0,0,12.2-.84q5-.84,7.86-1.46v-27.4a29.6,29.6,0,0,0-1-7.87,14,14,0,0,0-3.31-6,15.14,15.14,0,0,0-6.24-3.8,30.59,30.59,0,0,0-9.72-1.32c-1.53,0-3,.07-4.55.22ZM93.37,151a43.52,43.52,0,0,1-6.9-2.08l-2.21,10.7a41.15,41.15,0,0,0,5.7,1.76,41.9,41.9,0,0,0,10.3,1.06q9.45,0,14.63-3.52c3.44-2.36,5.17-5.82,5.17-10.41a17.44,17.44,0,0,0-.67-5.11,10.34,10.34,0,0,0-2.29-4,17.15,17.15,0,0,0-4.47-3.36,53.22,53.22,0,0,0-7.16-3.17c-1.41-.53-2.58-1-3.49-1.47a14.93,14.93,0,0,1-2.16-1.24,2.91,2.91,0,0,1-1.06-1.2,3.48,3.48,0,0,1-.27-1.41q0-3.45,6.19-3.45a27.25,27.25,0,0,1,6,.62,48.28,48.28,0,0,1,5,1.42L118,115.89a38.69,38.69,0,0,0-6.18-1.63,42.9,42.9,0,0,0-8.13-.75q-8.49,0-13.35,3.8a12.42,12.42,0,0,0-4.86,10.34,15.24,15.24,0,0,0,1,5.75,12,12,0,0,0,2.74,4.1,16.39,16.39,0,0,0,4.29,3,57,57,0,0,0,5.61,2.39,37,37,0,0,1,5.92,2.7,3.34,3.34,0,0,1,2,2.78,2.73,2.73,0,0,1-1.51,2.74,13.14,13.14,0,0,1-5.12.71,33.49,33.49,0,0,1-7-.75Zm31.64-8.8a36.64,36.64,0,0,0,.84,8.22,15,15,0,0,0,3,6.32,13.9,13.9,0,0,0,5.65,4.07,23.65,23.65,0,0,0,8.93,1.46,31,31,0,0,0,7.16-.71,37.15,37.15,0,0,0,5.3-1.68L154,149.66a22.37,22.37,0,0,1-4.11,1.1,24.77,24.77,0,0,1-4.38.4c-2.95,0-4.9-.82-5.88-2.47a13,13,0,0,1-1.45-6.63V125.71H154v-11H138.18V101.05L125,103.17Zm62.57,19h13.17V135.87c0-1.71-.06-3.31-.17-4.82a20.27,20.27,0,0,0-.8-4.28,11.19,11.19,0,0,1,3.14-1.33,12,12,0,0,1,3-.53q4,0,5.61,2.65c1.09,1.77,1.64,4.77,1.64,9v24.66H226.3V135a43.44,43.44,0,0,0-.8-8.67,16.43,16.43,0,0,0-2.92-6.71,13.7,13.7,0,0,0-5.7-4.38,23.21,23.21,0,0,0-9.15-1.54A24.49,24.49,0,0,0,194.48,118a18.62,18.62,0,0,0-5.17-3,21.86,21.86,0,0,0-8.18-1.28c-1.71,0-3.45.07-5.21.22s-3.5.35-5.18.61-3.26.56-4.77.89-2.81.63-3.93.93v44.9h13.17V125.35c.82-.12,1.68-.22,2.56-.31s1.74-.13,2.57-.13q4,0,5.61,2.65c1.09,1.77,1.63,4.77,1.63,9Zm47.11,0h13.17v-46.5H234.69Zm12.07-65.63a8.38,8.38,0,0,0-11,0,8.11,8.11,0,0,0,0,11.4,8.38,8.38,0,0,0,11,0,8.11,8.11,0,0,0,0-11.4Zm9.94,65.63h13.17V125.35c.83-.12,1.77-.22,2.83-.31s2.06-.13,3-.13q4.6,0,6.28,2.65c1.11,1.77,1.68,4.77,1.68,9v24.66h13.17V135a35.7,35.7,0,0,0-1-8.67,16.78,16.78,0,0,0-3.27-6.71,14.76,14.76,0,0,0-6.23-4.38,27.12,27.12,0,0,0-9.85-1.54,75.45,75.45,0,0,0-19.8,2.65Zm88.21-46.5H331.74v35.89c-.83.12-1.77.22-2.83.31s-2.06.13-3,.13q-4.59,0-6.27-2.83T318,139.05V114.74H304.78v25.9a36.69,36.69,0,0,0,1,8.75,17.38,17.38,0,0,0,3.27,6.85,15,15,0,0,0,6.24,4.47,26.41,26.41,0,0,0,9.85,1.59,71.23,71.23,0,0,0,11.14-.84,75.45,75.45,0,0,0,8.66-1.81Zm8.4,27.49a36.64,36.64,0,0,0,.84,8.22,15,15,0,0,0,3,6.32,14.07,14.07,0,0,0,5.66,4.07,23.62,23.62,0,0,0,8.93,1.46,31,31,0,0,0,7.16-.71,37.15,37.15,0,0,0,5.3-1.68l-1.86-10.25a21.94,21.94,0,0,1-4.11,1.1,24.66,24.66,0,0,1-4.37.4q-4.43,0-5.88-2.47a13,13,0,0,1-1.46-6.63V125.71h15.82v-11H366.47V101.05l-13.16,2.12Zm34.51,5.66a20,20,0,0,0,4.51,7.65,21.22,21.22,0,0,0,7.69,5.08,29.42,29.42,0,0,0,10.91,1.85,45.6,45.6,0,0,0,4.95-.26c1.65-.18,3.2-.4,4.64-.66a38.14,38.14,0,0,0,3.93-.93,17.89,17.89,0,0,0,2.83-1.06l-1.76-10.7a26.79,26.79,0,0,1-5.71,1.64,38.15,38.15,0,0,1-7.11.66c-3.77,0-6.78-.79-9-2.39a8.75,8.75,0,0,1-3.79-6.45h29.87c.06-.71.11-1.52.18-2.43s.08-1.75.08-2.52q0-11.75-5.74-17.81t-15.65-6a22.3,22.3,0,0,0-8.26,1.59,20.75,20.75,0,0,0-7.11,4.68,23.2,23.2,0,0,0-5,7.74,28.34,28.34,0,0,0-1.9,10.82,30.34,30.34,0,0,0,1.46,9.55Zm12.07-14.58a18.54,18.54,0,0,1,.83-3.32,8.92,8.92,0,0,1,1.64-2.87,7.71,7.71,0,0,1,2.65-2,8.85,8.85,0,0,1,3.8-.75,8.28,8.28,0,0,1,3.85.8,7.89,7.89,0,0,1,4.06,4.86,13.36,13.36,0,0,1,.58,3.27Zm48,14.89a8.85,8.85,0,0,0-11.4,0,8.53,8.53,0,0,0,0,12.11,8.85,8.85,0,0,0,11.4,0,8.53,8.53,0,0,0,0-12.11Zm6.1-.53a19.74,19.74,0,0,0,11.89,12.9,28.51,28.51,0,0,0,11,1.9,38,38,0,0,0,7.6-.7,31.26,31.26,0,0,0,5.74-1.68l-1.85-10.79a21.42,21.42,0,0,1-5,1.42,32.9,32.9,0,0,1-5.12.44c-4.49,0-7.62-1.15-9.42-3.45s-2.7-5.54-2.7-9.72c0-3.94,1-7.13,2.88-9.54s4.81-3.63,8.7-3.63a21.41,21.41,0,0,1,4.95.53,34.44,34.44,0,0,1,4.07,1.24l2.74-10.52a33.56,33.56,0,0,0-6-1.9,32.65,32.65,0,0,0-6.81-.66,24.85,24.85,0,0,0-10.07,1.94,22.23,22.23,0,0,0-12.25,13,27.41,27.41,0,0,0-1.63,9.5,33,33,0,0,0,1.37,9.68Zm82.86-19.75a22.3,22.3,0,0,0-4.68-7.69,21,21,0,0,0-7.2-5,23.77,23.77,0,0,0-9.24-1.76,23.5,23.5,0,0,0-9.15,1.76,21.43,21.43,0,0,0-7.25,5,22.65,22.65,0,0,0-4.77,7.69,27.69,27.69,0,0,0-1.73,10,28.82,28.82,0,0,0,1.69,10,22.61,22.61,0,0,0,4.68,7.77,20.62,20.62,0,0,0,7.21,5,23.71,23.71,0,0,0,9.32,1.76,24,24,0,0,0,9.41-1.76,20.81,20.81,0,0,0,7.21-5,21.82,21.82,0,0,0,4.59-7.77,30.29,30.29,0,0,0,1.59-10,28.36,28.36,0,0,0-1.68-10Zm-14.19,19.66a7.86,7.86,0,0,1-6.93,3.58,8,8,0,0,1-7-3.58q-2.47-3.59-2.48-9.68t2.48-9.59a8.07,8.07,0,0,1,7-3.49,7.94,7.94,0,0,1,6.93,3.49q2.44,3.49,2.44,9.59t-2.44,9.68Zm48,13.66H583.9V135.87c0-1.71,0-3.31-.17-4.82a20.27,20.27,0,0,0-.8-4.28,11.19,11.19,0,0,1,3.14-1.33,12,12,0,0,1,3-.53q4,0,5.62,2.65c1.08,1.77,1.63,4.77,1.63,9v24.66h13.17V135a43.44,43.44,0,0,0-.8-8.67,16.55,16.55,0,0,0-2.91-6.71,13.79,13.79,0,0,0-5.71-4.38,23.2,23.2,0,0,0-9.14-1.54A24.56,24.56,0,0,0,577.63,118a18.62,18.62,0,0,0-5.17-3,21.82,21.82,0,0,0-8.18-1.28c-1.71,0-3.45.07-5.21.22s-3.49.35-5.17.61-3.27.56-4.78.89-2.81.63-3.93.93v44.9h13.17V125.35c.83-.12,1.68-.22,2.56-.31s1.74-.13,2.57-.13q4,0,5.61,2.65c1.09,1.77,1.64,4.77,1.64,9v24.66Z"/></g></g></g></svg>