<svg xmlns="http://www.w3.org/2000/svg" viewBox="0 0 623.62 255.12"><defs><style>.cls-1{fill:#fff;}.cls-2{fill:#0047ba;}.cls-3{fill:#101820;}</style></defs><title>liferay</title><g id="BG"><rect class="cls-1" width="623.62" height="255.12"/></g><g id="Logo"><path class="cls-2" d="M127.63,53.08H23.25a9.08,9.08,0,0,0-9.08,9.08V166.54a9.08,9.08,0,0,0,9.08,9.08H127.63a9.09,9.09,0,0,0,9.08-9.08V62.16A9.09,9.09,0,0,0,127.63,53.08ZM50.48,132.5a2.27,2.27,0,0,1-2.27,2.27H34.59a2.27,2.27,0,0,1-2.27-2.27V118.89a2.27,2.27,0,0,1,2.27-2.27H48.21a2.27,2.27,0,0,1,2.27,2.27Zm0-22.69a2.27,2.27,0,0,1-2.27,2.27H34.59a2.27,2.27,0,0,1-2.27-2.27V96.2a2.27,2.27,0,0,1,2.27-2.27H48.21a2.27,2.27,0,0,1,2.27,2.27Zm0-22.69a2.27,2.27,0,0,1-2.27,2.27H34.59a2.27,2.27,0,0,1-2.27-2.27V73.5a2.27,2.27,0,0,1,2.27-2.26H48.21a2.27,2.27,0,0,1,2.27,2.26Zm22.69,68.07a2.27,2.27,0,0,1-2.27,2.27H57.29A2.26,2.26,0,0,1,55,155.19V141.58a2.27,2.27,0,0,1,2.27-2.27H70.9a2.27,2.27,0,0,1,2.27,2.27Zm0-45.38a2.27,2.27,0,0,1-2.27,2.27H57.29A2.27,2.27,0,0,1,55,109.81V96.2a2.26,2.26,0,0,1,2.27-2.27H70.9a2.27,2.27,0,0,1,2.27,2.27Zm0-22.69a2.27,2.27,0,0,1-2.27,2.27H57.29A2.27,2.27,0,0,1,55,87.12V73.5a2.26,2.26,0,0,1,2.27-2.26H70.9a2.27,2.27,0,0,1,2.27,2.26Zm22.69,68.07a2.26,2.26,0,0,1-2.27,2.27H80a2.26,2.26,0,0,1-2.27-2.27V141.58A2.27,2.27,0,0,1,80,139.31H93.59a2.27,2.27,0,0,1,2.27,2.27Zm0-22.69a2.26,2.26,0,0,1-2.27,2.27H80a2.26,2.26,0,0,1-2.27-2.27V118.89A2.26,2.26,0,0,1,80,116.62H93.59a2.26,2.26,0,0,1,2.27,2.27Zm0-45.38a2.27,2.27,0,0,1-2.27,2.27H80a2.27,2.27,0,0,1-2.27-2.27V73.5A2.26,2.26,0,0,1,80,71.24H93.59a2.26,2.26,0,0,1,2.27,2.26Zm22.69,68.07a2.26,2.26,0,0,1-2.27,2.27H102.67a2.27,2.27,0,0,1-2.27-2.27V141.58a2.27,2.27,0,0,1,2.27-2.27h13.61a2.27,2.27,0,0,1,2.27,2.27Zm0-22.69a2.26,2.26,0,0,1-2.27,2.27H102.67a2.27,2.27,0,0,1-2.27-2.27V118.89a2.27,2.27,0,0,1,2.27-2.27h13.61a2.26,2.26,0,0,1,2.27,2.27Zm0-22.69a2.27,2.27,0,0,1-2.27,2.27H102.67a2.27,2.27,0,0,1-2.27-2.27V96.2a2.27,2.27,0,0,1,2.27-2.27h13.61a2.26,2.26,0,0,1,2.27,2.27Z"/><path class="cls-3" d="M237.49,165.73h-53.9V54.6a1.12,1.12,0,0,0-1.12-1.12h-8.34A1.12,1.12,0,0,0,173,54.6V174a1.12,1.12,0,0,0,1.12,1.12h63.36a1.12,1.12,0,0,0,1.12-1.12v-7.18A1.12,1.12,0,0,0,237.49,165.73Z"/><path class="cls-3" d="M317.08,85.88h-19V68.19c0-12.52,4.11-18.6,12.55-18.6a22.54,22.54,0,0,1,9.87,2.35,1.16,1.16,0,0,0,.93,0,1.14,1.14,0,0,0,.63-.68l2.17-6.53a1.11,1.11,0,0,0-.61-1.37,33.67,33.67,0,0,0-13.13-3c-14.61,0-22.65,9.69-22.65,27.28V86l-10.92.69a1.11,1.11,0,0,0-1.05,1.11V94A1.12,1.12,0,0,0,277,95.11h10.85V174a1.12,1.12,0,0,0,1.11,1.12h8a1.12,1.12,0,0,0,1.11-1.12V95.11h19A1.12,1.12,0,0,0,318.2,94V87A1.12,1.12,0,0,0,317.08,85.88Z"/><path class="cls-3" d="M358.33,83.71c-18.94,0-39.07,16.46-39.07,47,0,27.46,17,46.64,41.36,46.64,13,0,21-4.31,28-8.72a1.12,1.12,0,0,0,.39-1.48l-3.3-6.09a1.11,1.11,0,0,0-1.63-.38c-7.26,5.12-14.49,7.51-22.73,7.51-18.32,0-30.92-14.18-31.63-35.42h61.44a1.11,1.11,0,0,0,1.1-.93,38.36,38.36,0,0,0,.47-6.71C392.76,99.18,379.89,83.71,358.33,83.71ZM329.81,123.9c2-18.33,13.67-31,28.59-31,15.57,0,24.27,11,24.58,31Z"/><path class="cls-3" d="M450.72,85.63a19.18,19.18,0,0,0-9.13-1.92c-9.12,0-17.63,5.78-24.2,16.37l-.7-13.14a1.13,1.13,0,0,0-1.12-1.06h-6.78A1.12,1.12,0,0,0,407.67,87v87a1.12,1.12,0,0,0,1.12,1.12h8a1.12,1.12,0,0,0,1.12-1.12v-59c5.56-13.66,13.8-21.5,22.62-21.5A18.46,18.46,0,0,1,448,94.94a1.11,1.11,0,0,0,.91-.07,1.14,1.14,0,0,0,.56-.71l1.81-7.25A1.14,1.14,0,0,0,450.72,85.63Z"/><path class="cls-3" d="M522.47,85.88h-7a1.12,1.12,0,0,0-1.12,1l-.45,6.58c-7.52-5.92-14.85-9.79-25.18-9.79-23.06,0-39.8,19.75-39.8,47,0,29.2,13.88,46.64,37.12,46.64,9.57,0,19.15-4.3,27.82-12.46l.71,9.25a1.11,1.11,0,0,0,1.11,1h6.78a1.12,1.12,0,0,0,1.12-1.12V87A1.12,1.12,0,0,0,522.47,85.88Zm-9.12,17.75v50.66C504,163.75,495.9,168,487.2,168c-17.29,0-27.62-14-27.62-37.34,0-21.08,13-37.59,29.51-37.59C497.62,93.05,504.9,96.22,513.35,103.63Z"/><path class="cls-3" d="M609.24,86.35a1.13,1.13,0,0,0-.91-.47h-8.19a1.12,1.12,0,0,0-1.06.76l-18.52,54.7c-1,2.89-2,6.08-3.06,9.36-1.43,4.45-2.9,9-4.37,13.23-1.82-4.54-3.7-9.48-5.53-14.28-1.12-2.92-2.2-5.76-3.21-8.35l-21-54.7a1.12,1.12,0,0,0-1-.72H533.7a1.15,1.15,0,0,0-.93.49,1.12,1.12,0,0,0-.11,1l35.59,88.29L566,182.88c-3.39,10.19-9.83,22.33-21.23,22.33a20.6,20.6,0,0,1-6.7-1.34,1.12,1.12,0,0,0-1.48.75l-1.85,6.93a1.12,1.12,0,0,0,.61,1.3,23.43,23.43,0,0,0,9.35,1.91c13.41,0,23.91-10.17,30.34-29.41l34.37-98A1.13,1.13,0,0,0,609.24,86.35Z"/><rect class="cls-3" x="250.86" y="85.88" width="10.25" height="89.27" rx="1.12"/><rect class="cls-3" x="249.41" y="53.12" width="13.13" height="13.13" rx="2.51"/></g></svg>