<svg xmlns="http://www.w3.org/2000/svg" xmlns:xlink="http://www.w3.org/1999/xlink" viewBox="0 0 623.62 255.12"><defs><style>.cls-1,.cls-2{fill:none;}.cls-1{clip-rule:evenodd;}.cls-3{fill:#fff;}.cls-4{clip-path:url(#clip-path);}.cls-5{clip-path:url(#clip-path-2);}.cls-6{fill:#353535;}.cls-7{clip-path:url(#clip-path-3);}.cls-8{isolation:isolate;}.cls-9{clip-path:url(#clip-path-5);}.cls-10{clip-path:url(#clip-path-6);}.cls-11{clip-path:url(#clip-path-7);}.cls-12{clip-path:url(#clip-path-8);}.cls-13{clip-path:url(#clip-path-10);}.cls-14{clip-path:url(#clip-path-12);}.cls-15{clip-path:url(#clip-path-14);}.cls-16{clip-path:url(#clip-path-16);}.cls-17{clip-path:url(#clip-path-18);}.cls-18{clip-path:url(#clip-path-20);}.cls-19{clip-path:url(#clip-path-22);}.cls-20{clip-path:url(#clip-path-24);}.cls-21{clip-path:url(#clip-path-26);}.cls-22{clip-path:url(#clip-path-28);}.cls-23{fill:#d5d5d5;}</style><clipPath id="clip-path"><path class="cls-1" d="M98,130.06v20.45H92.73V130.29c0-7.38-3.84-11.61-10.15-11.61-4.38,0-8.53,2.08-11.38,6.84a21,21,0,0,1,.46,4.54v20.45H66.35V130.29c0-7.38-3.84-11.61-10.22-11.61-4.15,0-8.07,2.08-10.92,6.46v25.37H40V115h5.23v4a14.91,14.91,0,0,1,11.84-5.15,13.73,13.73,0,0,1,12.23,6.61,17.1,17.1,0,0,1,14.22-6.61C92,113.84,98,120.06,98,130.06Z"/></clipPath><clipPath id="clip-path-2"><rect class="cls-2" x="-61.98" y="-66.79" width="749.7" height="389.85"/></clipPath><clipPath id="clip-path-3"><rect class="cls-2" x="39.98" y="14.18" width="540.59" height="226.77"/></clipPath><clipPath id="clip-path-5"><rect class="cls-2" x="111.95" y="14.17" width="470.81" height="227.91"/></clipPath><clipPath id="clip-path-6"><path class="cls-1" d="M113.47,101.53A3.5,3.5,0,0,1,117.09,98a3.54,3.54,0,0,1,3.61,3.53,3.49,3.49,0,0,1-3.61,3.54A3.46,3.46,0,0,1,113.47,101.53Zm1,49h5.31V115h-5.31Z"/></clipPath><clipPath id="clip-path-7"><rect class="cls-2" x="39.98" y="14.17" width="542.79" height="227.91"/></clipPath><clipPath id="clip-path-8"><rect class="cls-2" x="137.61" y="95.92" width="5.23" height="54.59"/></clipPath><clipPath id="clip-path-10"><polygon class="cls-1" points="165.28 140.75 165.28 150.51 160.06 150.51 160.06 95.92 165.28 95.92 165.28 133.83 185.27 114.99 192.04 114.99 176.58 129.91 194.96 150.51 188.12 150.51 172.82 133.52 165.28 140.75"/></clipPath><clipPath id="clip-path-12"><path class="cls-1" d="M264.69,130.06v20.45h-5.23V130.29c0-7.38-3.85-11.61-10.15-11.61-4.38,0-8.53,2.08-11.38,6.84a21,21,0,0,1,.46,4.54v20.45h-5.3V130.29c0-7.38-3.85-11.61-10.23-11.61-4.15,0-8.07,2.08-10.92,6.46v25.37h-5.22V115h5.22v4a14.91,14.91,0,0,1,11.84-5.15A13.73,13.73,0,0,1,236,120.45a17.1,17.1,0,0,1,14.22-6.61c8.46,0,14.46,6.22,14.46,16.22"/></clipPath><clipPath id="clip-path-14"><path class="cls-1" d="M314.57,150.51h-5.3v-3.92a18.07,18.07,0,0,1-12.84,4.92,18.72,18.72,0,0,1,0-37.44A18.07,18.07,0,0,1,309.27,119v-4h5.3Zm-5.3-10.07v-15.3a14.39,14.39,0,0,0-12.15-6.46,14.11,14.11,0,0,0,0,28.22A14.39,14.39,0,0,0,309.27,140.44Z"/></clipPath><clipPath id="clip-path-16"><path class="cls-1" d="M364.85,130.06v20.45h-5.31V130.29c0-7.38-4.31-11.61-10.77-11.61a15.38,15.38,0,0,0-12.22,6.61v25.22h-5.23V115h5.23v4.23a18,18,0,0,1,13.15-5.38c8.92,0,15.15,6.22,15.15,16.22"/></clipPath><clipPath id="clip-path-18"><path class="cls-1" d="M542,84.87l.21,0,24.28-4.19a1.24,1.24,0,0,0,.36-2.32c-1.75-.9-3.72-2.47-3.76-3.23,0-.34,0-.75,0-1.2,0-2.41,0-6-2.61-7.93a3.15,3.15,0,0,0-1.84-.63c-1.66,0-2.93,1.37-4.28,2.82a12.09,12.09,0,0,1-3,2.66c-.91.46-2.82,1.19-4.85,2-8.3,3.2-10.91,4.47-11.12,6.18a1.64,1.64,0,0,0,.75,1.59c.6.43,1.24,1,1.9,1.55a23.76,23.76,0,0,0,3.39,2.57l.63.17"/></clipPath><clipPath id="clip-path-20"><path class="cls-1" d="M537,156.68A46.77,46.77,0,0,1,504,172a47.57,47.57,0,0,1-9.78-.69A8,8,0,1,1,497,155.5a30.7,30.7,0,0,0,28.39-9.95c.91,6.51,2,8.81,11.54,11.13"/></clipPath><clipPath id="clip-path-22"><path class="cls-1" d="M533.11,153.54a45.94,45.94,0,0,1,5.65,2h0A45,45,0,0,1,564.3,184a8,8,0,0,0,7.68,5.77,7.86,7.86,0,0,0,2.25-.33,8,8,0,0,0,5.44-9.92,60.8,60.8,0,0,0-32-37.58h0a60.35,60.35,0,0,0-10.37-3.86.89.89,0,1,1,.46-1.71,60.67,60.67,0,0,1,9.9,3.6A107,107,0,0,0,552.93,127l.27-.81a111,111,0,0,0,4.36-18.56,8,8,0,0,0-.55-4.31h0l-.07-.14-.12-.21v0a7.9,7.9,0,0,0-5-4.13,50.06,50.06,0,0,0-39.41,5.58,8,8,0,0,0,8.39,13.65,34.07,34.07,0,0,1,18.36-5h0a33.43,33.43,0,0,1,8.35,1.21.91.91,0,0,1,.61,1.1.89.89,0,0,1-1.1.62,30.71,30.71,0,0,0-7.19-1.13,90.47,90.47,0,0,1-11.43,26.71,8.13,8.13,0,0,0-.94,2.15,8.58,8.58,0,0,0,5.64,9.83"/></clipPath><clipPath id="clip-path-24"><path class="cls-1" d="M559.32,107.93a111.72,111.72,0,0,1-4.27,18.34,46.62,46.62,0,0,0,14.65,9.08,7.72,7.72,0,0,0,2.86.53,8,8,0,0,0,2.87-15.48,33.62,33.62,0,0,1-16.06-12.87l0,.4"/></clipPath><clipPath id="clip-path-26"><rect class="cls-2" x="429.41" y="14.18" width="3.84" height="226.77"/></clipPath><clipPath id="clip-path-28"><path class="cls-1" d="M573.17,206.35c5.78,0,10.47.81,10.47,1.82S579,210,573.17,210s-10.46-.82-10.46-1.83,4.68-1.82,10.46-1.82"/></clipPath></defs><title>milkman</title><g id="BG"><rect class="cls-3" width="623.62" height="255.12"/></g><g id="Logo"><g class="cls-4"><g class="cls-5"><rect class="cls-6" x="24.99" y="98.84" width="87.96" height="66.66"/></g></g><g class="cls-7"><g class="cls-5"><g class="cls-8"><g class="cls-9"><g class="cls-10"><g class="cls-11"><rect class="cls-6" x="98.48" y="83" width="37.21" height="82.5"/></g></g><g class="cls-12"><g class="cls-11"><rect class="cls-6" x="122.61" y="80.93" width="35.22" height="84.58"/></g></g><g class="cls-13"><g class="cls-11"><rect class="cls-6" x="145.06" y="80.93" width="64.9" height="84.58"/></g></g><g class="cls-14"><g class="cls-11"><rect class="cls-6" x="191.72" y="98.84" width="87.96" height="66.66"/></g></g><g class="cls-15"><g class="cls-11"><rect class="cls-6" x="263.05" y="99.07" width="66.51" height="67.43"/></g></g><g class="cls-16"><g class="cls-11"><rect class="cls-6" x="316.32" y="98.84" width="63.52" height="66.66"/></g></g><g class="cls-17"><g class="cls-11"><rect class="cls-6" x="520.33" y="50.36" width="62.19" height="49.51"/></g></g><g class="cls-18"><g class="cls-11"><rect class="cls-6" x="472.64" y="130.55" width="79.32" height="56.42"/></g></g><g class="cls-19"><g class="cls-11"><rect class="cls-6" x="493.6" y="82.05" width="101.39" height="122.71"/></g></g><g class="cls-20"><g class="cls-11"><rect class="cls-6" x="540.06" y="92.54" width="55.51" height="58.34"/></g></g><g class="cls-21"><g class="cls-11"><rect class="cls-6" x="414.42" y="-0.82" width="33.83" height="256.76"/></g></g></g></g></g></g><g class="cls-22"><g class="cls-5"><rect class="cls-23" x="547.71" y="191.36" width="50.92" height="33.64"/></g></g></g></svg>